G04 DipTrace 3.3.1.3*
G04 BottomPaste.gbr*
%MOIN*%
G04 #@! TF.FileFunction,Paste,Bot*
G04 #@! TF.Part,Single*
%ADD68R,0.070866X0.015748*%
%ADD71R,0.661417X0.464567*%
%ADD79R,0.062992X0.043307*%
%ADD81R,0.062126X0.032126*%
%ADD85R,0.035433X0.031496*%
%ADD87R,0.033465X0.017717*%
%ADD101R,0.062992X0.055118*%
%ADD109R,0.043307X0.051181*%
%ADD113R,0.051181X0.043307*%
%FSLAX26Y26*%
G04*
G70*
G90*
G75*
G01*
G04 BotPaste*
%LPD*%
D113*
X3743701Y1350147D3*
Y1424950D3*
D101*
X1843701Y6856201D3*
Y6966437D3*
Y6449950D3*
Y6560186D3*
Y6049950D3*
Y6160186D3*
Y5645965D3*
Y5756201D3*
Y5249950D3*
Y5360186D3*
Y4849951D3*
Y4960188D3*
Y4449950D3*
Y4560186D3*
Y4049950D3*
Y4160186D3*
D87*
X2151702Y2749755D3*
Y2674951D3*
X2061151Y2712353D3*
X2151702Y2331004D3*
Y2256201D3*
X2061151Y2293602D3*
X2151702Y1962253D3*
Y1887450D3*
X2061151Y1924852D3*
X2151702Y1581003D3*
Y1506199D3*
X2061151Y1543601D3*
D109*
X939764Y3093701D3*
X1014567D3*
X939764Y2893701D3*
X1014567D3*
X939764Y2693701D3*
X1014567D3*
X939764Y2493701D3*
X1014567D3*
X2631201Y4437450D3*
X2556398D3*
D113*
X2512352Y7612549D3*
Y7687352D3*
X4637450Y5237450D3*
Y5162647D3*
X2612353Y7612549D3*
Y7687352D3*
D109*
X2624950Y4649950D3*
X2550147D3*
D113*
X2712453Y7612451D3*
Y7687255D3*
X4574951Y5031201D3*
Y4956398D3*
X2512451Y8056201D3*
Y7981398D3*
X2612451Y8056201D3*
Y7981398D3*
X2712451Y8056201D3*
Y7981398D3*
D85*
X5662450Y7599951D3*
X5595521D3*
X5662450Y2462451D3*
X5595521D3*
X5662450Y3762450D3*
X5595521D3*
X5661417Y7098425D3*
X5594488D3*
X5662450Y3118701D3*
X5595521D3*
D113*
X4693701Y3981199D3*
Y3906396D3*
D81*
X1156201Y999950D3*
Y889832D3*
D101*
X1031201Y7487450D3*
Y7597686D3*
D79*
X1270276Y7435088D3*
Y7553198D3*
D109*
X2349950Y2749950D3*
X2424753D3*
D113*
X2249951Y2675148D3*
Y2749951D3*
D109*
X2349950Y2331201D3*
X2424753D3*
D113*
X2249951Y2256398D3*
Y2331201D3*
D109*
X2349950Y1949951D3*
X2424753D3*
D113*
X2249951Y1881398D3*
Y1956201D3*
D109*
X2349950Y1587450D3*
X2424753D3*
D113*
X2249951Y1512647D3*
Y1587450D3*
D71*
X5168702Y718701D3*
D68*
X2518701Y5687450D3*
Y5637450D3*
Y5587450D3*
Y5537450D3*
Y5487450D3*
Y5437450D3*
Y5387450D3*
Y5337450D3*
Y5287450D3*
X2148622D3*
Y5337450D3*
Y5387450D3*
Y5437450D3*
Y5487450D3*
Y5537450D3*
Y5587450D3*
Y5637450D3*
Y5687450D3*
D71*
X5168702Y1218701D3*
D68*
X3149951Y2381201D3*
Y2331201D3*
Y2281201D3*
Y2231201D3*
Y2181201D3*
Y2131201D3*
Y2081201D3*
Y2031201D3*
Y1981201D3*
X2779873D3*
Y2031201D3*
Y2081201D3*
Y2131201D3*
Y2181201D3*
Y2231201D3*
Y2281201D3*
Y2331201D3*
Y2381201D3*
M02*
