G04 DipTrace 3.3.1.3*
G04 BottomSilk.gbr*
%MOIN*%
G04 #@! TF.FileFunction,Legend,Bot*
G04 #@! TF.Part,Single*
%ADD10C,0.009843*%
%ADD41C,0.015422*%
%ADD114C,0.004632*%
%ADD115C,0.00772*%
%ADD116C,0.006176*%
%FSLAX26Y26*%
G04*
G70*
G90*
G75*
G01*
G04 BotSilk*
%LPD*%
X3200630Y1231341D2*
D10*
X3224270D1*
X3212450Y1219545D2*
Y1243171D1*
X3062450Y1412451D2*
G02X3062450Y1412451I150000J0D01*
G01*
X4162311Y1650631D2*
Y1674271D1*
X4174108Y1662451D2*
X4150481D1*
X3831194D2*
G02X3831194Y1662451I150007J0D01*
G01*
X4568841Y1655521D2*
Y1631881D1*
X4557045Y1643701D2*
X4580671D1*
X4599943D2*
G02X4599943Y1643701I150007J0D01*
G01*
X1487590Y3724270D2*
Y3700630D1*
X1475794Y3712450D2*
X1499421D1*
X1518692D2*
G02X1518692Y3712450I150007J0D01*
G01*
X3495965Y1350515D2*
Y1728619D1*
X3716437Y1350515D2*
Y1728619D1*
X3495965Y1350515D2*
X3716437D1*
X3495965Y1700759D2*
Y1732027D1*
X3716437D1*
Y1700759D1*
Y1389706D2*
X3495965D1*
X1875165Y6899539D2*
Y6923098D1*
X1812236Y6899539D2*
Y6923098D1*
Y6906954D2*
X1875165D1*
X1812236Y6899505D2*
X1875165D1*
Y6493289D2*
Y6516848D1*
X1812236Y6493289D2*
Y6516848D1*
Y6500703D2*
X1875165D1*
X1812236Y6493254D2*
X1875165D1*
Y6093289D2*
Y6116848D1*
X1812236Y6093289D2*
Y6116848D1*
Y6100703D2*
X1875165D1*
X1812236Y6093254D2*
X1875165D1*
Y5689303D2*
Y5712862D1*
X1812236Y5689303D2*
Y5712862D1*
Y5696717D2*
X1875165D1*
X1812236Y5689269D2*
X1875165D1*
Y5293289D2*
Y5316848D1*
X1812236Y5293289D2*
Y5316848D1*
Y5300703D2*
X1875165D1*
X1812236Y5293254D2*
X1875165D1*
Y4893290D2*
Y4916849D1*
X1812236Y4893290D2*
Y4916849D1*
Y4900704D2*
X1875165D1*
X1812236Y4893255D2*
X1875165D1*
Y4493289D2*
Y4516848D1*
X1812236Y4493289D2*
Y4516848D1*
Y4500703D2*
X1875165D1*
X1812236Y4493254D2*
X1875165D1*
Y4093289D2*
Y4116848D1*
X1812236Y4093289D2*
Y4116848D1*
Y4100703D2*
X1875165D1*
X1812236Y4093254D2*
X1875165D1*
X872441Y1593701D2*
X400000D1*
Y3593701D1*
X872441D1*
Y1593701D1*
X1599950Y7712455D2*
X1399952D1*
Y8012424D1*
X1599950D1*
Y7712455D1*
X1399952Y7743739D2*
X1124974D1*
X1399952Y7781184D2*
X1124974D1*
Y7743739D2*
X1105029Y7762461D1*
X1124974Y7781184D2*
X1105029Y7762461D1*
X1399952Y7843683D2*
X1124974D1*
X1399952Y7881196D2*
X1124974D1*
Y7843683D2*
X1105029Y7862473D1*
X1124974Y7881196D2*
X1105029Y7862473D1*
X1399952Y7943695D2*
X1124974D1*
X1399952Y7981208D2*
X1124974D1*
Y7943695D2*
X1105029Y7962418D1*
X1124974Y7981208D2*
X1105029Y7962418D1*
X899951Y7243699D2*
X699954D1*
Y7643729D1*
X899951D1*
Y7243699D1*
X699954Y7274970D2*
X424976D1*
X699954Y7312484D2*
X424976D1*
Y7274970D2*
X405030Y7293655D1*
X424976Y7312484D2*
X405030Y7293655D1*
X699954Y7374929D2*
X424976D1*
X699954Y7412492D2*
X424976D1*
Y7374929D2*
X405030Y7393662D1*
X424976Y7412492D2*
X405030Y7393662D1*
X699954Y7474936D2*
X424976D1*
X699954Y7512499D2*
X424976D1*
Y7474936D2*
X405030Y7493670D1*
X424976Y7512499D2*
X405030Y7493670D1*
X699954Y7574943D2*
X424976D1*
X699954Y7612458D2*
X424976D1*
Y7574943D2*
X405030Y7593677D1*
X424976Y7612458D2*
X405030Y7593677D1*
X2862469Y7924953D2*
X2462434D1*
Y7824948D1*
X2862469D1*
Y7924953D1*
X5793702Y7349934D2*
X5693697D1*
Y7749969D1*
X5793702D1*
Y7349934D1*
X5793703Y2218683D2*
X5693698D1*
Y2618719D1*
X5793703D1*
Y2218683D1*
X1774949Y7812463D2*
X1874954D1*
Y7612440D1*
X1774949D1*
Y7812463D1*
X5793702Y3512432D2*
X5693697D1*
Y3912468D1*
X5793702D1*
Y3512432D1*
Y2868683D2*
X5693697D1*
Y3268719D1*
X5793702D1*
Y2868683D1*
Y6849932D2*
X5693697D1*
Y7249968D1*
X5793702D1*
Y6849932D1*
X3262462Y1174954D2*
X3062438D1*
Y1074949D1*
X3262462D1*
Y1174954D1*
X4462453Y1087440D2*
X4362448D1*
Y1287463D1*
X4462453D1*
Y1087440D1*
X2143713Y1443703D2*
X1943689D1*
Y1343698D1*
X2143713D1*
Y1443703D1*
X5371019Y4687457D2*
X5071057D1*
Y4587451D1*
X5371019D1*
Y4687457D1*
Y5232781D2*
X5071057D1*
Y5132776D1*
X5371019D1*
Y5232781D1*
Y6368706D2*
X5071057D1*
Y6268701D1*
X5371019D1*
Y6368706D1*
Y5793706D2*
X5071057D1*
Y5693701D1*
X5371019D1*
Y5793706D1*
X5370257Y2093706D2*
X5070295D1*
Y1993701D1*
X5370257D1*
Y2093706D1*
X5787455Y1399938D2*
X5687450D1*
Y1599962D1*
X5787455D1*
Y1399938D1*
X1748396Y2812445D2*
X2048358D1*
Y2912450D1*
X1748396D1*
Y2812445D1*
Y2393696D2*
X2048358D1*
Y2493701D1*
X1748396D1*
Y2393696D1*
X396476Y854302D2*
Y1334674D1*
Y854302D2*
X715381D1*
X719341Y1334674D2*
X396476D1*
X888632Y854302D2*
X1018570D1*
Y1003958D1*
Y1192930D2*
Y1334674D1*
X884672D1*
X1748396Y2024946D2*
X2048358D1*
Y2124951D1*
X1748396D1*
Y2024946D1*
X1742145Y1649945D2*
X2042107D1*
Y1749950D1*
X1742145D1*
Y1649945D1*
X872441Y3793701D2*
X400000D1*
Y6993701D1*
X872441D1*
Y3793701D1*
X1193682Y6943706D2*
X893720D1*
Y6843701D1*
X1193682D1*
Y6943706D1*
Y6543706D2*
X893720D1*
Y6443701D1*
X1193682D1*
Y6543706D1*
Y6143706D2*
X893720D1*
Y6043701D1*
X1193682D1*
Y6143706D1*
Y5743706D2*
X893720D1*
Y5643701D1*
X1193682D1*
Y5743706D1*
Y5343706D2*
X893720D1*
Y5243701D1*
X1193682D1*
Y5343706D1*
Y4943706D2*
X893720D1*
Y4843701D1*
X1193682D1*
Y4943706D1*
Y4543706D2*
X893720D1*
Y4443701D1*
X1193682D1*
Y4543706D1*
Y4143706D2*
X893720D1*
Y4043701D1*
X1193682D1*
Y4143706D1*
X1799606Y6744094D2*
X1209055D1*
Y7043307D1*
X1799606D1*
Y6744094D1*
Y6344094D2*
X1209055D1*
Y6643307D1*
X1799606D1*
Y6344094D1*
Y5944094D2*
X1209055D1*
Y6243307D1*
X1799606D1*
Y5944094D1*
Y5544094D2*
X1209055D1*
Y5843307D1*
X1799606D1*
Y5544094D1*
Y5144094D2*
X1209055D1*
Y5443307D1*
X1799606D1*
Y5144094D1*
Y4744094D2*
X1209055D1*
Y5043307D1*
X1799606D1*
Y4744094D1*
Y4344094D2*
X1209055D1*
Y4643307D1*
X1799606D1*
Y4344094D1*
Y3944094D2*
X1209055D1*
Y4243307D1*
X1799606D1*
Y3944094D1*
X4130118Y1518701D2*
G02X4130118Y1518701I187008J0D01*
G01*
D41*
X2166411Y2780604D3*
X2116269Y2771403D2*
D10*
Y2653298D1*
X2096584D1*
Y2771403D1*
X2116269D1*
D41*
X2166411Y2361853D3*
X2116269Y2352652D2*
D10*
Y2234547D1*
X2096584D1*
Y2352652D1*
X2116269D1*
D41*
X2166411Y1993102D3*
X2116269Y1983901D2*
D10*
Y1865797D1*
X2096584D1*
Y1983901D1*
X2116269D1*
D41*
X2166411Y1611852D3*
X2116269Y1602651D2*
D10*
Y1484546D1*
X2096584D1*
Y1602651D1*
X2116269D1*
X1187666Y956735D2*
Y933167D1*
X1124736Y956735D2*
Y933167D1*
X999736Y7530789D2*
Y7554348D1*
X1062665Y7530789D2*
Y7554348D1*
X1236841Y7482360D2*
Y7505926D1*
X1303710Y7482360D2*
Y7505926D1*
X2681194Y4320177D2*
X4490255D1*
Y6631201D1*
X2681194D1*
Y4320177D1*
X3481161Y6431298D2*
X3781284D1*
Y6631201D1*
X3481161D1*
Y6431298D1*
G36*
X3581202Y5081197D2*
X3181218Y5481235D1*
X3581202Y5881274D1*
X3981185Y5481235D1*
X3581202Y5081197D1*
G37*
X2459645Y5715809D2*
D10*
Y5259091D1*
X2207678Y5715809D2*
Y5259091D1*
X2459645D2*
X2207678D1*
X2459645Y5715809D2*
X2365169D1*
X2302154D2*
X2207678D1*
X2365169D2*
G02X2302154Y5715809I-31507J-6D01*
G01*
X3680709Y990453D2*
X4074409D1*
X3680709Y1167620D2*
X3751575D1*
X4003543D2*
X4074409D1*
Y990453D1*
X3680709D2*
Y1167620D1*
Y1045597D2*
X4074409D1*
X3090896Y2409560D2*
Y1952842D1*
X2838929Y2409560D2*
Y1952842D1*
X3090896D2*
X2838929D1*
X3090896Y2409560D2*
X2996419D1*
X2933405D2*
X2838929D1*
X2996419D2*
G02X2933405Y2409560I-31507J-6D01*
G01*
X3265504Y1625622D2*
D114*
X3263195Y1627081D1*
X3259747Y1631359D1*
Y1601248D1*
X3245438Y1631359D2*
X3248887Y1629933D1*
X3251195Y1625622D1*
X3252336Y1618459D1*
Y1614148D1*
X3251195Y1606985D1*
X3248887Y1602674D1*
X3245438Y1601248D1*
X3243157D1*
X3239708Y1602674D1*
X3237426Y1606985D1*
X3236259Y1614148D1*
Y1618459D1*
X3237426Y1625622D1*
X3239708Y1629933D1*
X3243157Y1631359D1*
X3245438D1*
X3237426Y1625622D2*
X3251195Y1606985D1*
X3221951Y1631359D2*
X3225399Y1629933D1*
X3227707Y1625622D1*
X3228848Y1618459D1*
Y1614148D1*
X3227707Y1606985D1*
X3225399Y1602674D1*
X3221951Y1601248D1*
X3219669D1*
X3216220Y1602674D1*
X3213939Y1606985D1*
X3212771Y1614148D1*
Y1618459D1*
X3213939Y1625622D1*
X3216220Y1629933D1*
X3219669Y1631359D1*
X3221951D1*
X3213939Y1625622D2*
X3227707Y1606985D1*
X3198463Y1631359D2*
X3201912Y1629933D1*
X3204220Y1625622D1*
X3205361Y1618459D1*
Y1614148D1*
X3204220Y1606985D1*
X3201912Y1602674D1*
X3198463Y1601248D1*
X3196181D1*
X3192733Y1602674D1*
X3190451Y1606985D1*
X3189284Y1614148D1*
Y1618459D1*
X3190451Y1625622D1*
X3192733Y1629933D1*
X3196181Y1631359D1*
X3198463D1*
X3190451Y1625622D2*
X3204220Y1606985D1*
X3181873Y1621344D2*
Y1606985D1*
X3180732Y1602707D1*
X3178424Y1601248D1*
X3174975D1*
X3172694Y1602707D1*
X3169245Y1606985D1*
Y1621344D2*
Y1601248D1*
X3146898Y1631392D2*
X3161834D1*
Y1601248D1*
Y1617033D2*
X3152655D1*
X3836954Y1794366D2*
X3834646Y1795825D1*
X3831197Y1800103D1*
Y1769992D1*
X3816888Y1800103D2*
X3820337Y1798677D1*
X3822645Y1794366D1*
X3823786Y1787203D1*
Y1782892D1*
X3822645Y1775729D1*
X3820337Y1771418D1*
X3816888Y1769992D1*
X3814607D1*
X3811158Y1771418D1*
X3808876Y1775729D1*
X3807709Y1782892D1*
Y1787203D1*
X3808876Y1794366D1*
X3811158Y1798677D1*
X3814607Y1800103D1*
X3816888D1*
X3808876Y1794366D2*
X3822645Y1775729D1*
X3793401Y1800103D2*
X3796849Y1798677D1*
X3799158Y1794366D1*
X3800298Y1787203D1*
Y1782892D1*
X3799158Y1775729D1*
X3796849Y1771418D1*
X3793401Y1769992D1*
X3791119D1*
X3787670Y1771418D1*
X3785389Y1775729D1*
X3784222Y1782892D1*
Y1787203D1*
X3785389Y1794366D1*
X3787670Y1798677D1*
X3791119Y1800103D1*
X3793401D1*
X3785389Y1794366D2*
X3799158Y1775729D1*
X3769913Y1800103D2*
X3773362Y1798677D1*
X3775670Y1794366D1*
X3776811Y1787203D1*
Y1782892D1*
X3775670Y1775729D1*
X3773362Y1771418D1*
X3769913Y1769992D1*
X3767632D1*
X3764183Y1771418D1*
X3761901Y1775729D1*
X3760734Y1782892D1*
Y1787203D1*
X3761901Y1794366D1*
X3764183Y1798677D1*
X3767632Y1800103D1*
X3769913D1*
X3761901Y1794366D2*
X3775670Y1775729D1*
X3753323Y1790088D2*
Y1775729D1*
X3752182Y1771451D1*
X3749874Y1769992D1*
X3746425D1*
X3744144Y1771451D1*
X3740695Y1775729D1*
Y1790088D2*
Y1769992D1*
X3718348Y1800136D2*
X3733284D1*
Y1769992D1*
Y1785777D2*
X3724105D1*
X3676010Y1435107D2*
X3674550Y1432799D1*
X3670273Y1429351D1*
X3700383D1*
X3670273Y1415042D2*
X3671699Y1418491D1*
X3676010Y1420799D1*
X3683172Y1421940D1*
X3687484D1*
X3694646Y1420799D1*
X3698957Y1418491D1*
X3700383Y1415042D1*
Y1412761D1*
X3698957Y1409312D1*
X3694646Y1407030D1*
X3687484Y1405863D1*
X3683173D1*
X3676010Y1407030D1*
X3671699Y1409312D1*
X3670273Y1412761D1*
Y1415042D1*
X3676010Y1407030D2*
X3694646Y1420799D1*
X3670273Y1391555D2*
X3671699Y1395003D1*
X3676010Y1397311D1*
X3683173Y1398452D1*
X3687484D1*
X3694646Y1397311D1*
X3698957Y1395003D1*
X3700383Y1391554D1*
Y1389273D1*
X3698957Y1385824D1*
X3694646Y1383543D1*
X3687484Y1382375D1*
X3683173D1*
X3676010Y1383543D1*
X3671699Y1385824D1*
X3670273Y1389273D1*
Y1391555D1*
X3676010Y1383543D2*
X3694646Y1397311D1*
X3680287Y1374965D2*
X3700383D1*
X3686024D2*
X3681713Y1371516D1*
X3680287Y1369208D1*
Y1365785D1*
X3681713Y1363477D1*
X3686024Y1362337D1*
X3700383D1*
X3670239Y1339990D2*
Y1354926D1*
X3700383D1*
X3684598D2*
Y1345747D1*
X4770303Y1807491D2*
Y1837601D1*
X4781791Y1817539D1*
X4764573D1*
X4752573Y1807491D2*
X4741085Y1837601D1*
X4757162D1*
X4726777D2*
X4730226Y1836176D1*
X4732534Y1831864D1*
X4733675Y1824702D1*
Y1820391D1*
X4732534Y1813228D1*
X4730226Y1808917D1*
X4726777Y1807491D1*
X4724495D1*
X4721047Y1808917D1*
X4718765Y1813228D1*
X4717598Y1820391D1*
Y1824702D1*
X4718765Y1831864D1*
X4721047Y1836176D1*
X4724495Y1837601D1*
X4726777D1*
X4718765Y1831864D2*
X4732534Y1813228D1*
X4710187Y1827587D2*
Y1813228D1*
X4709046Y1808950D1*
X4706738Y1807491D1*
X4703289D1*
X4701008Y1808950D1*
X4697559Y1813228D1*
Y1827587D2*
Y1807491D1*
X4675212Y1837635D2*
X4690148D1*
Y1807491D1*
Y1823276D2*
X4680969D1*
X1495303Y3763740D2*
Y3793851D1*
X1506791Y3773788D1*
X1489573D1*
X1477573Y3763740D2*
X1466085Y3793851D1*
X1482162D1*
X1451777D2*
X1455226Y3792425D1*
X1457534Y3788114D1*
X1458675Y3780951D1*
Y3776640D1*
X1457534Y3769477D1*
X1455226Y3765166D1*
X1451777Y3763740D1*
X1449495D1*
X1446047Y3765166D1*
X1443765Y3769477D1*
X1442598Y3776640D1*
Y3780951D1*
X1443765Y3788114D1*
X1446047Y3792425D1*
X1449495Y3793851D1*
X1451777D1*
X1443765Y3788114D2*
X1457534Y3769477D1*
X1435187Y3783836D2*
Y3769477D1*
X1434046Y3765199D1*
X1431738Y3763740D1*
X1428289D1*
X1426008Y3765199D1*
X1422559Y3769477D1*
Y3783836D2*
Y3763740D1*
X1400212Y3793884D2*
X1415148D1*
Y3763740D1*
Y3779525D2*
X1405969D1*
X3449286Y1627135D2*
X3447827Y1624827D1*
X3443549Y1621379D1*
X3473660D1*
X3443516Y1597891D2*
X3473660D1*
X3443516Y1613968D1*
X3473660D1*
X3443550Y1576711D2*
X3443549Y1588172D1*
X3456449Y1589313D1*
X3455023Y1588172D1*
X3453564Y1584723D1*
Y1581301D1*
X3455023Y1577852D1*
X3457875Y1575544D1*
X3462186Y1574403D1*
X3465038D1*
X3469349Y1575544D1*
X3472234Y1577852D1*
X3473660Y1581301D1*
Y1584723D1*
X3472234Y1588172D1*
X3470775Y1589313D1*
X3467923Y1590480D1*
X3443550Y1561262D2*
X3444975Y1564684D1*
X3447827Y1565852D1*
X3450712D1*
X3453564Y1564684D1*
X3455023Y1562403D1*
X3456449Y1557813D1*
X3457875Y1554365D1*
X3460760Y1552083D1*
X3463612Y1550942D1*
X3467923D1*
X3470775Y1552083D1*
X3472234Y1553224D1*
X3473660Y1556673D1*
Y1561262D1*
X3472234Y1564684D1*
X3470775Y1565852D1*
X3467923Y1566992D1*
X3463612D1*
X3460760Y1565852D1*
X3457875Y1563544D1*
X3456449Y1560121D1*
X3455023Y1555532D1*
X3453564Y1553224D1*
X3450712Y1552083D1*
X3447827D1*
X3444975Y1553224D1*
X3443550Y1556673D1*
Y1561262D1*
X3450712Y1542364D2*
X3449286D1*
X3446401Y1541223D1*
X3444975Y1540083D1*
X3443550Y1537775D1*
Y1533185D1*
X3444975Y1530903D1*
X3446401Y1529763D1*
X3449286Y1528595D1*
X3452138D1*
X3455023Y1529763D1*
X3459301Y1532044D1*
X3473660Y1543531D1*
Y1527455D1*
X3450712Y1518877D2*
X3449286D1*
X3446401Y1517736D1*
X3444975Y1516595D1*
X3443549Y1514287D1*
Y1509697D1*
X3444975Y1507416D1*
X3446401Y1506275D1*
X3449286Y1505108D1*
X3452138D1*
X3455023Y1506275D1*
X3459301Y1508557D1*
X3473660Y1520044D1*
Y1503967D1*
X1901353Y6968884D2*
X1899894Y6966576D1*
X1895616Y6963127D1*
X1925727D1*
X1895583Y6939639D2*
X1925727D1*
X1895583Y6955716D1*
X1925727D1*
Y6920741D2*
X1895616D1*
X1915679Y6932229D1*
Y6915011D1*
X1901353Y6907600D2*
X1899894Y6905292D1*
X1895616Y6901843D1*
X1925727D1*
Y6882945D2*
X1895616D1*
X1915679Y6894433D1*
Y6877215D1*
X1895616Y6864074D2*
X1897042Y6867496D1*
X1899894Y6868663D1*
X1902779D1*
X1905631Y6867496D1*
X1907090Y6865215D1*
X1908516Y6860625D1*
X1909942Y6857176D1*
X1912827Y6854895D1*
X1915679Y6853754D1*
X1919990D1*
X1922842Y6854895D1*
X1924301Y6856035D1*
X1925727Y6859484D1*
Y6864074D1*
X1924301Y6867496D1*
X1922842Y6868663D1*
X1919990Y6869804D1*
X1915679D1*
X1912827Y6868663D1*
X1909942Y6866355D1*
X1908516Y6862933D1*
X1907090Y6858344D1*
X1905631Y6856035D1*
X1902779Y6854895D1*
X1899894D1*
X1897042Y6856035D1*
X1895616Y6859484D1*
Y6864074D1*
X1907604Y6568883D2*
X1906145Y6566575D1*
X1901867Y6563126D1*
X1931978D1*
X1901834Y6539638D2*
X1931978D1*
X1901834Y6555715D1*
X1931978D1*
Y6520740D2*
X1901867D1*
X1921930Y6532227D1*
Y6515010D1*
X1907604Y6507599D2*
X1906145Y6505291D1*
X1901867Y6501842D1*
X1931978D1*
Y6482944D2*
X1901867D1*
X1921930Y6494431D1*
Y6477214D1*
X1901867Y6464073D2*
X1903293Y6467495D1*
X1906145Y6468662D1*
X1909030D1*
X1911882Y6467495D1*
X1913341Y6465213D1*
X1914767Y6460624D1*
X1916193Y6457175D1*
X1919078Y6454893D1*
X1921930Y6453753D1*
X1926241D1*
X1929093Y6454893D1*
X1930552Y6456034D1*
X1931978Y6459483D1*
Y6464073D1*
X1930552Y6467495D1*
X1929093Y6468662D1*
X1926241Y6469803D1*
X1921930D1*
X1919078Y6468662D1*
X1916193Y6466354D1*
X1914767Y6462932D1*
X1913341Y6458342D1*
X1911882Y6456034D1*
X1909030Y6454893D1*
X1906145D1*
X1903293Y6456034D1*
X1901867Y6459483D1*
Y6464073D1*
X1907604Y6168884D2*
X1906145Y6166576D1*
X1901867Y6163127D1*
X1931978D1*
X1901834Y6139639D2*
X1931978D1*
X1901834Y6155716D1*
X1931978D1*
Y6120741D2*
X1901867D1*
X1921930Y6132229D1*
Y6115011D1*
X1907604Y6107600D2*
X1906145Y6105292D1*
X1901867Y6101843D1*
X1931978D1*
Y6082945D2*
X1901867D1*
X1921930Y6094433D1*
Y6077215D1*
X1901867Y6064074D2*
X1903293Y6067496D1*
X1906145Y6068663D1*
X1909030D1*
X1911882Y6067496D1*
X1913341Y6065215D1*
X1914767Y6060625D1*
X1916193Y6057176D1*
X1919078Y6054895D1*
X1921930Y6053754D1*
X1926241D1*
X1929093Y6054895D1*
X1930552Y6056035D1*
X1931978Y6059484D1*
Y6064074D1*
X1930552Y6067496D1*
X1929093Y6068663D1*
X1926241Y6069804D1*
X1921930D1*
X1919078Y6068663D1*
X1916193Y6066355D1*
X1914767Y6062933D1*
X1913341Y6058344D1*
X1911882Y6056035D1*
X1909030Y6054895D1*
X1906145D1*
X1903293Y6056035D1*
X1901867Y6059484D1*
Y6064074D1*
X1901353Y5752398D2*
X1899894Y5750090D1*
X1895616Y5746642D1*
X1925727D1*
X1895583Y5723154D2*
X1925727D1*
X1895583Y5739231D1*
X1925727D1*
Y5704256D2*
X1895616D1*
X1915679Y5715743D1*
Y5698526D1*
X1901353Y5691115D2*
X1899894Y5688807D1*
X1895616Y5685358D1*
X1925727D1*
Y5666460D2*
X1895616D1*
X1915679Y5677947D1*
Y5660729D1*
X1895616Y5647588D2*
X1897042Y5651011D1*
X1899894Y5652178D1*
X1902779D1*
X1905631Y5651011D1*
X1907090Y5648729D1*
X1908516Y5644139D1*
X1909942Y5640691D1*
X1912827Y5638409D1*
X1915679Y5637268D1*
X1919990D1*
X1922842Y5638409D1*
X1924301Y5639550D1*
X1925727Y5642999D1*
Y5647588D1*
X1924301Y5651011D1*
X1922842Y5652178D1*
X1919990Y5653319D1*
X1915679D1*
X1912827Y5652178D1*
X1909942Y5649870D1*
X1908516Y5646448D1*
X1907090Y5641858D1*
X1905631Y5639550D1*
X1902779Y5638409D1*
X1899894D1*
X1897042Y5639550D1*
X1895616Y5642999D1*
Y5647588D1*
X1901353Y5362633D2*
X1899894Y5360325D1*
X1895616Y5356876D1*
X1925727D1*
X1895583Y5333389D2*
X1925727D1*
X1895583Y5349466D1*
X1925727D1*
Y5314491D2*
X1895616D1*
X1915679Y5325978D1*
Y5308760D1*
X1901353Y5301350D2*
X1899894Y5299042D1*
X1895616Y5295593D1*
X1925727D1*
Y5276695D2*
X1895616D1*
X1915679Y5288182D1*
Y5270964D1*
X1895616Y5257823D2*
X1897042Y5261246D1*
X1899894Y5262413D1*
X1902779D1*
X1905631Y5261245D1*
X1907090Y5258964D1*
X1908516Y5254374D1*
X1909942Y5250926D1*
X1912827Y5248644D1*
X1915679Y5247503D1*
X1919990D1*
X1922842Y5248644D1*
X1924301Y5249785D1*
X1925727Y5253234D1*
Y5257823D1*
X1924301Y5261245D1*
X1922842Y5262413D1*
X1919990Y5263554D1*
X1915679D1*
X1912827Y5262413D1*
X1909942Y5260105D1*
X1908516Y5256682D1*
X1907090Y5252093D1*
X1905631Y5249785D1*
X1902779Y5248644D1*
X1899894D1*
X1897042Y5249785D1*
X1895616Y5253234D1*
Y5257823D1*
X1907604Y4962635D2*
X1906145Y4960327D1*
X1901867Y4956878D1*
X1931978D1*
X1901834Y4933390D2*
X1931978D1*
X1901834Y4949467D1*
X1931978D1*
Y4914492D2*
X1901867D1*
X1921930Y4925979D1*
Y4908762D1*
X1907604Y4901351D2*
X1906145Y4899043D1*
X1901867Y4895594D1*
X1931978D1*
Y4876696D2*
X1901867D1*
X1921930Y4888183D1*
Y4870966D1*
X1901867Y4857825D2*
X1903293Y4861247D1*
X1906145Y4862414D1*
X1909030D1*
X1911882Y4861247D1*
X1913341Y4858965D1*
X1914767Y4854376D1*
X1916193Y4850927D1*
X1919078Y4848645D1*
X1921930Y4847505D1*
X1926241D1*
X1929093Y4848645D1*
X1930552Y4849786D1*
X1931978Y4853235D1*
Y4857824D1*
X1930552Y4861247D1*
X1929093Y4862414D1*
X1926241Y4863555D1*
X1921930D1*
X1919078Y4862414D1*
X1916193Y4860106D1*
X1914767Y4856684D1*
X1913341Y4852094D1*
X1911882Y4849786D1*
X1909030Y4848645D1*
X1906145D1*
X1903293Y4849786D1*
X1901867Y4853235D1*
Y4857825D1*
X1907604Y4568883D2*
X1906145Y4566575D1*
X1901867Y4563126D1*
X1931978D1*
X1901834Y4539638D2*
X1931978D1*
X1901834Y4555715D1*
X1931978D1*
Y4520740D2*
X1901867D1*
X1921930Y4532227D1*
Y4515010D1*
X1907604Y4507599D2*
X1906145Y4505291D1*
X1901867Y4501842D1*
X1931978D1*
Y4482944D2*
X1901867D1*
X1921930Y4494431D1*
Y4477214D1*
X1901867Y4464073D2*
X1903293Y4467495D1*
X1906145Y4468662D1*
X1909030D1*
X1911882Y4467495D1*
X1913341Y4465213D1*
X1914767Y4460624D1*
X1916193Y4457175D1*
X1919078Y4454893D1*
X1921930Y4453753D1*
X1926241D1*
X1929093Y4454893D1*
X1930552Y4456034D1*
X1931978Y4459483D1*
Y4464073D1*
X1930552Y4467495D1*
X1929093Y4468662D1*
X1926241Y4469803D1*
X1921930D1*
X1919078Y4468662D1*
X1916193Y4466354D1*
X1914767Y4462932D1*
X1913341Y4458342D1*
X1911882Y4456034D1*
X1909030Y4454893D1*
X1906145D1*
X1903293Y4456034D1*
X1901867Y4459483D1*
Y4464073D1*
X1901353Y4162633D2*
X1899894Y4160325D1*
X1895616Y4156876D1*
X1925727D1*
X1895583Y4133389D2*
X1925727D1*
X1895583Y4149466D1*
X1925727D1*
Y4114491D2*
X1895616D1*
X1915679Y4125978D1*
Y4108760D1*
X1901353Y4101350D2*
X1899894Y4099042D1*
X1895616Y4095593D1*
X1925727D1*
Y4076695D2*
X1895616D1*
X1915679Y4088182D1*
Y4070964D1*
X1895616Y4057823D2*
X1897042Y4061246D1*
X1899894Y4062413D1*
X1902779D1*
X1905631Y4061245D1*
X1907090Y4058964D1*
X1908516Y4054374D1*
X1909942Y4050926D1*
X1912827Y4048644D1*
X1915679Y4047503D1*
X1919990D1*
X1922842Y4048644D1*
X1924301Y4049785D1*
X1925727Y4053234D1*
Y4057823D1*
X1924301Y4061245D1*
X1922842Y4062413D1*
X1919990Y4063554D1*
X1915679D1*
X1912827Y4062413D1*
X1909942Y4060105D1*
X1908516Y4056682D1*
X1907090Y4052093D1*
X1905631Y4049785D1*
X1902779Y4048644D1*
X1899894D1*
X1897042Y4049785D1*
X1895616Y4053234D1*
Y4057823D1*
X875806Y7734070D2*
Y7703926D1*
X867228Y7726874D2*
Y7728300D1*
X866087Y7731185D1*
X864946Y7732611D1*
X862638Y7734037D1*
X858048D1*
X855767Y7732611D1*
X854626Y7731185D1*
X853459Y7728300D1*
Y7725448D1*
X854626Y7722563D1*
X856908Y7718285D1*
X868395Y7703926D1*
X852318D1*
X827690Y7726907D2*
X828830Y7729759D1*
X831138Y7732644D1*
X833420Y7734070D1*
X838010D1*
X840318Y7732644D1*
X842599Y7729759D1*
X843766Y7726907D1*
X844907Y7722596D1*
Y7715400D1*
X843766Y7711122D1*
X842599Y7708237D1*
X840318Y7705385D1*
X838010Y7703926D1*
X833420D1*
X831138Y7705385D1*
X828830Y7708237D1*
X827690Y7711122D1*
X820279Y7698951D2*
X798472D1*
X776151Y7734070D2*
X791061D1*
Y7703926D1*
X776151D1*
X791061Y7719711D2*
X781882D1*
X768740Y7734070D2*
X752664Y7703926D1*
Y7734070D2*
X768740Y7703926D1*
X737214Y7734070D2*
Y7703926D1*
X745253Y7734070D2*
X729176D1*
X4509299Y1238111D2*
Y1227765D1*
X4507873Y1224343D1*
X4506414Y1223175D1*
X4503562Y1222035D1*
X4499251D1*
X4496399Y1223175D1*
X4494940Y1224343D1*
X4493514Y1227765D1*
Y1238111D1*
X4523658D1*
X4493514Y1214624D2*
X4515036D1*
X4519347Y1213483D1*
X4522199Y1211175D1*
X4523658Y1207726D1*
Y1205445D1*
X4522199Y1201996D1*
X4519347Y1199688D1*
X4515036Y1198547D1*
X4493514D1*
X4523658Y1172778D2*
X4493514D1*
X4523658Y1181957D1*
X4493514Y1191136D1*
X4523658D1*
X4509299Y1165367D2*
Y1155021D1*
X4507873Y1151598D1*
X4506414Y1150431D1*
X4503562Y1149290D1*
X4499251D1*
X4496399Y1150431D1*
X4494940Y1151598D1*
X4493514Y1155021D1*
Y1165367D1*
X4523658D1*
X5338415Y4731357D2*
X5349875D1*
X5351016Y4718457D1*
X5349875Y4719883D1*
X5346426Y4721343D1*
X5343004D1*
X5339555Y4719883D1*
X5337247Y4717032D1*
X5336106Y4712720D1*
Y4709869D1*
X5337247Y4705558D1*
X5339555Y4702672D1*
X5343004Y4701247D1*
X5346426D1*
X5349875Y4702672D1*
X5351016Y4704132D1*
X5352183Y4706984D1*
X5328696Y4731391D2*
X5319516Y4701247D1*
X5310337Y4731391D1*
X5239052Y4724228D2*
X5240193Y4727080D1*
X5242501Y4729965D1*
X5244782Y4731391D1*
X5249372D1*
X5251680Y4729965D1*
X5253961Y4727080D1*
X5255129Y4724228D1*
X5256270Y4719917D1*
Y4712720D1*
X5255129Y4708443D1*
X5253961Y4705558D1*
X5251680Y4702706D1*
X5249372Y4701247D1*
X5244782D1*
X5242501Y4702706D1*
X5240193Y4705558D1*
X5239052Y4708443D1*
Y4712720D1*
X5244782D1*
X5215564Y4731391D2*
Y4701247D1*
X5231641Y4731391D1*
Y4701247D1*
X5208153Y4731391D2*
Y4701247D1*
X5200115D1*
X5196666Y4702706D1*
X5194358Y4705558D1*
X5193217Y4708443D1*
X5192077Y4712720D1*
Y4719917D1*
X5193217Y4724228D1*
X5194358Y4727080D1*
X5196666Y4729965D1*
X5200115Y4731391D1*
X5208153D1*
X5121932Y4727080D2*
X5124214Y4729965D1*
X5127662Y4731391D1*
X5132252D1*
X5135701Y4729965D1*
X5138009Y4727080D1*
Y4724228D1*
X5136842Y4721343D1*
X5135701Y4719917D1*
X5133419Y4718491D1*
X5126522Y4715606D1*
X5124214Y4714180D1*
X5123073Y4712720D1*
X5121932Y4709869D1*
Y4705558D1*
X5124214Y4702706D1*
X5127662Y4701247D1*
X5132252D1*
X5135701Y4702706D1*
X5138009Y4705558D1*
X5114521Y4731391D2*
Y4701247D1*
X5089893Y4724228D2*
X5091034Y4727080D1*
X5093342Y4729965D1*
X5095623Y4731391D1*
X5100213D1*
X5102521Y4729965D1*
X5104802Y4727080D1*
X5105970Y4724228D1*
X5107110Y4719917D1*
Y4712720D1*
X5105970Y4708443D1*
X5104802Y4705558D1*
X5102521Y4702706D1*
X5100213Y4701247D1*
X5095623D1*
X5093342Y4702706D1*
X5091034Y4705558D1*
X5089893Y4708443D1*
Y4712720D1*
X5095623D1*
X5338415Y5276682D2*
X5349875D1*
X5351016Y5263782D1*
X5349875Y5265208D1*
X5346426Y5266667D1*
X5343004D1*
X5339555Y5265208D1*
X5337247Y5262356D1*
X5336106Y5258045D1*
Y5255193D1*
X5337247Y5250882D1*
X5339555Y5247997D1*
X5343004Y5246571D1*
X5346426D1*
X5349875Y5247997D1*
X5351016Y5249456D1*
X5352183Y5252308D1*
X5328696Y5276715D2*
X5319516Y5246571D1*
X5310337Y5276715D1*
X5239052Y5269552D2*
X5240193Y5272404D1*
X5242501Y5275289D1*
X5244782Y5276715D1*
X5249372D1*
X5251680Y5275289D1*
X5253961Y5272404D1*
X5255129Y5269552D1*
X5256270Y5265241D1*
Y5258045D1*
X5255129Y5253767D1*
X5253961Y5250882D1*
X5251680Y5248030D1*
X5249372Y5246571D1*
X5244782D1*
X5242501Y5248030D1*
X5240193Y5250882D1*
X5239052Y5253767D1*
Y5258045D1*
X5244782D1*
X5215564Y5276715D2*
Y5246571D1*
X5231641Y5276715D1*
Y5246571D1*
X5208153Y5276715D2*
Y5246571D1*
X5200115D1*
X5196666Y5248030D1*
X5194358Y5250882D1*
X5193217Y5253767D1*
X5192077Y5258045D1*
Y5265241D1*
X5193217Y5269552D1*
X5194358Y5272404D1*
X5196666Y5275289D1*
X5200115Y5276715D1*
X5208153D1*
X5121932Y5272404D2*
X5124214Y5275289D1*
X5127662Y5276715D1*
X5132252D1*
X5135701Y5275289D1*
X5138009Y5272404D1*
Y5269552D1*
X5136842Y5266667D1*
X5135701Y5265241D1*
X5133419Y5263815D1*
X5126522Y5260930D1*
X5124214Y5259504D1*
X5123073Y5258045D1*
X5121932Y5255193D1*
Y5250882D1*
X5124214Y5248030D1*
X5127662Y5246571D1*
X5132252D1*
X5135701Y5248030D1*
X5138009Y5250882D1*
X5114521Y5276715D2*
Y5246571D1*
X5089893Y5269552D2*
X5091034Y5272404D1*
X5093342Y5275289D1*
X5095623Y5276715D1*
X5100213D1*
X5102521Y5275289D1*
X5104802Y5272404D1*
X5105970Y5269552D1*
X5107110Y5265241D1*
Y5258045D1*
X5105970Y5253767D1*
X5104802Y5250882D1*
X5102521Y5248030D1*
X5100213Y5246571D1*
X5095623D1*
X5093342Y5248030D1*
X5091034Y5250882D1*
X5089893Y5253767D1*
Y5258045D1*
X5095623D1*
X5338415Y6412607D2*
X5349875D1*
X5351016Y6399707D1*
X5349875Y6401133D1*
X5346426Y6402592D1*
X5343004D1*
X5339555Y6401133D1*
X5337247Y6398281D1*
X5336106Y6393970D1*
Y6391118D1*
X5337247Y6386807D1*
X5339555Y6383922D1*
X5343004Y6382496D1*
X5346426D1*
X5349875Y6383922D1*
X5351016Y6385381D1*
X5352183Y6388233D1*
X5328696Y6412640D2*
X5319516Y6382496D1*
X5310337Y6412640D1*
X5239052Y6405477D2*
X5240193Y6408329D1*
X5242501Y6411214D1*
X5244782Y6412640D1*
X5249372D1*
X5251680Y6411214D1*
X5253961Y6408329D1*
X5255129Y6405477D1*
X5256270Y6401166D1*
Y6393970D1*
X5255129Y6389692D1*
X5253961Y6386807D1*
X5251680Y6383955D1*
X5249372Y6382496D1*
X5244782D1*
X5242501Y6383955D1*
X5240193Y6386807D1*
X5239052Y6389692D1*
Y6393970D1*
X5244782D1*
X5215564Y6412640D2*
Y6382496D1*
X5231641Y6412640D1*
Y6382496D1*
X5208153Y6412640D2*
Y6382496D1*
X5200115D1*
X5196666Y6383955D1*
X5194358Y6386807D1*
X5193217Y6389692D1*
X5192077Y6393970D1*
Y6401166D1*
X5193217Y6405477D1*
X5194358Y6408329D1*
X5196666Y6411214D1*
X5200115Y6412640D1*
X5208153D1*
X5121932Y6408329D2*
X5124214Y6411214D1*
X5127662Y6412640D1*
X5132252D1*
X5135701Y6411214D1*
X5138009Y6408329D1*
Y6405477D1*
X5136842Y6402592D1*
X5135701Y6401166D1*
X5133419Y6399740D1*
X5126522Y6396855D1*
X5124214Y6395429D1*
X5123073Y6393970D1*
X5121932Y6391118D1*
Y6386807D1*
X5124214Y6383955D1*
X5127662Y6382496D1*
X5132252D1*
X5135701Y6383955D1*
X5138009Y6386807D1*
X5114521Y6412640D2*
Y6382496D1*
X5089893Y6405477D2*
X5091034Y6408329D1*
X5093342Y6411214D1*
X5095623Y6412640D1*
X5100213D1*
X5102521Y6411214D1*
X5104802Y6408329D1*
X5105970Y6405477D1*
X5107110Y6401166D1*
Y6393970D1*
X5105970Y6389692D1*
X5104802Y6386807D1*
X5102521Y6383955D1*
X5100213Y6382496D1*
X5095623D1*
X5093342Y6383955D1*
X5091034Y6386807D1*
X5089893Y6389692D1*
Y6393970D1*
X5095623D1*
X5338415Y5837607D2*
X5349875D1*
X5351016Y5824707D1*
X5349875Y5826133D1*
X5346426Y5827592D1*
X5343004D1*
X5339555Y5826133D1*
X5337247Y5823281D1*
X5336106Y5818970D1*
Y5816118D1*
X5337247Y5811807D1*
X5339555Y5808922D1*
X5343004Y5807496D1*
X5346426D1*
X5349875Y5808922D1*
X5351016Y5810381D1*
X5352183Y5813233D1*
X5328696Y5837640D2*
X5319516Y5807496D1*
X5310337Y5837640D1*
X5239052Y5830477D2*
X5240193Y5833329D1*
X5242501Y5836214D1*
X5244782Y5837640D1*
X5249372D1*
X5251680Y5836214D1*
X5253961Y5833329D1*
X5255129Y5830477D1*
X5256270Y5826166D1*
Y5818970D1*
X5255129Y5814692D1*
X5253961Y5811807D1*
X5251680Y5808955D1*
X5249372Y5807496D1*
X5244782D1*
X5242501Y5808955D1*
X5240193Y5811807D1*
X5239052Y5814692D1*
Y5818970D1*
X5244782D1*
X5215564Y5837640D2*
Y5807496D1*
X5231641Y5837640D1*
Y5807496D1*
X5208153Y5837640D2*
Y5807496D1*
X5200115D1*
X5196666Y5808955D1*
X5194358Y5811807D1*
X5193217Y5814692D1*
X5192077Y5818970D1*
Y5826166D1*
X5193217Y5830477D1*
X5194358Y5833329D1*
X5196666Y5836214D1*
X5200115Y5837640D1*
X5208153D1*
X5121932Y5833329D2*
X5124214Y5836214D1*
X5127662Y5837640D1*
X5132252D1*
X5135701Y5836214D1*
X5138009Y5833329D1*
Y5830477D1*
X5136842Y5827592D1*
X5135701Y5826166D1*
X5133419Y5824740D1*
X5126522Y5821855D1*
X5124214Y5820429D1*
X5123073Y5818970D1*
X5121932Y5816118D1*
Y5811807D1*
X5124214Y5808955D1*
X5127662Y5807496D1*
X5132252D1*
X5135701Y5808955D1*
X5138009Y5811807D1*
X5114521Y5837640D2*
Y5807496D1*
X5089893Y5830477D2*
X5091034Y5833329D1*
X5093342Y5836214D1*
X5095623Y5837640D1*
X5100213D1*
X5102521Y5836214D1*
X5104802Y5833329D1*
X5105970Y5830477D1*
X5107110Y5826166D1*
Y5818970D1*
X5105970Y5814692D1*
X5104802Y5811807D1*
X5102521Y5808955D1*
X5100213Y5807496D1*
X5095623D1*
X5093342Y5808955D1*
X5091034Y5811807D1*
X5089893Y5814692D1*
Y5818970D1*
X5095623D1*
X5334203Y2167977D2*
X5335344Y2170829D1*
X5337652Y2173714D1*
X5339934Y2175140D1*
X5344523D1*
X5346831Y2173714D1*
X5349113Y2170829D1*
X5350280Y2167977D1*
X5351421Y2163666D1*
Y2156470D1*
X5350280Y2152192D1*
X5349113Y2149307D1*
X5346831Y2146455D1*
X5344523Y2144996D1*
X5339934D1*
X5337652Y2146455D1*
X5335344Y2149307D1*
X5334203Y2152192D1*
Y2156470D1*
X5339934D1*
X5310716Y2175140D2*
Y2144996D1*
X5326792Y2175140D1*
Y2144996D1*
X5303305Y2175140D2*
Y2144996D1*
X5295266D1*
X5291818Y2146455D1*
X5289509Y2149307D1*
X5288369Y2152192D1*
X5287228Y2156470D1*
Y2163666D1*
X5288369Y2167977D1*
X5289509Y2170829D1*
X5291818Y2173714D1*
X5295266Y2175140D1*
X5303305D1*
X5219391Y2175107D2*
X5230852D1*
X5231993Y2162207D1*
X5230852Y2163633D1*
X5227403Y2165092D1*
X5223981D1*
X5220532Y2163633D1*
X5218224Y2160781D1*
X5217083Y2156470D1*
Y2153618D1*
X5218224Y2149307D1*
X5220532Y2146422D1*
X5223981Y2144996D1*
X5227403D1*
X5230852Y2146422D1*
X5231993Y2147881D1*
X5233160Y2150733D1*
X5209673Y2175140D2*
X5200493Y2144996D1*
X5191314Y2175140D1*
X5121170Y2170829D2*
X5123451Y2173714D1*
X5126900Y2175140D1*
X5131490D1*
X5134938Y2173714D1*
X5137246Y2170829D1*
Y2167977D1*
X5136079Y2165092D1*
X5134938Y2163666D1*
X5132657Y2162240D1*
X5125759Y2159355D1*
X5123451Y2157929D1*
X5122310Y2156470D1*
X5121170Y2153618D1*
Y2149307D1*
X5123451Y2146455D1*
X5126900Y2144996D1*
X5131490D1*
X5134938Y2146455D1*
X5137246Y2149307D1*
X5113759Y2175140D2*
Y2144996D1*
X5089130Y2167977D2*
X5090271Y2170829D1*
X5092579Y2173714D1*
X5094861Y2175140D1*
X5099450D1*
X5101758Y2173714D1*
X5104040Y2170829D1*
X5105207Y2167977D1*
X5106348Y2163666D1*
Y2156470D1*
X5105207Y2152192D1*
X5104040Y2149307D1*
X5101758Y2146455D1*
X5099450Y2144996D1*
X5094861D1*
X5092579Y2146455D1*
X5090271Y2149307D1*
X5089130Y2152192D1*
Y2156470D1*
X5094861D1*
X2007541Y2974221D2*
X2008681Y2977073D1*
X2010989Y2979958D1*
X2013271Y2981384D1*
X2017861D1*
X2020169Y2979958D1*
X2022450Y2977073D1*
X2023617Y2974221D1*
X2024758Y2969910D1*
Y2962714D1*
X2023617Y2958436D1*
X2022450Y2955551D1*
X2020169Y2952699D1*
X2017861Y2951240D1*
X2013271D1*
X2010989Y2952699D1*
X2008681Y2955551D1*
X2007541Y2958436D1*
Y2962714D1*
X2013271D1*
X1984053Y2981384D2*
Y2951240D1*
X2000130Y2981384D1*
Y2951240D1*
X1976642Y2981384D2*
Y2951240D1*
X1968604D1*
X1965155Y2952699D1*
X1962847Y2955551D1*
X1961706Y2958436D1*
X1960565Y2962714D1*
Y2969910D1*
X1961706Y2974221D1*
X1962847Y2977073D1*
X1965155Y2979958D1*
X1968604Y2981384D1*
X1976642D1*
X1928659Y2974188D2*
Y2975614D1*
X1927518Y2978499D1*
X1926377Y2979925D1*
X1924069Y2981351D1*
X1919480D1*
X1917198Y2979925D1*
X1916057Y2978499D1*
X1914890Y2975614D1*
Y2972762D1*
X1916057Y2969877D1*
X1918339Y2965599D1*
X1929826Y2951240D1*
X1913749D1*
X1894851D2*
Y2981351D1*
X1906338Y2961288D1*
X1889121D1*
X1881710Y2981384D2*
X1872531Y2951240D1*
X1863352Y2981384D1*
X1816536Y2977073D2*
X1818817Y2979958D1*
X1822266Y2981384D1*
X1826856D1*
X1830304Y2979958D1*
X1832612Y2977073D1*
Y2974221D1*
X1831445Y2971336D1*
X1830304Y2969910D1*
X1828023Y2968484D1*
X1821125Y2965599D1*
X1818817Y2964173D1*
X1817676Y2962714D1*
X1816536Y2959862D1*
Y2955551D1*
X1818817Y2952699D1*
X1822266Y2951240D1*
X1826856D1*
X1830304Y2952699D1*
X1832612Y2955551D1*
X1809125Y2981384D2*
Y2951240D1*
X1784496Y2974221D2*
X1785637Y2977073D1*
X1787945Y2979958D1*
X1790227Y2981384D1*
X1794816D1*
X1797124Y2979958D1*
X1799406Y2977073D1*
X1800573Y2974221D1*
X1801714Y2969910D1*
Y2962714D1*
X1800573Y2958436D1*
X1799406Y2955551D1*
X1797124Y2952699D1*
X1794816Y2951240D1*
X1790227D1*
X1787945Y2952699D1*
X1785637Y2955551D1*
X1784496Y2958436D1*
Y2962714D1*
X1790227D1*
X2001290Y2555472D2*
X2002431Y2558324D1*
X2004739Y2561209D1*
X2007020Y2562635D1*
X2011610D1*
X2013918Y2561209D1*
X2016200Y2558324D1*
X2017367Y2555472D1*
X2018508Y2551161D1*
Y2543965D1*
X2017367Y2539687D1*
X2016200Y2536802D1*
X2013918Y2533950D1*
X2011610Y2532491D1*
X2007020D1*
X2004739Y2533950D1*
X2002431Y2536802D1*
X2001290Y2539687D1*
Y2543965D1*
X2007020D1*
X1977802Y2562635D2*
Y2532491D1*
X1993879Y2562635D1*
Y2532491D1*
X1970392Y2562635D2*
Y2532491D1*
X1962353D1*
X1958904Y2533950D1*
X1956596Y2536802D1*
X1955455Y2539687D1*
X1954315Y2543965D1*
Y2551161D1*
X1955455Y2555472D1*
X1956596Y2558324D1*
X1958904Y2561209D1*
X1962353Y2562635D1*
X1970392D1*
X1922408Y2555439D2*
Y2556864D1*
X1921267Y2559750D1*
X1920127Y2561176D1*
X1917819Y2562601D1*
X1913229D1*
X1910947Y2561176D1*
X1909807Y2559750D1*
X1908639Y2556864D1*
Y2554013D1*
X1909807Y2551128D1*
X1912088Y2546850D1*
X1923575Y2532491D1*
X1907499D1*
X1888601D2*
Y2562601D1*
X1900088Y2542539D1*
X1882870D1*
X1875459Y2562635D2*
X1866280Y2532491D1*
X1857101Y2562635D1*
X1810285Y2558324D2*
X1812566Y2561209D1*
X1816015Y2562635D1*
X1820605D1*
X1824054Y2561209D1*
X1826362Y2558324D1*
Y2555472D1*
X1825194Y2552587D1*
X1824054Y2551161D1*
X1821772Y2549735D1*
X1814875Y2546850D1*
X1812566Y2545424D1*
X1811426Y2543965D1*
X1810285Y2541113D1*
Y2536802D1*
X1812566Y2533950D1*
X1816015Y2532491D1*
X1820605D1*
X1824054Y2533950D1*
X1826362Y2536802D1*
X1802874Y2562635D2*
Y2532491D1*
X1778246Y2555472D2*
X1779386Y2558324D1*
X1781695Y2561209D1*
X1783976Y2562635D1*
X1788566D1*
X1790874Y2561209D1*
X1793155Y2558324D1*
X1794323Y2555472D1*
X1795463Y2551161D1*
Y2543965D1*
X1794323Y2539687D1*
X1793155Y2536802D1*
X1790874Y2533950D1*
X1788566Y2532491D1*
X1783976D1*
X1781695Y2533950D1*
X1779386Y2536802D1*
X1778246Y2539687D1*
Y2543965D1*
X1783976D1*
X2001290Y2186722D2*
X2002431Y2189574D1*
X2004739Y2192459D1*
X2007020Y2193885D1*
X2011610D1*
X2013918Y2192459D1*
X2016200Y2189574D1*
X2017367Y2186722D1*
X2018508Y2182411D1*
Y2175215D1*
X2017367Y2170937D1*
X2016200Y2168052D1*
X2013918Y2165200D1*
X2011610Y2163741D1*
X2007020D1*
X2004739Y2165200D1*
X2002431Y2168052D1*
X2001290Y2170937D1*
Y2175215D1*
X2007020D1*
X1977802Y2193885D2*
Y2163741D1*
X1993879Y2193885D1*
Y2163741D1*
X1970392Y2193885D2*
Y2163741D1*
X1962353D1*
X1958904Y2165200D1*
X1956596Y2168052D1*
X1955455Y2170937D1*
X1954315Y2175215D1*
Y2182411D1*
X1955455Y2186722D1*
X1956596Y2189574D1*
X1958904Y2192459D1*
X1962353Y2193885D1*
X1970392D1*
X1922408Y2186689D2*
Y2188115D1*
X1921267Y2191000D1*
X1920127Y2192426D1*
X1917819Y2193852D1*
X1913229D1*
X1910947Y2192426D1*
X1909807Y2191000D1*
X1908639Y2188115D1*
Y2185263D1*
X1909807Y2182378D1*
X1912088Y2178100D1*
X1923575Y2163741D1*
X1907499D1*
X1888601D2*
Y2193852D1*
X1900088Y2173789D1*
X1882870D1*
X1875459Y2193885D2*
X1866280Y2163741D1*
X1857101Y2193885D1*
X1810285Y2189574D2*
X1812566Y2192459D1*
X1816015Y2193885D1*
X1820605D1*
X1824054Y2192459D1*
X1826362Y2189574D1*
Y2186722D1*
X1825194Y2183837D1*
X1824054Y2182411D1*
X1821772Y2180985D1*
X1814875Y2178100D1*
X1812566Y2176674D1*
X1811426Y2175215D1*
X1810285Y2172363D1*
Y2168052D1*
X1812566Y2165200D1*
X1816015Y2163741D1*
X1820605D1*
X1824054Y2165200D1*
X1826362Y2168052D1*
X1802874Y2193885D2*
Y2163741D1*
X1778246Y2186722D2*
X1779386Y2189574D1*
X1781695Y2192459D1*
X1783976Y2193885D1*
X1788566D1*
X1790874Y2192459D1*
X1793155Y2189574D1*
X1794323Y2186722D1*
X1795463Y2182411D1*
Y2175215D1*
X1794323Y2170937D1*
X1793155Y2168052D1*
X1790874Y2165200D1*
X1788566Y2163741D1*
X1783976D1*
X1781695Y2165200D1*
X1779386Y2168052D1*
X1778246Y2170937D1*
Y2175215D1*
X1783976D1*
X1995039Y1811721D2*
X1996180Y1814573D1*
X1998488Y1817458D1*
X2000770Y1818884D1*
X2005359D1*
X2007667Y1817458D1*
X2009949Y1814573D1*
X2011116Y1811721D1*
X2012257Y1807410D1*
Y1800214D1*
X2011116Y1795936D1*
X2009949Y1793051D1*
X2007667Y1790199D1*
X2005359Y1788740D1*
X2000770D1*
X1998488Y1790199D1*
X1996180Y1793051D1*
X1995039Y1795936D1*
Y1800214D1*
X2000770D1*
X1971552Y1818884D2*
Y1788740D1*
X1987629Y1818884D1*
Y1788740D1*
X1964141Y1818884D2*
Y1788740D1*
X1956102D1*
X1952654Y1790199D1*
X1950346Y1793051D1*
X1949205Y1795936D1*
X1948064Y1800214D1*
Y1807410D1*
X1949205Y1811721D1*
X1950346Y1814573D1*
X1952654Y1817458D1*
X1956102Y1818884D1*
X1964141D1*
X1916157Y1811688D2*
Y1813114D1*
X1915017Y1815999D1*
X1913876Y1817425D1*
X1911568Y1818851D1*
X1906978D1*
X1904697Y1817425D1*
X1903556Y1815999D1*
X1902389Y1813114D1*
Y1810262D1*
X1903556Y1807377D1*
X1905838Y1803099D1*
X1917325Y1788740D1*
X1901248D1*
X1882350D2*
Y1818851D1*
X1893837Y1798788D1*
X1876620D1*
X1869209Y1818884D2*
X1860030Y1788740D1*
X1850850Y1818884D1*
X1804034Y1814573D2*
X1806316Y1817458D1*
X1809765Y1818884D1*
X1814354D1*
X1817803Y1817458D1*
X1820111Y1814573D1*
Y1811721D1*
X1818944Y1808836D1*
X1817803Y1807410D1*
X1815522Y1805984D1*
X1808624Y1803099D1*
X1806316Y1801673D1*
X1805175Y1800214D1*
X1804034Y1797362D1*
Y1793051D1*
X1806316Y1790199D1*
X1809765Y1788740D1*
X1814354D1*
X1817803Y1790199D1*
X1820111Y1793051D1*
X1796623Y1818884D2*
Y1788740D1*
X1771995Y1811721D2*
X1773136Y1814573D1*
X1775444Y1817458D1*
X1777725Y1818884D1*
X1782315D1*
X1784623Y1817458D1*
X1786905Y1814573D1*
X1788072Y1811721D1*
X1789213Y1807410D1*
Y1800214D1*
X1788072Y1795936D1*
X1786905Y1793051D1*
X1784623Y1790199D1*
X1782315Y1788740D1*
X1777725D1*
X1775444Y1790199D1*
X1773136Y1793051D1*
X1771995Y1795936D1*
Y1800214D1*
X1777725D1*
X4369248Y1742446D2*
Y1743872D1*
X4368107Y1746757D1*
X4366966Y1748183D1*
X4364658Y1749609D1*
X4360069D1*
X4357787Y1748183D1*
X4356647Y1746757D1*
X4355479Y1743872D1*
Y1741020D1*
X4356647Y1738135D1*
X4358928Y1733858D1*
X4370415Y1719499D1*
X4354338D1*
X4340030Y1749609D2*
X4343479Y1748183D1*
X4345787Y1743872D1*
X4346928Y1736709D1*
Y1732398D1*
X4345787Y1725235D1*
X4343479Y1720924D1*
X4340030Y1719499D1*
X4337748D1*
X4334300Y1720924D1*
X4332018Y1725235D1*
X4330851Y1732398D1*
Y1736709D1*
X4332018Y1743872D1*
X4334300Y1748183D1*
X4337748Y1749609D1*
X4340030D1*
X4332018Y1743872D2*
X4345787Y1725235D1*
X4316542Y1749609D2*
X4319991Y1748183D1*
X4322299Y1743872D1*
X4323440Y1736709D1*
Y1732398D1*
X4322299Y1725235D1*
X4319991Y1720924D1*
X4316542Y1719499D1*
X4314261D1*
X4310812Y1720924D1*
X4308530Y1725235D1*
X4307363Y1732398D1*
Y1736709D1*
X4308530Y1743872D1*
X4310812Y1748183D1*
X4314261Y1749609D1*
X4316542D1*
X4308530Y1743872D2*
X4322299Y1725235D1*
X4299952Y1739595D2*
Y1725235D1*
X4298812Y1720958D1*
X4296504Y1719499D1*
X4293055D1*
X4290773Y1720958D1*
X4287324Y1725235D1*
Y1739595D2*
Y1719499D1*
X4279914Y1749643D2*
Y1719499D1*
X4263837Y1749643D2*
Y1719499D1*
X4279914Y1735283D2*
X4263837D1*
X2049457Y2628342D2*
X2058663Y2658486D1*
X2067842Y2628342D1*
X2064393Y2638390D2*
X2052906D1*
X2035149Y2658486D2*
X2037457Y2657060D1*
X2039738Y2654175D1*
X2040906Y2651323D1*
X2042046Y2647012D1*
Y2639816D1*
X2040906Y2635538D1*
X2039738Y2632653D1*
X2037457Y2629801D1*
X2035149Y2628342D1*
X2030559D1*
X2028278Y2629801D1*
X2025970Y2632653D1*
X2024829Y2635538D1*
X2023688Y2639816D1*
Y2647012D1*
X2024829Y2651323D1*
X2025970Y2654175D1*
X2028278Y2657060D1*
X2030559Y2658486D1*
X2035149D1*
X2013969Y2658453D2*
X2001368D1*
X2008239Y2646979D1*
X2004790D1*
X2002509Y2645553D1*
X2001368Y2644127D1*
X2000201Y2639816D1*
Y2636964D1*
X2001368Y2632653D1*
X2003649Y2629768D1*
X2007098Y2628342D1*
X2010547D1*
X2013969Y2629768D1*
X2015110Y2631227D1*
X2016277Y2634079D1*
X1981302Y2628342D2*
Y2658453D1*
X1992790Y2638390D1*
X1975572D1*
X1961264Y2658453D2*
X1964712Y2657027D1*
X1967021Y2652716D1*
X1968161Y2645553D1*
Y2641242D1*
X1967021Y2634079D1*
X1964712Y2629768D1*
X1961264Y2628342D1*
X1958982D1*
X1955533Y2629768D1*
X1953252Y2634079D1*
X1952084Y2641242D1*
Y2645553D1*
X1953252Y2652716D1*
X1955533Y2657027D1*
X1958982Y2658453D1*
X1961264D1*
X1953252Y2652716D2*
X1967021Y2634079D1*
X1944674Y2652716D2*
X1942366Y2654175D1*
X1938917Y2658453D1*
Y2628342D1*
X1913121D2*
X1922327Y2658486D1*
X1931506Y2628342D1*
X1928057Y2638390D2*
X1916570D1*
X2049457Y2222092D2*
X2058663Y2252236D1*
X2067842Y2222092D1*
X2064393Y2232140D2*
X2052906D1*
X2035149Y2252236D2*
X2037457Y2250810D1*
X2039738Y2247925D1*
X2040906Y2245073D1*
X2042046Y2240762D1*
Y2233566D1*
X2040906Y2229288D1*
X2039738Y2226403D1*
X2037457Y2223551D1*
X2035149Y2222092D1*
X2030559D1*
X2028278Y2223551D1*
X2025970Y2226403D1*
X2024829Y2229288D1*
X2023688Y2233566D1*
Y2240762D1*
X2024829Y2245073D1*
X2025970Y2247925D1*
X2028278Y2250810D1*
X2030559Y2252236D1*
X2035149D1*
X2013969Y2252203D2*
X2001368D1*
X2008239Y2240729D1*
X2004790D1*
X2002509Y2239303D1*
X2001368Y2237877D1*
X2000201Y2233566D1*
Y2230714D1*
X2001368Y2226403D1*
X2003649Y2223518D1*
X2007098Y2222092D1*
X2010547D1*
X2013969Y2223518D1*
X2015110Y2224977D1*
X2016277Y2227829D1*
X1981302Y2222092D2*
Y2252203D1*
X1992790Y2232140D1*
X1975572D1*
X1961264Y2252203D2*
X1964712Y2250777D1*
X1967021Y2246466D1*
X1968161Y2239303D1*
Y2234992D1*
X1967021Y2227829D1*
X1964712Y2223518D1*
X1961264Y2222092D1*
X1958982D1*
X1955533Y2223518D1*
X1953252Y2227829D1*
X1952084Y2234992D1*
Y2239303D1*
X1953252Y2246466D1*
X1955533Y2250777D1*
X1958982Y2252203D1*
X1961264D1*
X1953252Y2246466D2*
X1967021Y2227829D1*
X1944674Y2246466D2*
X1942366Y2247925D1*
X1938917Y2252203D1*
Y2222092D1*
X1913121D2*
X1922327Y2252236D1*
X1931506Y2222092D1*
X1928057Y2232140D2*
X1916570D1*
X2049457Y1853341D2*
X2058663Y1883485D1*
X2067842Y1853341D1*
X2064393Y1863389D2*
X2052906D1*
X2035149Y1883485D2*
X2037457Y1882059D1*
X2039738Y1879174D1*
X2040906Y1876322D1*
X2042046Y1872011D1*
Y1864815D1*
X2040906Y1860537D1*
X2039738Y1857652D1*
X2037457Y1854800D1*
X2035149Y1853341D1*
X2030559D1*
X2028278Y1854800D1*
X2025970Y1857652D1*
X2024829Y1860537D1*
X2023688Y1864815D1*
Y1872011D1*
X2024829Y1876322D1*
X2025970Y1879174D1*
X2028278Y1882059D1*
X2030559Y1883485D1*
X2035149D1*
X2013969Y1883452D2*
X2001368D1*
X2008239Y1871978D1*
X2004790D1*
X2002509Y1870552D1*
X2001368Y1869126D1*
X2000201Y1864815D1*
Y1861963D1*
X2001368Y1857652D1*
X2003649Y1854767D1*
X2007098Y1853341D1*
X2010547D1*
X2013969Y1854767D1*
X2015110Y1856226D1*
X2016277Y1859078D1*
X1981302Y1853341D2*
Y1883452D1*
X1992790Y1863389D1*
X1975572D1*
X1961264Y1883452D2*
X1964712Y1882026D1*
X1967021Y1877715D1*
X1968161Y1870552D1*
Y1866241D1*
X1967021Y1859078D1*
X1964712Y1854767D1*
X1961264Y1853341D1*
X1958982D1*
X1955533Y1854767D1*
X1953252Y1859078D1*
X1952084Y1866241D1*
Y1870552D1*
X1953252Y1877715D1*
X1955533Y1882026D1*
X1958982Y1883452D1*
X1961264D1*
X1953252Y1877715D2*
X1967021Y1859078D1*
X1944674Y1877715D2*
X1942366Y1879174D1*
X1938917Y1883452D1*
Y1853341D1*
X1913121D2*
X1922327Y1883485D1*
X1931506Y1853341D1*
X1928057Y1863389D2*
X1916570D1*
X2055707Y1472090D2*
X2064912Y1502234D1*
X2074092Y1472090D1*
X2070643Y1482138D2*
X2059155D1*
X2041398Y1502234D2*
X2043706Y1500808D1*
X2045988Y1497923D1*
X2047155Y1495071D1*
X2048296Y1490760D1*
Y1483564D1*
X2047155Y1479286D1*
X2045988Y1476401D1*
X2043706Y1473549D1*
X2041398Y1472090D1*
X2036809D1*
X2034527Y1473549D1*
X2032219Y1476401D1*
X2031078Y1479286D1*
X2029938Y1483564D1*
Y1490760D1*
X2031078Y1495071D1*
X2032219Y1497923D1*
X2034527Y1500808D1*
X2036809Y1502234D1*
X2041398D1*
X2020219Y1502201D2*
X2007617D1*
X2014488Y1490727D1*
X2011039D1*
X2008758Y1489301D1*
X2007617Y1487875D1*
X2006450Y1483564D1*
Y1480712D1*
X2007617Y1476401D1*
X2009899Y1473516D1*
X2013348Y1472090D1*
X2016796D1*
X2020219Y1473516D1*
X2021359Y1474975D1*
X2022527Y1477827D1*
X1987552Y1472090D2*
Y1502201D1*
X1999039Y1482138D1*
X1981821D1*
X1967513Y1502201D2*
X1970962Y1500775D1*
X1973270Y1496464D1*
X1974411Y1489301D1*
Y1484990D1*
X1973270Y1477827D1*
X1970962Y1473516D1*
X1967513Y1472090D1*
X1965231D1*
X1961783Y1473516D1*
X1959501Y1477827D1*
X1958334Y1484990D1*
Y1489301D1*
X1959501Y1496464D1*
X1961783Y1500775D1*
X1965231Y1502201D1*
X1967513D1*
X1959501Y1496464D2*
X1973270Y1477827D1*
X1950923Y1496464D2*
X1948615Y1497923D1*
X1945166Y1502201D1*
Y1472090D1*
X1919370D2*
X1928576Y1502234D1*
X1937755Y1472090D1*
X1934306Y1482138D2*
X1922819D1*
X1006383Y3167129D2*
X993782D1*
X1000653Y3155655D1*
X997204D1*
X994923Y3154229D1*
X993782Y3152803D1*
X992615Y3148492D1*
Y3145640D1*
X993782Y3141329D1*
X996063Y3138444D1*
X999512Y3137018D1*
X1002961D1*
X1006383Y3138444D1*
X1007524Y3139903D1*
X1008691Y3142755D1*
X982896Y3167129D2*
X970294D1*
X977165Y3155655D1*
X973717D1*
X971435Y3154229D1*
X970294Y3152803D1*
X969127Y3148492D1*
Y3145640D1*
X970294Y3141329D1*
X972576Y3138444D1*
X976025Y3137018D1*
X979473D1*
X982896Y3138444D1*
X984036Y3139903D1*
X985204Y3142755D1*
X954818Y3167129D2*
X958267Y3165703D1*
X960575Y3161392D1*
X961716Y3154229D1*
Y3149918D1*
X960575Y3142755D1*
X958267Y3138444D1*
X954818Y3137018D1*
X952537D1*
X949088Y3138444D1*
X946807Y3142755D1*
X945639Y3149918D1*
Y3154229D1*
X946807Y3161392D1*
X949088Y3165703D1*
X952537Y3167129D1*
X954818D1*
X946807Y3161392D2*
X960575Y3142755D1*
X1006383Y2967129D2*
X993782D1*
X1000653Y2955655D1*
X997204D1*
X994923Y2954229D1*
X993782Y2952803D1*
X992615Y2948492D1*
Y2945640D1*
X993782Y2941329D1*
X996063Y2938444D1*
X999512Y2937018D1*
X1002961D1*
X1006383Y2938444D1*
X1007524Y2939903D1*
X1008691Y2942755D1*
X982896Y2967129D2*
X970294D1*
X977165Y2955655D1*
X973717D1*
X971435Y2954229D1*
X970294Y2952803D1*
X969127Y2948492D1*
Y2945640D1*
X970294Y2941329D1*
X972576Y2938444D1*
X976025Y2937018D1*
X979473D1*
X982896Y2938444D1*
X984036Y2939903D1*
X985204Y2942755D1*
X954818Y2967129D2*
X958267Y2965703D1*
X960575Y2961392D1*
X961716Y2954229D1*
Y2949918D1*
X960575Y2942755D1*
X958267Y2938444D1*
X954818Y2937018D1*
X952537D1*
X949088Y2938444D1*
X946807Y2942755D1*
X945639Y2949918D1*
Y2954229D1*
X946807Y2961392D1*
X949088Y2965703D1*
X952537Y2967129D1*
X954818D1*
X946807Y2961392D2*
X960575Y2942755D1*
X1006383Y2767129D2*
X993782D1*
X1000653Y2755655D1*
X997204D1*
X994923Y2754229D1*
X993782Y2752803D1*
X992615Y2748492D1*
Y2745640D1*
X993782Y2741329D1*
X996063Y2738444D1*
X999512Y2737018D1*
X1002961D1*
X1006383Y2738444D1*
X1007524Y2739903D1*
X1008691Y2742755D1*
X982896Y2767129D2*
X970294D1*
X977165Y2755655D1*
X973717D1*
X971435Y2754229D1*
X970294Y2752803D1*
X969127Y2748492D1*
Y2745640D1*
X970294Y2741329D1*
X972576Y2738444D1*
X976025Y2737018D1*
X979473D1*
X982896Y2738444D1*
X984036Y2739903D1*
X985204Y2742755D1*
X954818Y2767129D2*
X958267Y2765703D1*
X960575Y2761392D1*
X961716Y2754229D1*
Y2749918D1*
X960575Y2742755D1*
X958267Y2738444D1*
X954818Y2737018D1*
X952537D1*
X949088Y2738444D1*
X946807Y2742755D1*
X945639Y2749918D1*
Y2754229D1*
X946807Y2761392D1*
X949088Y2765703D1*
X952537Y2767129D1*
X954818D1*
X946807Y2761392D2*
X960575Y2742755D1*
X1006383Y2567129D2*
X993782D1*
X1000653Y2555655D1*
X997204D1*
X994923Y2554229D1*
X993782Y2552803D1*
X992615Y2548492D1*
Y2545640D1*
X993782Y2541329D1*
X996063Y2538444D1*
X999512Y2537018D1*
X1002961D1*
X1006383Y2538444D1*
X1007524Y2539903D1*
X1008691Y2542755D1*
X982896Y2567129D2*
X970294D1*
X977165Y2555655D1*
X973717D1*
X971435Y2554229D1*
X970294Y2552803D1*
X969127Y2548492D1*
Y2545640D1*
X970294Y2541329D1*
X972576Y2538444D1*
X976025Y2537018D1*
X979473D1*
X982896Y2538444D1*
X984036Y2539903D1*
X985204Y2542755D1*
X954818Y2567129D2*
X958267Y2565703D1*
X960575Y2561392D1*
X961716Y2554229D1*
Y2549918D1*
X960575Y2542755D1*
X958267Y2538444D1*
X954818Y2537018D1*
X952537D1*
X949088Y2538444D1*
X946807Y2542755D1*
X945639Y2549918D1*
Y2554229D1*
X946807Y2561392D1*
X949088Y2565703D1*
X952537Y2567129D1*
X954818D1*
X946807Y2561392D2*
X960575Y2542755D1*
X2614408Y4480768D2*
Y4510878D1*
X2625896Y4490816D1*
X2608678D1*
X2601267Y4510912D2*
Y4480768D1*
X2585190Y4510912D2*
X2601267Y4490816D1*
X2595537Y4498012D2*
X2585190Y4480768D1*
X2573190D2*
X2561703Y4510878D1*
X2577780D1*
X2538924Y7560418D2*
Y7547816D1*
X2550397Y7554687D1*
Y7551238D1*
X2551823Y7548957D1*
X2553249Y7547816D1*
X2557560Y7546649D1*
X2560412D1*
X2564723Y7547816D1*
X2567608Y7550098D1*
X2569034Y7553546D1*
Y7556995D1*
X2567608Y7560417D1*
X2566149Y7561558D1*
X2563297Y7562726D1*
X2538924Y7536930D2*
Y7524328D1*
X2550397Y7531200D1*
Y7527751D1*
X2551823Y7525469D1*
X2553249Y7524328D1*
X2557560Y7523161D1*
X2560412D1*
X2564723Y7524328D1*
X2567608Y7526610D1*
X2569034Y7530059D1*
Y7533508D1*
X2567608Y7536930D1*
X2566149Y7538071D1*
X2563297Y7539238D1*
X2538923Y7508853D2*
X2540349Y7512302D1*
X2544660Y7514610D1*
X2551823Y7515750D1*
X2556134D1*
X2563297Y7514610D1*
X2567608Y7512301D1*
X2569034Y7508853D1*
Y7506571D1*
X2567608Y7503122D1*
X2563297Y7500841D1*
X2556134Y7499674D1*
X2551823D1*
X2544660Y7500841D1*
X2540349Y7503122D1*
X2538923Y7506571D1*
Y7508853D1*
X2544660Y7500841D2*
X2563297Y7514610D1*
X4594133Y5220658D2*
X4564022D1*
X4584085Y5232145D1*
Y5214927D1*
X4563989Y5207517D2*
X4594133D1*
X4563989Y5191440D2*
X4584085Y5207517D1*
X4576889Y5201786D2*
X4594133Y5191440D1*
Y5179439D2*
X4564022Y5167952D1*
Y5184029D1*
X2638925Y7560419D2*
Y7547817D1*
X2650399Y7554688D1*
Y7551240D1*
X2651825Y7548958D1*
X2653251Y7547817D1*
X2657562Y7546650D1*
X2660414D1*
X2664725Y7547817D1*
X2667610Y7550099D1*
X2669036Y7553548D1*
Y7556996D1*
X2667610Y7560419D1*
X2666151Y7561560D1*
X2663299Y7562727D1*
X2638925Y7536931D2*
Y7524330D1*
X2650399Y7531201D1*
Y7527752D1*
X2651825Y7525471D1*
X2653251Y7524330D1*
X2657562Y7523162D1*
X2660414D1*
X2664725Y7524330D1*
X2667610Y7526611D1*
X2669036Y7530060D1*
Y7533509D1*
X2667610Y7536931D1*
X2666151Y7538072D1*
X2663299Y7539239D1*
X2638925Y7508854D2*
X2640351Y7512303D1*
X2644662Y7514611D1*
X2651825Y7515752D1*
X2656136D1*
X2663299Y7514611D1*
X2667610Y7512303D1*
X2669036Y7508854D1*
Y7506572D1*
X2667610Y7503124D1*
X2663299Y7500842D1*
X2656136Y7499675D1*
X2651825D1*
X2644662Y7500842D1*
X2640351Y7503124D1*
X2638925Y7506573D1*
Y7508854D1*
X2644662Y7500842D2*
X2663299Y7514611D1*
X2608158Y4693268D2*
Y4723378D1*
X2619645Y4703316D1*
X2602427D1*
X2595017Y4723412D2*
Y4693268D1*
X2578940Y4723412D2*
X2595017Y4703316D1*
X2589286Y4710512D2*
X2578940Y4693268D1*
X2566939D2*
X2555452Y4723378D1*
X2571529D1*
X2745275Y7560320D2*
Y7547719D1*
X2756749Y7554590D1*
Y7551141D1*
X2758175Y7548860D1*
X2759601Y7547719D1*
X2763912Y7546552D1*
X2766764D1*
X2771075Y7547719D1*
X2773960Y7550000D1*
X2775386Y7553449D1*
Y7556898D1*
X2773960Y7560320D1*
X2772501Y7561461D1*
X2769649Y7562628D1*
X2745275Y7536833D2*
Y7524231D1*
X2756749Y7531102D1*
Y7527654D1*
X2758175Y7525372D1*
X2759601Y7524231D1*
X2763912Y7523064D1*
X2766764D1*
X2771075Y7524231D1*
X2773960Y7526513D1*
X2775386Y7529962D1*
Y7533410D1*
X2773960Y7536833D1*
X2772501Y7537973D1*
X2769649Y7539141D1*
X2745275Y7508756D2*
X2746701Y7512204D1*
X2751012Y7514512D1*
X2758175Y7515653D1*
X2762486D1*
X2769649Y7514512D1*
X2773960Y7512204D1*
X2775386Y7508756D1*
Y7506474D1*
X2773960Y7503025D1*
X2769649Y7500744D1*
X2762486Y7499576D1*
X2758175D1*
X2751012Y7500744D1*
X2746701Y7503025D1*
X2745275Y7506474D1*
Y7508756D1*
X2751012Y7500744D2*
X2769649Y7514512D1*
X4531634Y5014408D2*
X4501523D1*
X4521586Y5025896D1*
Y5008678D1*
X4501490Y5001267D2*
X4531634D1*
X4501490Y4985191D2*
X4521586Y5001267D1*
X4514390Y4995537D2*
X4531634Y4985190D1*
Y4973190D2*
X4501523Y4961703D1*
Y4977780D1*
X2528533Y8107589D2*
Y8137700D1*
X2540020Y8117637D1*
X2522803D1*
X2515392Y8137733D2*
Y8107589D1*
X2499315Y8137733D2*
X2515392Y8117637D1*
X2509662Y8124833D2*
X2499315Y8107589D1*
X2487315D2*
X2475827Y8137700D1*
X2491904D1*
X2628533Y8107589D2*
Y8137700D1*
X2640020Y8117637D1*
X2622803D1*
X2615392Y8137733D2*
Y8107589D1*
X2599315Y8137733D2*
X2615392Y8117637D1*
X2609662Y8124833D2*
X2599315Y8107589D1*
X2587315D2*
X2575827Y8137700D1*
X2591904D1*
X2728533Y8107589D2*
Y8137700D1*
X2740020Y8117637D1*
X2722803D1*
X2715392Y8137733D2*
Y8107589D1*
X2699315Y8137733D2*
X2715392Y8117637D1*
X2709662Y8124833D2*
X2699315Y8107589D1*
X2687315D2*
X2675827Y8137700D1*
X2691904D1*
X5654454Y7633426D2*
Y7663537D1*
X5665941Y7643474D1*
X5648724D1*
X5640172Y7636311D2*
X5641313Y7634852D1*
X5640172Y7633426D1*
X5639005Y7634852D1*
X5640172Y7636311D1*
X5627005Y7633426D2*
X5615517Y7663537D1*
X5631594D1*
X5608106Y7663570D2*
Y7633426D1*
X5592030Y7663570D2*
X5608106Y7643474D1*
X5602376Y7650670D2*
X5592030Y7633426D1*
X5654454Y2495926D2*
Y2526037D1*
X5665941Y2505974D1*
X5648724D1*
X5640172Y2498811D2*
X5641313Y2497352D1*
X5640172Y2495926D1*
X5639005Y2497352D1*
X5640172Y2498811D1*
X5627005Y2495926D2*
X5615517Y2526037D1*
X5631594D1*
X5608106Y2526070D2*
Y2495926D1*
X5592030Y2526070D2*
X5608106Y2505974D1*
X5602376Y2513170D2*
X5592030Y2495926D1*
X5654454Y3795925D2*
Y3826036D1*
X5665941Y3805973D1*
X5648724D1*
X5640172Y3798810D2*
X5641313Y3797351D1*
X5640172Y3795925D1*
X5639005Y3797351D1*
X5640172Y3798810D1*
X5627005Y3795925D2*
X5615517Y3826036D1*
X5631594D1*
X5608106Y3826069D2*
Y3795925D1*
X5592030Y3826069D2*
X5608106Y3805973D1*
X5602376Y3813169D2*
X5592030Y3795925D1*
X5653421Y7131900D2*
Y7162011D1*
X5664909Y7141948D1*
X5647691D1*
X5639139Y7134785D2*
X5640280Y7133326D1*
X5639139Y7131900D1*
X5637972Y7133326D1*
X5639139Y7134785D1*
X5625972Y7131900D2*
X5614485Y7162011D1*
X5630561D1*
X5607074Y7162044D2*
Y7131900D1*
X5590997Y7162044D2*
X5607074Y7141948D1*
X5601343Y7149144D2*
X5590997Y7131900D1*
X5654454Y3152176D2*
Y3182287D1*
X5665941Y3162224D1*
X5648724D1*
X5640172Y3155061D2*
X5641313Y3153602D1*
X5640172Y3152176D1*
X5639005Y3153602D1*
X5640172Y3155061D1*
X5627005Y3152176D2*
X5615517Y3182287D1*
X5631594D1*
X5608106Y3182320D2*
Y3152176D1*
X5592030Y3182320D2*
X5608106Y3162224D1*
X5602376Y3169420D2*
X5592030Y3152176D1*
X4626010Y3970164D2*
X4624550Y3967856D1*
X4620273Y3964407D1*
X4650383D1*
X4620273Y3943228D2*
Y3954688D1*
X4633173Y3955829D1*
X4631747Y3954688D1*
X4630287Y3951239D1*
Y3947817D1*
X4631747Y3944368D1*
X4634598Y3942060D1*
X4638909Y3940920D1*
X4641761D1*
X4646072Y3942060D1*
X4648957Y3944368D1*
X4650383Y3947817D1*
Y3951239D1*
X4648957Y3954688D1*
X4647498Y3955829D1*
X4644646Y3956996D1*
X4620239Y3933509D2*
X4650383D1*
X4620239Y3917432D2*
X4640335Y3933509D1*
X4633139Y3927778D2*
X4650383Y3917432D1*
X1083037Y960654D2*
X1081578Y958346D1*
X1077300Y954897D1*
X1107411D1*
Y929128D2*
X1077267D1*
X1107411Y938307D1*
X1077267Y947486D1*
X1107411D1*
X957604Y7568934D2*
X956145Y7566626D1*
X951867Y7563178D1*
X981978Y7563177D1*
X951867Y7548869D2*
X953293Y7552318D1*
X957604Y7554626D1*
X964767Y7555767D1*
X969078D1*
X976241Y7554626D1*
X980552Y7552318D1*
X981978Y7548869D1*
Y7546587D1*
X980552Y7543139D1*
X976241Y7540857D1*
X969078Y7539690D1*
X964767D1*
X957604Y7540857D1*
X953293Y7543139D1*
X951867Y7546588D1*
Y7548869D1*
X957604Y7540857D2*
X976241Y7554626D1*
X951834Y7532279D2*
X981978D1*
X951834Y7516202D2*
X971930Y7532279D1*
X964734Y7526549D2*
X981978Y7516202D1*
X1196679Y7520509D2*
X1195220Y7518201D1*
X1190942Y7514752D1*
X1221053D1*
X1190942Y7500444D2*
X1192368Y7503893D1*
X1196679Y7506201D1*
X1203842Y7507341D1*
X1208153D1*
X1215316Y7506201D1*
X1219627Y7503893D1*
X1221053Y7500444D1*
Y7498162D1*
X1219627Y7494713D1*
X1215316Y7492432D1*
X1208153Y7491265D1*
X1203842D1*
X1196679Y7492432D1*
X1192368Y7494714D1*
X1190942Y7498162D1*
Y7500444D1*
X1196679Y7492432D2*
X1215316Y7506201D1*
X1190909Y7483854D2*
X1221053D1*
X1190909Y7467777D2*
X1211005Y7483854D1*
X1203809Y7478124D2*
X1221053Y7467777D1*
X2401974Y2823891D2*
X2399666Y2825350D1*
X2396217Y2829628D1*
Y2799517D1*
X2388806Y2829661D2*
Y2799517D1*
X2372729Y2829661D2*
X2388806Y2809565D1*
X2383076Y2816761D2*
X2372729Y2799517D1*
X2266297Y2825715D2*
X2263989Y2827174D1*
X2260540Y2831452D1*
Y2801341D1*
X2253129Y2831485D2*
Y2801341D1*
X2237052Y2831485D2*
X2253129Y2811389D1*
X2247399Y2818585D2*
X2237052Y2801341D1*
X2401974Y2411391D2*
X2399666Y2412850D1*
X2396217Y2417128D1*
Y2387017D1*
X2388806Y2417161D2*
Y2387017D1*
X2372729Y2417161D2*
X2388806Y2397065D1*
X2383076Y2404261D2*
X2372729Y2387017D1*
X2266297Y2413212D2*
X2263989Y2414671D1*
X2260540Y2418949D1*
Y2388838D1*
X2253129Y2418982D2*
Y2388838D1*
X2237052Y2418982D2*
X2253129Y2398886D1*
X2247399Y2406082D2*
X2237052Y2388838D1*
X2395723Y2023893D2*
X2393415Y2025352D1*
X2389966Y2029630D1*
Y1999520D1*
X2382556Y2029664D2*
Y1999520D1*
X2366479Y2029664D2*
X2382556Y2009568D1*
X2376825Y2016764D2*
X2366479Y1999520D1*
X2266297Y2025714D2*
X2263989Y2027173D1*
X2260540Y2031451D1*
Y2001340D1*
X2253129Y2031484D2*
Y2001340D1*
X2237052Y2031484D2*
X2253129Y2011388D1*
X2247399Y2018584D2*
X2237052Y2001340D1*
X2401974Y1661392D2*
X2399666Y1662851D1*
X2396217Y1667129D1*
Y1637018D1*
X2388806Y1667162D2*
Y1637018D1*
X2372729Y1667162D2*
X2388806Y1647066D1*
X2383076Y1654262D2*
X2372729Y1637018D1*
X2266297Y1663211D2*
X2263989Y1664670D1*
X2260540Y1668948D1*
Y1638837D1*
X2253129Y1668981D2*
Y1638837D1*
X2237052Y1668981D2*
X2253129Y1648885D1*
X2247399Y1656081D2*
X2237052Y1638837D1*
X4754640Y784152D2*
X4784784D1*
Y770383D1*
Y744614D2*
X4754640D1*
X4784784Y753793D1*
X4754640Y762973D1*
X4784784D1*
Y732614D2*
X4754673Y721127D1*
Y737204D1*
Y707986D2*
X4756099Y711408D1*
X4758951Y712575D1*
X4761836D1*
X4764688Y711408D1*
X4766147Y709126D1*
X4767573Y704537D1*
X4768999Y701088D1*
X4771884Y698806D1*
X4774736Y697666D1*
X4779047D1*
X4781899Y698806D1*
X4783358Y699947D1*
X4784784Y703396D1*
Y707986D1*
X4783358Y711408D1*
X4781899Y712575D1*
X4779047Y713716D1*
X4774736D1*
X4771884Y712575D1*
X4768999Y710267D1*
X4767573Y706845D1*
X4766147Y702255D1*
X4764688Y699947D1*
X4761836Y698806D1*
X4758951D1*
X4756099Y699947D1*
X4754673Y703396D1*
Y707986D1*
Y683357D2*
X4756099Y686806D1*
X4760410Y689114D1*
X4767573Y690255D1*
X4771884D1*
X4779047Y689114D1*
X4783358Y686806D1*
X4784784Y683357D1*
Y681076D1*
X4783358Y677627D1*
X4779047Y675345D1*
X4771884Y674178D1*
X4767573D1*
X4760410Y675345D1*
X4756099Y677627D1*
X4754673Y681076D1*
Y683357D1*
X4760410Y675345D2*
X4779047Y689114D1*
X4754673Y652998D2*
Y664459D1*
X4767573Y665600D1*
X4766147Y664459D1*
X4764688Y661010D1*
Y657588D1*
X4766147Y654139D1*
X4768999Y651831D1*
X4773310Y650690D1*
X4776162D1*
X4780473Y651831D1*
X4783358Y654139D1*
X4784784Y657588D1*
Y661010D1*
X4783358Y664459D1*
X4781899Y665600D1*
X4779047Y666767D1*
X2450830Y5759743D2*
Y5738221D1*
X2449689Y5733910D1*
X2447381Y5731058D1*
X2443932Y5729599D1*
X2441651D1*
X2438202Y5731058D1*
X2435894Y5733910D1*
X2434753Y5738221D1*
Y5759743D1*
X2427342D2*
Y5729599D1*
X2413573D1*
X2390086Y5759743D2*
Y5729599D1*
X2406163Y5759743D1*
Y5729599D1*
X2381508Y5752547D2*
Y5753973D1*
X2380367Y5756858D1*
X2379226Y5758284D1*
X2376918Y5759710D1*
X2372328D1*
X2370047Y5758284D1*
X2368906Y5756858D1*
X2367739Y5753973D1*
Y5751121D1*
X2368906Y5748236D1*
X2371188Y5743958D1*
X2382675Y5729599D1*
X2366598D1*
X2353457Y5759710D2*
X2356879Y5758284D1*
X2358046Y5755432D1*
Y5752547D1*
X2356879Y5749695D1*
X2354598Y5748236D1*
X2350008Y5746810D1*
X2346559Y5745384D1*
X2344278Y5742499D1*
X2343137Y5739647D1*
Y5735336D1*
X2344278Y5732484D1*
X2345419Y5731025D1*
X2348867Y5729599D1*
X2353457D1*
X2356879Y5731025D1*
X2358046Y5732484D1*
X2359187Y5735336D1*
Y5739647D1*
X2358046Y5742499D1*
X2355738Y5745384D1*
X2352316Y5746810D1*
X2347727Y5748236D1*
X2345419Y5749695D1*
X2344278Y5752547D1*
Y5755432D1*
X2345419Y5758284D1*
X2348867Y5759710D1*
X2353457D1*
X2328828D2*
X2332277Y5758284D1*
X2334585Y5753973D1*
X2335726Y5746810D1*
Y5742499D1*
X2334585Y5735336D1*
X2332277Y5731025D1*
X2328828Y5729599D1*
X2326547D1*
X2323098Y5731025D1*
X2320817Y5735336D1*
X2319649Y5742499D1*
Y5746810D1*
X2320817Y5753973D1*
X2323098Y5758284D1*
X2326547Y5759710D1*
X2328828D1*
X2320817Y5753973D2*
X2334585Y5735336D1*
X2309930Y5759710D2*
X2297329D1*
X2304200Y5748236D1*
X2300751D1*
X2298470Y5746810D1*
X2297329Y5745384D1*
X2296162Y5741073D1*
Y5738221D1*
X2297329Y5733910D1*
X2299611Y5731025D1*
X2303059Y5729599D1*
X2306508D1*
X2309930Y5731025D1*
X2311071Y5732484D1*
X2312238Y5735336D1*
X2270366Y5729599D2*
X2279572Y5759743D1*
X2288751Y5729599D1*
X2285302Y5739647D2*
X2273815D1*
X2262955Y5759743D2*
Y5729599D1*
X2254917D1*
X2251468Y5731058D1*
X2249160Y5733910D1*
X2248019Y5736795D1*
X2246878Y5741073D1*
Y5748269D1*
X2248019Y5752580D1*
X2249160Y5755432D1*
X2251468Y5758317D1*
X2254917Y5759743D1*
X2262955D1*
X2239468D2*
X2233711Y5729599D1*
X2227980Y5759743D1*
X2222250Y5729599D1*
X2216493Y5759743D1*
X3993072Y967998D2*
Y937854D1*
X3979303D1*
X3953534D2*
Y967998D1*
X3962713Y937854D1*
X3971893Y967998D1*
Y937854D1*
X3944956Y960802D2*
Y962228D1*
X3943815Y965113D1*
X3942675Y966539D1*
X3940367Y967965D1*
X3935777D1*
X3933495Y966539D1*
X3932355Y965113D1*
X3931187Y962228D1*
Y959376D1*
X3932355Y956491D1*
X3934636Y952213D1*
X3946123Y937854D1*
X3930047D1*
X3908867Y967965D2*
X3920328D1*
X3921469Y955065D1*
X3920328Y956491D1*
X3916879Y957950D1*
X3913457D1*
X3910008Y956491D1*
X3907700Y953639D1*
X3906559Y949328D1*
Y946476D1*
X3907700Y942165D1*
X3910008Y939280D1*
X3913457Y937854D1*
X3916879D1*
X3920328Y939280D1*
X3921469Y940739D1*
X3922636Y943591D1*
X3884212Y957950D2*
X3885379Y953639D1*
X3887661Y950754D1*
X3891110Y949328D1*
X3892251D1*
X3895699Y950754D1*
X3897981Y953639D1*
X3899148Y957950D1*
Y959376D1*
X3897981Y963687D1*
X3895699Y966539D1*
X3892251Y967965D1*
X3891110D1*
X3887661Y966539D1*
X3885379Y963687D1*
X3884212Y957950D1*
Y950754D1*
X3885379Y943591D1*
X3887661Y939280D1*
X3891110Y937854D1*
X3893391D1*
X3896840Y939280D1*
X3897981Y942165D1*
X3863033Y963687D2*
X3864173Y966539D1*
X3867622Y967965D1*
X3869904D1*
X3873352Y966539D1*
X3875661Y962228D1*
X3876801Y955065D1*
Y947902D1*
X3875661Y942165D1*
X3873352Y939280D1*
X3869904Y937854D1*
X3868763D1*
X3865341Y939280D1*
X3863033Y942165D1*
X3861892Y946476D1*
Y947902D1*
X3863033Y952213D1*
X3865341Y955065D1*
X3868763Y956491D1*
X3869904D1*
X3873352Y955065D1*
X3875661Y952213D1*
X3876801Y947902D1*
X3846443Y967998D2*
Y937854D1*
X3854481Y967998D2*
X3838404D1*
X3830993Y952910D2*
X3817729D1*
X3791933Y937854D2*
X3801139Y967998D1*
X3810318Y937854D1*
X3806869Y947902D2*
X3795382D1*
X3784522Y967998D2*
Y937854D1*
X3776484D1*
X3773035Y939313D1*
X3770727Y942165D1*
X3769586Y945050D1*
X3768445Y949328D1*
Y956524D1*
X3769586Y960835D1*
X3770727Y963687D1*
X3773035Y966572D1*
X3776484Y967998D1*
X3784522D1*
X3749547D2*
Y945050D1*
X3750688Y940739D1*
X3751855Y939313D1*
X3754137Y937854D1*
X3756445D1*
X3758726Y939313D1*
X3759867Y940739D1*
X3761034Y945050D1*
Y947902D1*
X4754641Y1277902D2*
X4784785D1*
Y1264133D1*
Y1238364D2*
X4754641D1*
X4784785Y1247543D1*
X4754641Y1256722D1*
X4784785D1*
Y1226363D2*
X4754674Y1214876D1*
Y1230953D1*
Y1201735D2*
X4756100Y1205157D1*
X4758952Y1206324D1*
X4761837D1*
X4764689Y1205157D1*
X4766148Y1202876D1*
X4767574Y1198286D1*
X4769000Y1194837D1*
X4771885Y1192556D1*
X4774737Y1191415D1*
X4779048D1*
X4781900Y1192556D1*
X4783359Y1193696D1*
X4784785Y1197145D1*
Y1201735D1*
X4783359Y1205157D1*
X4781900Y1206324D1*
X4779048Y1207465D1*
X4774737D1*
X4771885Y1206324D1*
X4769000Y1204016D1*
X4767574Y1200594D1*
X4766148Y1196005D1*
X4764689Y1193696D1*
X4761837Y1192556D1*
X4758952D1*
X4756100Y1193696D1*
X4754674Y1197145D1*
Y1201735D1*
Y1177107D2*
X4756100Y1180555D1*
X4760411Y1182863D1*
X4767574Y1184004D1*
X4771885D1*
X4779048Y1182863D1*
X4783359Y1180555D1*
X4784785Y1177106D1*
Y1174825D1*
X4783359Y1171376D1*
X4779048Y1169095D1*
X4771885Y1167927D1*
X4767574D1*
X4760411Y1169095D1*
X4756100Y1171376D1*
X4754674Y1174825D1*
Y1177107D1*
X4760411Y1169095D2*
X4779048Y1182863D1*
X4754674Y1146748D2*
Y1158208D1*
X4767574Y1159349D1*
X4766148Y1158208D1*
X4764689Y1154760D1*
Y1151337D1*
X4766148Y1147889D1*
X4769000Y1145581D1*
X4773311Y1144440D1*
X4776163D1*
X4780474Y1145581D1*
X4783359Y1147889D1*
X4784785Y1151337D1*
Y1154760D1*
X4783359Y1158208D1*
X4781900Y1159349D1*
X4779048Y1160517D1*
X3042246Y2453494D2*
Y2431972D1*
X3041105Y2427661D1*
X3038797Y2424809D1*
X3035348Y2423350D1*
X3033067D1*
X3029618Y2424809D1*
X3027310Y2427661D1*
X3026169Y2431972D1*
Y2453494D1*
X3018758D2*
Y2423350D1*
X3004990D1*
X2981502Y2453494D2*
Y2423350D1*
X2997579Y2453494D1*
Y2423350D1*
X2972924Y2446297D2*
Y2447723D1*
X2971783Y2450608D1*
X2970642Y2452034D1*
X2968334Y2453460D1*
X2963745D1*
X2961463Y2452034D1*
X2960322Y2450608D1*
X2959155Y2447723D1*
Y2444872D1*
X2960322Y2441986D1*
X2962604Y2437709D1*
X2974091Y2423350D1*
X2958014D1*
X2944873Y2453460D2*
X2948296Y2452034D1*
X2949463Y2449183D1*
Y2446297D1*
X2948296Y2443446D1*
X2946014Y2441986D1*
X2941424Y2440560D1*
X2937976Y2439135D1*
X2935694Y2436249D1*
X2934553Y2433398D1*
Y2429087D1*
X2935694Y2426235D1*
X2936835Y2424776D1*
X2940284Y2423350D1*
X2944873D1*
X2948296Y2424776D1*
X2949463Y2426235D1*
X2950604Y2429087D1*
Y2433398D1*
X2949463Y2436249D1*
X2947155Y2439135D1*
X2943732Y2440560D1*
X2939143Y2441986D1*
X2936835Y2443446D1*
X2935694Y2446297D1*
Y2449183D1*
X2936835Y2452034D1*
X2940284Y2453460D1*
X2944873D1*
X2920245D2*
X2923694Y2452034D1*
X2926002Y2447723D1*
X2927142Y2440560D1*
Y2436249D1*
X2926002Y2429087D1*
X2923694Y2424776D1*
X2920245Y2423350D1*
X2917963D1*
X2914515Y2424776D1*
X2912233Y2429087D1*
X2911066Y2436249D1*
Y2440560D1*
X2912233Y2447723D1*
X2914515Y2452034D1*
X2917963Y2453460D1*
X2920245D1*
X2912233Y2447723D2*
X2926002Y2429087D1*
X2901347Y2453460D2*
X2888745D1*
X2895616Y2441986D1*
X2892168D1*
X2889886Y2440560D1*
X2888745Y2439135D1*
X2887578Y2434824D1*
Y2431972D1*
X2888745Y2427661D1*
X2891027Y2424776D1*
X2894476Y2423350D1*
X2897925D1*
X2901347Y2424776D1*
X2902488Y2426235D1*
X2903655Y2429087D1*
X5843334Y7682333D2*
D115*
X5838581Y7684710D1*
X5833772Y7689518D1*
X5831396Y7694271D1*
Y7703833D1*
X5833772Y7708641D1*
X5838581Y7713395D1*
X5843334Y7715826D1*
X5850519Y7718203D1*
X5862512D1*
X5869642Y7715826D1*
X5874451Y7713395D1*
X5879204Y7708641D1*
X5881636Y7703833D1*
Y7694271D1*
X5879204Y7689518D1*
X5874451Y7684710D1*
X5869642Y7682333D1*
X5831396Y7618293D2*
X5881636D1*
Y7601546D1*
X5879204Y7594361D1*
X5874451Y7589553D1*
X5869642Y7587176D1*
X5862512Y7584800D1*
X5850519D1*
X5843334Y7587176D1*
X5838581Y7589553D1*
X5833772Y7594361D1*
X5831396Y7601546D1*
Y7618293D1*
X5831451Y7492075D2*
Y7515951D1*
X5852951Y7518328D1*
X5850574Y7515951D1*
X5848142Y7508766D1*
Y7501636D1*
X5850574Y7494451D1*
X5855327Y7489643D1*
X5862512Y7487266D1*
X5867266D1*
X5874451Y7489643D1*
X5879259Y7494451D1*
X5881636Y7501636D1*
Y7508766D1*
X5879259Y7515951D1*
X5876827Y7518327D1*
X5872074Y7520759D1*
X5843334Y7387356D2*
X5838581Y7389733D1*
X5833772Y7394541D1*
X5831396Y7399294D1*
Y7408856D1*
X5833772Y7413664D1*
X5838581Y7418417D1*
X5843334Y7420849D1*
X5850519Y7423226D1*
X5862513D1*
X5869642Y7420849D1*
X5874451Y7418417D1*
X5879204Y7413664D1*
X5881636Y7408856D1*
Y7399294D1*
X5879204Y7394541D1*
X5874451Y7389733D1*
X5869642Y7387356D1*
X5862512D1*
Y7399294D1*
X5843334Y7182333D2*
X5838581Y7184710D1*
X5833772Y7189518D1*
X5831396Y7194271D1*
Y7203833D1*
X5833772Y7208641D1*
X5838581Y7213395D1*
X5843334Y7215826D1*
X5850519Y7218203D1*
X5862512D1*
X5869642Y7215826D1*
X5874451Y7213395D1*
X5879204Y7208641D1*
X5881636Y7203833D1*
Y7194271D1*
X5879204Y7189518D1*
X5874451Y7184710D1*
X5869642Y7182333D1*
X5831396Y7118293D2*
X5881636D1*
Y7101546D1*
X5879204Y7094361D1*
X5874451Y7089553D1*
X5869642Y7087176D1*
X5862512Y7084800D1*
X5850519D1*
X5843334Y7087176D1*
X5838581Y7089553D1*
X5833772Y7094361D1*
X5831396Y7101546D1*
Y7118293D1*
X5831451Y6992075D2*
Y7015951D1*
X5852951Y7018328D1*
X5850574Y7015951D1*
X5848142Y7008766D1*
Y7001636D1*
X5850574Y6994451D1*
X5855327Y6989643D1*
X5862512Y6987266D1*
X5867266D1*
X5874451Y6989643D1*
X5879259Y6994451D1*
X5881636Y7001636D1*
Y7008766D1*
X5879259Y7015951D1*
X5876827Y7018327D1*
X5872074Y7020759D1*
X5843334Y6887356D2*
X5838581Y6889733D1*
X5833772Y6894541D1*
X5831396Y6899294D1*
Y6908856D1*
X5833772Y6913664D1*
X5838581Y6918417D1*
X5843334Y6920849D1*
X5850519Y6923226D1*
X5862513D1*
X5869642Y6920849D1*
X5874451Y6918417D1*
X5879204Y6913664D1*
X5881636Y6908856D1*
Y6899294D1*
X5879204Y6894541D1*
X5874451Y6889733D1*
X5869642Y6887356D1*
X5862512D1*
Y6899294D1*
X5843334Y3844833D2*
X5838581Y3847210D1*
X5833772Y3852018D1*
X5831396Y3856771D1*
Y3866333D1*
X5833772Y3871141D1*
X5838581Y3875895D1*
X5843334Y3878326D1*
X5850519Y3880703D1*
X5862512D1*
X5869642Y3878326D1*
X5874451Y3875895D1*
X5879204Y3871141D1*
X5881636Y3866333D1*
Y3856771D1*
X5879204Y3852018D1*
X5874451Y3847210D1*
X5869642Y3844833D1*
X5831396Y3780793D2*
X5881636D1*
Y3764046D1*
X5879204Y3756861D1*
X5874451Y3752053D1*
X5869642Y3749676D1*
X5862512Y3747300D1*
X5850519D1*
X5843334Y3749676D1*
X5838581Y3752053D1*
X5833772Y3756861D1*
X5831396Y3764046D1*
Y3780793D1*
X5831451Y3654575D2*
Y3678451D1*
X5852951Y3680828D1*
X5850574Y3678451D1*
X5848142Y3671266D1*
Y3664136D1*
X5850574Y3656951D1*
X5855327Y3652143D1*
X5862512Y3649766D1*
X5867266D1*
X5874451Y3652143D1*
X5879259Y3656951D1*
X5881636Y3664136D1*
Y3671266D1*
X5879259Y3678451D1*
X5876827Y3680827D1*
X5872074Y3683259D1*
X5843334Y3549856D2*
X5838581Y3552233D1*
X5833772Y3557041D1*
X5831396Y3561794D1*
Y3571356D1*
X5833772Y3576164D1*
X5838581Y3580917D1*
X5843334Y3583349D1*
X5850519Y3585726D1*
X5862513D1*
X5869642Y3583349D1*
X5874451Y3580917D1*
X5879204Y3576164D1*
X5881636Y3571356D1*
Y3561794D1*
X5879204Y3557041D1*
X5874451Y3552233D1*
X5869642Y3549856D1*
X5862512D1*
Y3561794D1*
X5843334Y3201084D2*
X5838581Y3203460D1*
X5833772Y3208269D1*
X5831396Y3213022D1*
Y3222584D1*
X5833772Y3227392D1*
X5838581Y3232145D1*
X5843334Y3234577D1*
X5850519Y3236954D1*
X5862512D1*
X5869642Y3234577D1*
X5874451Y3232145D1*
X5879204Y3227392D1*
X5881636Y3222584D1*
Y3213022D1*
X5879204Y3208269D1*
X5874451Y3203460D1*
X5869642Y3201084D1*
X5831396Y3137044D2*
X5881636D1*
Y3120297D1*
X5879204Y3113112D1*
X5874451Y3108303D1*
X5869642Y3105927D1*
X5862512Y3103550D1*
X5850519D1*
X5843334Y3105927D1*
X5838581Y3108303D1*
X5833772Y3113112D1*
X5831396Y3120297D1*
Y3137044D1*
X5831451Y3010825D2*
Y3034702D1*
X5852951Y3037078D1*
X5850574Y3034702D1*
X5848142Y3027517D1*
Y3020387D1*
X5850574Y3013202D1*
X5855327Y3008393D1*
X5862512Y3006017D1*
X5867266D1*
X5874451Y3008393D1*
X5879259Y3013202D1*
X5881636Y3020387D1*
Y3027517D1*
X5879259Y3034702D1*
X5876827Y3037078D1*
X5872074Y3039510D1*
X5843334Y2906107D2*
X5838581Y2908483D1*
X5833772Y2913292D1*
X5831396Y2918045D1*
Y2927606D1*
X5833772Y2932415D1*
X5838581Y2937168D1*
X5843334Y2939600D1*
X5850519Y2941977D1*
X5862513D1*
X5869642Y2939600D1*
X5874451Y2937168D1*
X5879204Y2932415D1*
X5881636Y2927606D1*
Y2918045D1*
X5879204Y2913292D1*
X5874451Y2908483D1*
X5869642Y2906107D1*
X5862512D1*
Y2918045D1*
X5843334Y2551082D2*
X5838581Y2553459D1*
X5833772Y2558268D1*
X5831396Y2563021D1*
Y2572582D1*
X5833772Y2577391D1*
X5838581Y2582144D1*
X5843334Y2584576D1*
X5850519Y2586952D1*
X5862512D1*
X5869642Y2584576D1*
X5874451Y2582144D1*
X5879204Y2577391D1*
X5881636Y2572582D1*
Y2563021D1*
X5879204Y2558268D1*
X5874451Y2553459D1*
X5869642Y2551082D1*
X5831396Y2487042D2*
X5881636D1*
Y2470296D1*
X5879204Y2463111D1*
X5874451Y2458302D1*
X5869642Y2455926D1*
X5862512Y2453549D1*
X5850519D1*
X5843334Y2455926D1*
X5838581Y2458302D1*
X5833772Y2463111D1*
X5831396Y2470296D1*
Y2487042D1*
X5831451Y2360824D2*
Y2384700D1*
X5852951Y2387077D1*
X5850574Y2384700D1*
X5848142Y2377515D1*
Y2370385D1*
X5850574Y2363200D1*
X5855327Y2358392D1*
X5862512Y2356015D1*
X5867266D1*
X5874451Y2358392D1*
X5879259Y2363200D1*
X5881636Y2370385D1*
Y2377515D1*
X5879259Y2384700D1*
X5876827Y2387077D1*
X5872074Y2389509D1*
X5843334Y2256105D2*
X5838581Y2258482D1*
X5833772Y2263290D1*
X5831396Y2268044D1*
Y2277605D1*
X5833772Y2282414D1*
X5838581Y2287167D1*
X5843334Y2289599D1*
X5850519Y2291975D1*
X5862513D1*
X5869642Y2289599D1*
X5874451Y2287167D1*
X5879204Y2282414D1*
X5881636Y2277605D1*
Y2268044D1*
X5879204Y2263290D1*
X5874451Y2258482D1*
X5869642Y2256105D1*
X5862512D1*
Y2268044D1*
X5837083Y1632379D2*
X5832330Y1634756D1*
X5827522Y1639564D1*
X5825145Y1644318D1*
Y1653879D1*
X5827522Y1658688D1*
X5832330Y1663441D1*
X5837083Y1665873D1*
X5844268Y1668249D1*
X5856262D1*
X5863392Y1665873D1*
X5868200Y1663441D1*
X5872953Y1658688D1*
X5875385Y1653879D1*
Y1644318D1*
X5872953Y1639564D1*
X5868200Y1634756D1*
X5863392Y1632379D1*
X5856262D1*
Y1644318D1*
X5825145Y1583447D2*
X5875385D1*
X5825145Y1616940D1*
X5875385D1*
X5825145Y1568007D2*
X5875385D1*
Y1551261D1*
X5872953Y1544076D1*
X5868200Y1539267D1*
X5863392Y1536891D1*
X5856262Y1534514D1*
X5844268D1*
X5837083Y1536891D1*
X5832330Y1539267D1*
X5827522Y1544076D1*
X5825145Y1551261D1*
Y1568007D1*
X5828765Y1448974D2*
X5871820D1*
X5850320Y1470474D2*
Y1427419D1*
X5825200Y1400042D2*
X5827577Y1407171D1*
X5832330Y1409603D1*
X5837139D1*
X5841892Y1407171D1*
X5844324Y1402418D1*
X5846700Y1392856D1*
X5849077Y1385671D1*
X5853885Y1380918D1*
X5858638Y1378542D1*
X5865823D1*
X5870577Y1380918D1*
X5873009Y1383295D1*
X5875385Y1390480D1*
Y1400041D1*
X5873008Y1407171D1*
X5870577Y1409603D1*
X5865823Y1411980D1*
X5858638D1*
X5853885Y1409603D1*
X5849077Y1404795D1*
X5846700Y1397665D1*
X5844324Y1388103D1*
X5841892Y1383295D1*
X5837139Y1380918D1*
X5832330D1*
X5827577Y1383295D1*
X5825200Y1390480D1*
Y1400042D1*
X5825145Y1363102D2*
X5875385Y1343979D1*
X5825145Y1324856D1*
X3030831Y992859D2*
X3028454Y988106D1*
X3023645Y983297D1*
X3018892Y980921D1*
X3009331D1*
X3004522Y983297D1*
X2999769Y988106D1*
X2997337Y992859D1*
X2994961Y1000044D1*
Y1012037D1*
X2997337Y1019167D1*
X2999769Y1023976D1*
X3004522Y1028729D1*
X3009331Y1031161D1*
X3018892D1*
X3023645Y1028729D1*
X3028454Y1023976D1*
X3030831Y1019167D1*
Y1012037D1*
X3018892D1*
X3079763Y980921D2*
Y1031161D1*
X3046270Y980921D1*
Y1031161D1*
X3095202Y980921D2*
Y1031161D1*
X3111949D1*
X3119134Y1028729D1*
X3123943Y1023976D1*
X3126319Y1019167D1*
X3128696Y1012037D1*
Y1000044D1*
X3126319Y992859D1*
X3123942Y988106D1*
X3119134Y983297D1*
X3111949Y980921D1*
X3095202D1*
X3195168Y992914D2*
Y990538D1*
X3197544Y985729D1*
X3199921Y983353D1*
X3204729Y980976D1*
X3214291D1*
X3219044Y983353D1*
X3221421Y985729D1*
X3223853Y990538D1*
Y995291D1*
X3221421Y1000099D1*
X3216668Y1007229D1*
X3192736Y1031161D1*
X3226229D1*
X3265600D2*
Y980976D1*
X3241668Y1014414D1*
X3277538D1*
X3292978Y980921D2*
X3312101Y1031161D1*
X3331224Y980921D1*
X1912081Y1261610D2*
X1909705Y1256856D1*
X1904896Y1252048D1*
X1900143Y1249671D1*
X1890581D1*
X1885773Y1252048D1*
X1881020Y1256856D1*
X1878588Y1261610D1*
X1876211Y1268795D1*
Y1280788D1*
X1878588Y1287918D1*
X1881020Y1292726D1*
X1885773Y1297479D1*
X1890581Y1299911D1*
X1900143D1*
X1904896Y1297479D1*
X1909705Y1292726D1*
X1912081Y1287918D1*
Y1280788D1*
X1900143D1*
X1961014Y1249671D2*
Y1299911D1*
X1927520Y1249671D1*
Y1299911D1*
X1976453Y1249671D2*
Y1299911D1*
X1993200D1*
X2000385Y1297479D1*
X2005193Y1292726D1*
X2007570Y1287918D1*
X2009946Y1280788D1*
Y1268795D1*
X2007570Y1261610D1*
X2005193Y1256856D1*
X2000385Y1252048D1*
X1993200Y1249671D1*
X1976453D1*
X2076418Y1261665D2*
Y1259288D1*
X2078795Y1254480D1*
X2081172Y1252103D1*
X2085980Y1249727D1*
X2095542D1*
X2100295Y1252103D1*
X2102671Y1254480D1*
X2105103Y1259288D1*
Y1264041D1*
X2102671Y1268850D1*
X2097918Y1275980D1*
X2073987Y1299911D1*
X2107480D1*
X2146851D2*
Y1249727D1*
X2122919Y1283165D1*
X2158789D1*
X2174228Y1249671D2*
X2193352Y1299911D1*
X2212475Y1249671D1*
X554627Y7671759D2*
D116*
X533624D1*
X545076Y7656460D1*
X539328D1*
X535525Y7654559D1*
X533624Y7652658D1*
X531679Y7646910D1*
Y7643107D1*
X533624Y7637359D1*
X537427Y7633512D1*
X543175Y7631611D1*
X548923D1*
X554627Y7633512D1*
X556528Y7635458D1*
X558473Y7639260D1*
X519327Y7671803D2*
X504029Y7631611D1*
X488730Y7671803D1*
X472532Y7671759D2*
X451529D1*
X462981Y7656460D1*
X457233D1*
X453431Y7654559D1*
X451529Y7652658D1*
X449584Y7646910D1*
Y7643107D1*
X451529Y7637359D1*
X455332Y7633512D1*
X461080Y7631611D1*
X466828D1*
X472532Y7633512D1*
X474433Y7635458D1*
X476379Y7639260D1*
X523667Y7559707D2*
X527469Y7563554D1*
X533217Y7565455D1*
X540867D1*
X546615Y7563554D1*
X550461Y7559707D1*
Y7555905D1*
X548516Y7552058D1*
X546615Y7550157D1*
X542812Y7548255D1*
X531316Y7544409D1*
X527469Y7542507D1*
X525568Y7540562D1*
X523667Y7536759D1*
Y7531011D1*
X527469Y7527209D1*
X533217Y7525263D1*
X540867D1*
X546615Y7527209D1*
X550461Y7531011D1*
X482619Y7555905D2*
X484521Y7559707D1*
X488367Y7563554D1*
X492170Y7565455D1*
X499819D1*
X503666Y7563554D1*
X507469Y7559707D1*
X509414Y7555905D1*
X511315Y7550157D1*
Y7540562D1*
X509414Y7534858D1*
X507469Y7531011D1*
X503666Y7527209D1*
X499819Y7525263D1*
X492170D1*
X488367Y7527209D1*
X484521Y7531011D1*
X482619Y7534858D1*
X470268Y7565455D2*
Y7525263D1*
X447320D1*
X537973Y7459806D2*
X541776Y7463653D1*
X547524Y7465554D1*
X555173D1*
X560921Y7463653D1*
X564768Y7459806D1*
Y7456003D1*
X562823Y7452156D1*
X560921Y7450255D1*
X557119Y7448354D1*
X545623Y7444507D1*
X541776Y7442606D1*
X539875Y7440660D1*
X537973Y7436858D1*
Y7431110D1*
X541776Y7427307D1*
X547524Y7425362D1*
X555173D1*
X560921Y7427307D1*
X564768Y7431110D1*
X525622Y7465554D2*
Y7425362D1*
X512225D1*
X506477Y7427307D1*
X502630Y7431110D1*
X500729Y7434957D1*
X498827Y7440660D1*
Y7450255D1*
X500729Y7456003D1*
X502630Y7459806D1*
X506477Y7463653D1*
X512225Y7465554D1*
X525622D1*
X455835Y7425362D2*
X471177Y7465554D1*
X486476Y7425362D1*
X480728Y7438759D2*
X461583D1*
X534127Y7356002D2*
X536028Y7359804D1*
X539875Y7363651D1*
X543677Y7365552D1*
X551327D1*
X555173Y7363651D1*
X558976Y7359804D1*
X560921Y7356002D1*
X562823Y7350254D1*
Y7340659D1*
X560921Y7334955D1*
X558976Y7331108D1*
X555173Y7327306D1*
X551327Y7325360D1*
X543677D1*
X539875Y7327306D1*
X536028Y7331108D1*
X534127Y7334955D1*
Y7340659D1*
X543677D1*
X494981Y7365552D2*
Y7325360D1*
X521775Y7365552D1*
Y7325360D1*
X482629Y7365552D2*
Y7325360D1*
X469232D1*
X463484Y7327306D1*
X459637Y7331108D1*
X457736Y7334955D1*
X455835Y7340659D1*
Y7350254D1*
X457736Y7356002D1*
X459637Y7359804D1*
X463484Y7363651D1*
X469232Y7365552D1*
X482629D1*
X1109319Y7834303D2*
Y7794111D1*
X1092075D1*
X1086326Y7796057D1*
X1084425Y7797958D1*
X1082524Y7801760D1*
Y7807508D1*
X1084425Y7811355D1*
X1086326Y7813256D1*
X1092075Y7815158D1*
X1086326Y7817103D1*
X1084425Y7819005D1*
X1082524Y7822807D1*
Y7826654D1*
X1084425Y7830456D1*
X1086326Y7832402D1*
X1092075Y7834303D1*
X1109319D1*
Y7815158D2*
X1092075D1*
X1058676Y7834303D2*
X1062523Y7832402D1*
X1066326Y7828555D1*
X1068271Y7824753D1*
X1070173Y7819005D1*
Y7809410D1*
X1068271Y7803706D1*
X1066326Y7799859D1*
X1062523Y7796057D1*
X1058676Y7794111D1*
X1051027D1*
X1047225Y7796057D1*
X1043378Y7799859D1*
X1041477Y7803706D1*
X1039575Y7809410D1*
Y7819005D1*
X1041477Y7824753D1*
X1043378Y7828555D1*
X1047225Y7832402D1*
X1051027Y7834303D1*
X1058676D1*
X1015728D2*
X1019575Y7832402D1*
X1023377Y7828555D1*
X1025323Y7824753D1*
X1027224Y7819005D1*
Y7809410D1*
X1025323Y7803706D1*
X1023377Y7799859D1*
X1019575Y7796057D1*
X1015728Y7794111D1*
X1008079D1*
X1004276Y7796057D1*
X1000429Y7799859D1*
X998528Y7803706D1*
X996627Y7809410D1*
Y7819005D1*
X998528Y7824753D1*
X1000429Y7828555D1*
X1004276Y7832402D1*
X1008079Y7834303D1*
X1015728D1*
X970878D2*
Y7794111D1*
X984275Y7834303D2*
X957481D1*
X933633Y7834259D2*
X939381Y7832358D1*
X943228Y7826610D1*
X945129Y7817059D1*
Y7811311D1*
X943228Y7801760D1*
X939381Y7796012D1*
X933633Y7794111D1*
X929831D1*
X924083Y7796012D1*
X920280Y7801760D1*
X918335Y7811311D1*
Y7817059D1*
X920280Y7826610D1*
X924083Y7832358D1*
X929831Y7834259D1*
X933633D1*
X920280Y7826610D2*
X943228Y7801760D1*
X1944662Y7909303D2*
Y7869111D1*
X1927418D1*
X1921670Y7871057D1*
X1919769Y7872958D1*
X1917867Y7876760D1*
Y7882508D1*
X1919769Y7886355D1*
X1921670Y7888256D1*
X1927418Y7890158D1*
X1921670Y7892103D1*
X1919769Y7894005D1*
X1917867Y7897807D1*
Y7901654D1*
X1919769Y7905456D1*
X1921670Y7907402D1*
X1927418Y7909303D1*
X1944662D1*
Y7890158D2*
X1927418D1*
X1905516Y7909303D2*
Y7880607D1*
X1903615Y7874859D1*
X1899768Y7871057D1*
X1894020Y7869111D1*
X1890217D1*
X1884469Y7871057D1*
X1880623Y7874859D1*
X1878721Y7880607D1*
Y7909303D1*
X1852973D2*
Y7869111D1*
X1866370Y7909303D2*
X1839575D1*
X1813827D2*
Y7869111D1*
X1827224Y7909303D2*
X1800429D1*
X1776582D2*
X1780429Y7907402D1*
X1784231Y7903555D1*
X1786177Y7899753D1*
X1788078Y7894005D1*
Y7884410D1*
X1786177Y7878706D1*
X1784231Y7874859D1*
X1780429Y7871057D1*
X1776582Y7869111D1*
X1768932D1*
X1765130Y7871057D1*
X1761283Y7874859D1*
X1759382Y7878706D1*
X1757481Y7884410D1*
Y7894005D1*
X1759382Y7899753D1*
X1761283Y7903555D1*
X1765130Y7907402D1*
X1768932Y7909303D1*
X1776582D1*
X1718335D2*
Y7869111D1*
X1745129Y7909303D1*
Y7869111D1*
X3181969Y7903054D2*
X3206818D1*
Y7862862D1*
X3181969D1*
X3206818Y7883908D2*
X3191520D1*
X3142823Y7903054D2*
Y7862862D1*
X3169618Y7903054D1*
Y7862862D1*
X3101776Y7893503D2*
X3103677Y7897306D1*
X3107524Y7901153D1*
X3111326Y7903054D1*
X3118976D1*
X3122823Y7901153D1*
X3126625Y7897306D1*
X3128571Y7893503D1*
X3130472Y7887755D1*
Y7878160D1*
X3128571Y7872457D1*
X3126625Y7868610D1*
X3122823Y7864807D1*
X3118976Y7862862D1*
X3111326D1*
X3107524Y7864807D1*
X3103677Y7868610D1*
X3101776Y7872457D1*
X3077928Y7903054D2*
X3081775Y7901153D1*
X3085578Y7897306D1*
X3087523Y7893503D1*
X3089424Y7887755D1*
Y7878160D1*
X3087523Y7872457D1*
X3085578Y7868610D1*
X3081775Y7864807D1*
X3077928Y7862862D1*
X3070279D1*
X3066477Y7864807D1*
X3062630Y7868610D1*
X3060729Y7872457D1*
X3058827Y7878160D1*
Y7887755D1*
X3060729Y7893503D1*
X3062630Y7897306D1*
X3066477Y7901153D1*
X3070279Y7903054D1*
X3077928D1*
X3046476D2*
Y7862862D1*
X3033079D1*
X3027331Y7864807D1*
X3023484Y7868610D1*
X3021582Y7872457D1*
X3019681Y7878160D1*
Y7887755D1*
X3021582Y7893503D1*
X3023484Y7897306D1*
X3027331Y7901153D1*
X3033079Y7903054D1*
X3046476D1*
X2982481D2*
X3007330D1*
Y7862862D1*
X2982481D1*
X3007330Y7883908D2*
X2992031D1*
X2970129D2*
X2952929D1*
X2947181Y7885854D1*
X2945236Y7887755D1*
X2943335Y7891558D1*
Y7895404D1*
X2945236Y7899207D1*
X2947181Y7901153D1*
X2952929Y7903054D1*
X2970129D1*
Y7862862D1*
X2956732Y7883908D2*
X2943335Y7862862D1*
X3578793Y593942D2*
D115*
Y596318D1*
X3576416Y601127D1*
X3574040Y603503D1*
X3569231Y605880D1*
X3559670D1*
X3554916Y603503D1*
X3552540Y601127D1*
X3550108Y596318D1*
Y591565D1*
X3552540Y586756D1*
X3557293Y579627D1*
X3581225Y555695D1*
X3547731D1*
X3517922Y605880D2*
X3525107Y603503D1*
X3529915Y596318D1*
X3532292Y584380D1*
Y577195D1*
X3529915Y565257D1*
X3525107Y558072D1*
X3517922Y555695D1*
X3513169D1*
X3505984Y558072D1*
X3501231Y565257D1*
X3498799Y577195D1*
Y584380D1*
X3501231Y596318D1*
X3505984Y603503D1*
X3513169Y605880D1*
X3517922D1*
X3501231Y596318D2*
X3529915Y565257D1*
X3483359Y596318D2*
X3478551Y598750D1*
X3471366Y605880D1*
Y555695D1*
X3424810Y589188D2*
X3427242Y582003D1*
X3431995Y577195D1*
X3439180Y574818D1*
X3441557D1*
X3448742Y577195D1*
X3453495Y582003D1*
X3455927Y589188D1*
Y591565D1*
X3453495Y598750D1*
X3448742Y603503D1*
X3441557Y605880D1*
X3439180D1*
X3431995Y603503D1*
X3427242Y598750D1*
X3424810Y589188D1*
Y577195D1*
X3427242Y565257D1*
X3431995Y558072D1*
X3439180Y555695D1*
X3443933D1*
X3451118Y558072D1*
X3453495Y562880D1*
X3406994Y560503D2*
X3409371Y558072D1*
X3406994Y555695D1*
X3404562Y558072D1*
X3406994Y560503D1*
X3374753Y605880D2*
X3381938Y603503D1*
X3386746Y596318D1*
X3389123Y584380D1*
Y577195D1*
X3386746Y565257D1*
X3381938Y558072D1*
X3374753Y555695D1*
X3370000D1*
X3362815Y558072D1*
X3358062Y565257D1*
X3355630Y577195D1*
Y584380D1*
X3358062Y596318D1*
X3362815Y603503D1*
X3370000Y605880D1*
X3374753D1*
X3358062Y596318D2*
X3386746Y565257D1*
X3330629Y555695D2*
X3306697Y605880D1*
X3340190D1*
X3288881Y560503D2*
X3291258Y558072D1*
X3288881Y555695D1*
X3286449Y558072D1*
X3288881Y560503D1*
X3271010Y596318D2*
X3266202Y598750D1*
X3259017Y605880D1*
Y555695D1*
X3214893Y598750D2*
X3217269Y603503D1*
X3224454Y605880D1*
X3229207D1*
X3236392Y603503D1*
X3241201Y596318D1*
X3243577Y584380D1*
Y572442D1*
X3241201Y562880D1*
X3236392Y558072D1*
X3229207Y555695D1*
X3226831D1*
X3219701Y558072D1*
X3214893Y562880D1*
X3212516Y570065D1*
Y572442D1*
X3214893Y579627D1*
X3219701Y584380D1*
X3226831Y586756D1*
X3229207D1*
X3236392Y584380D1*
X3241201Y579627D1*
X3243577Y572442D1*
M02*
