M48
INCH
T01C0.0236
T02C0.0354
T03C0.0362
T04C0.0394
T05C0.0433
T06C0.0472
T07C0.0551
T08C0.0669
T09C0.0906
T10C0.1575
T11C0.6299
%
T01
X+012812Y+007125
X+016812Y+006187
X+018312Y+004812
X+011937Y+012312
X+011250Y+013000
X+013500Y+013750
X+014750Y+014750
X+012625Y+016000
X+013625Y+017062
X+011562Y+018312
X+012625Y+019875
X+013625Y+020937
X+012187Y+023250
X+013625Y+024375
X+012187Y+027625
X+013625Y+028625
X+022500Y+025687
X+022500Y+021375
X+022500Y+017812
X+022500Y+013937
X+037812Y+018431
X+040312Y+018805
X+049000Y+023875
X+054187Y+024312
X+053937Y+025687
X+054250Y+030812
X+054062Y+032437
X+054250Y+037250
X+054062Y+038562
X+052187Y+041187
X+050812Y+043187
X+049875Y+042375
X+049937Y+044250
X+046375Y+041562
X+045750Y+040812
X+037812Y+039000
X+036937Y+043187
X+028875Y+042812
X+024687Y+044375
X+024687Y+046500
X+025187Y+050562
X+026312Y+038375
X+025500Y+037312
X+024812Y+036062
X+022937Y+036312
X+024812Y+033437
X+054312Y+043187
X+045000Y+066937
X+054187Y+070625
X+054062Y+071937
X+054187Y+075562
X+053125Y+076312
X+032687Y+064812
T02
X+032125Y+015125
X+032125Y+013125
X+038812Y+016625
X+040812Y+016625
X+046500Y+016437
X+048500Y+016437
X+017687Y+037125
X+015687Y+037125
X+015437Y+039937
X+014437Y+039937
X+013437Y+039937
X+013437Y+041937
X+014437Y+041937
X+015437Y+041937
X+015437Y+043937
X+014437Y+043937
X+013437Y+043937
X+013437Y+045937
X+014437Y+045937
X+015437Y+045937
X+017437Y+045937
X+017437Y+047937
X+015437Y+047937
X+014437Y+047937
X+013437Y+047937
X+013437Y+049937
X+014437Y+049937
X+015437Y+049937
X+017437Y+049937
X+017437Y+051937
X+015437Y+051937
X+014437Y+051937
X+013437Y+051937
X+013437Y+053937
X+014437Y+053937
X+015437Y+053937
X+015437Y+055937
X+014437Y+055937
X+013437Y+055937
X+013437Y+057937
X+014437Y+057937
X+015437Y+057937
X+017437Y+057937
X+017437Y+055937
X+017437Y+053937
X+017437Y+059937
X+015437Y+059937
X+014437Y+059937
X+013437Y+059937
X+013437Y+061937
X+014437Y+061937
X+015437Y+061937
X+017437Y+061937
X+017437Y+063937
X+015437Y+063937
X+014437Y+063937
X+013437Y+063937
X+013437Y+065937
X+014437Y+065937
X+015437Y+065937
X+015437Y+067937
X+014437Y+067937
X+013437Y+067937
X+013437Y+069937
X+014437Y+069937
X+015437Y+069937
X+017437Y+069937
X+017437Y+067937
X+017437Y+065937
X+017437Y+043937
X+017437Y+041937
X+017437Y+039937
T03
X+009875Y+011437
X+009087Y+011437
X+009087Y+010453
X+009875Y+010453
T04
X+042187Y+015187
X+044156Y+015187
T05
X+015000Y+077624
X+015000Y+078624
X+015000Y+079624
X+018250Y+077625
X+018250Y+076625
X+025125Y+078749
X+026125Y+078749
X+027125Y+078749
X+028125Y+078749
X+011437Y+068937
X+010437Y+068937
X+009437Y+068937
X+009437Y+064937
X+010437Y+064937
X+011437Y+064937
X+011437Y+060937
X+010437Y+060937
X+009437Y+060937
X+009437Y+056937
X+010437Y+056937
X+011437Y+056937
X+011437Y+052937
X+010437Y+052937
X+009437Y+052937
X+009437Y+048937
X+010437Y+048937
X+011437Y+048937
X+011437Y+044937
X+010437Y+044937
X+009437Y+044937
X+009437Y+040937
X+010437Y+040937
X+011437Y+040937
X+017984Y+028625
X+018984Y+028625
X+019984Y+028625
X+019984Y+024437
X+018984Y+024437
X+017984Y+024437
X+017984Y+020750
X+018984Y+020750
X+019984Y+020750
X+019921Y+017000
X+018921Y+017000
X+017921Y+017000
X+019937Y+013937
X+020937Y+013937
X+031125Y+011249
X+032125Y+011249
X+037437Y+013054
X+038776Y+013054
X+040114Y+013054
X+039445Y+011676
X+038106Y+011637
X+044124Y+011375
X+044124Y+012375
X+046687Y+012187
X+046687Y+013187
X+046687Y+011187
X+046687Y+008187
X+046687Y+007187
X+046687Y+006187
X+057375Y+014500
X+057375Y+015500
X+053203Y+020437
X+052203Y+020437
X+051203Y+020437
X+057437Y+022687
X+057437Y+023687
X+057437Y+024687
X+057437Y+025687
X+057437Y+029187
X+057437Y+030187
X+057437Y+031187
X+057437Y+032187
X+057437Y+035625
X+057437Y+036625
X+057437Y+037625
X+057437Y+038625
X+053210Y+046375
X+052210Y+046375
X+051210Y+046375
X+051210Y+051828
X+052210Y+051828
X+053210Y+051828
X+053210Y+057437
X+052210Y+057437
X+051210Y+057437
X+051210Y+063187
X+052210Y+063187
X+053210Y+063187
X+057437Y+069000
X+057437Y+070000
X+057437Y+071000
X+057437Y+072000
X+057437Y+074000
X+057437Y+075000
X+057437Y+076000
X+057437Y+077000
X+008000Y+075937
X+008000Y+074937
X+008000Y+073937
X+008000Y+072937
T06
X+028812Y+063312
X+027812Y+063312
X+027812Y+062312
X+028812Y+062312
X+028812Y+061312
X+027812Y+061312
X+027812Y+060312
X+028812Y+060312
X+028812Y+059312
X+028812Y+058312
X+027812Y+058312
X+027812Y+059312
X+027812Y+057312
X+028812Y+057312
X+028812Y+056312
X+027812Y+056312
X+027812Y+055312
X+028812Y+055312
X+028812Y+054312
X+027812Y+054312
X+027812Y+053312
X+028812Y+053312
X+028812Y+052312
X+027812Y+052312
X+027812Y+051312
X+028812Y+051312
X+028812Y+050312
X+027812Y+050312
X+027812Y+049312
X+028812Y+049312
X+028812Y+048312
X+027812Y+048312
X+030812Y+045312
X+030812Y+044312
X+031812Y+044312
X+031812Y+045312
X+032812Y+045312
X+032812Y+044312
X+033812Y+044312
X+033812Y+045312
X+034812Y+045312
X+034812Y+044312
X+035812Y+044312
X+035812Y+045312
X+036812Y+045312
X+037812Y+045312
X+037812Y+044312
X+036812Y+044312
X+038812Y+044312
X+038812Y+045312
X+039812Y+045312
X+040812Y+045312
X+040812Y+044312
X+039812Y+044312
X+041812Y+044312
X+041812Y+045312
X+042812Y+046312
X+043812Y+046312
X+043812Y+047312
X+042812Y+047312
X+042812Y+048312
X+043812Y+048312
X+043812Y+049312
X+042812Y+049312
X+042812Y+050312
X+043812Y+050312
X+043812Y+051312
X+042812Y+051312
X+042812Y+052312
X+043812Y+052312
X+043812Y+053312
X+042812Y+053312
X+042812Y+054312
X+043812Y+054312
X+043812Y+055312
X+042812Y+055312
X+042812Y+056312
X+043812Y+056312
X+043812Y+057312
X+042812Y+057312
X+042812Y+058312
X+042812Y+059312
X+043812Y+059312
X+043812Y+058312
X+043812Y+060312
X+042812Y+060312
X+042812Y+061312
X+043812Y+061312
X+043812Y+062312
X+042812Y+062312
X+042812Y+063312
X+043812Y+063312
T07
X+007937Y+016937
X+007937Y+018937
X+007937Y+020937
X+007937Y+022937
X+007937Y+024937
X+007937Y+026937
X+007937Y+028937
X+007937Y+030937
X+007937Y+032937
X+007937Y+034937
X+007937Y+038937
X+007937Y+040937
X+007937Y+042937
X+007937Y+044937
X+007937Y+046937
X+007937Y+048937
X+007937Y+050937
X+007937Y+052937
X+007937Y+054937
X+007937Y+056937
X+007937Y+058937
X+007937Y+060937
X+007937Y+062937
X+007937Y+064937
X+007937Y+066937
X+007937Y+068937
T08
X+036062Y+011687
X+036062Y+019104
T09
X+008020Y+008575
X+008020Y+013315
T10
X+021654Y+080315
X+056693Y+080315
X+056693Y+006299
X+021654Y+006299
T11
X+038312Y+071937
X+038312Y+027437
T00
M30
