G04 DipTrace 3.3.1.3*
G04 TopMask.gbr*
%MOIN*%
G04 #@! TF.FileFunction,Soldermask,Top*
G04 #@! TF.Part,Single*
%ADD33R,0.066929X0.066929*%
%ADD34C,0.066929*%
%ADD35R,0.074803X0.074803*%
%ADD36C,0.074803*%
%ADD55C,0.15748*%
%ADD56C,0.629921*%
%ADD64C,0.070866*%
%ADD65R,0.031496X0.051181*%
%ADD69C,0.082677*%
%ADD72C,0.080709*%
%ADD74R,0.047244X0.042874*%
%ADD76R,0.047874X0.077874*%
%ADD82R,0.047244X0.051181*%
%ADD84R,0.051181X0.047244*%
%ADD86R,0.049213X0.033465*%
%ADD90C,0.137795*%
%ADD92C,0.070866*%
%ADD94C,0.082677*%
%ADD95R,0.082677X0.082677*%
%ADD96C,0.098425*%
%ADD97R,0.098425X0.098425*%
%ADD98R,0.023622X0.07874*%
%ADD102C,0.11811*%
%ADD104R,0.11811X0.11811*%
%ADD106R,0.070866X0.114173*%
%ADD108R,0.059055X0.066929*%
%ADD110R,0.070866X0.070866*%
%ADD112R,0.066929X0.059055*%
%FSLAX26Y26*%
G04*
G70*
G90*
G75*
G01*
G04 TopMask*
%LPD*%
D112*
X2512451Y8143698D3*
Y8068895D3*
X2612451Y8143698D3*
Y8068895D3*
X2712451Y8143698D3*
Y8068895D3*
X4556201Y818701D3*
Y893504D3*
D64*
X3212450Y1512451D3*
D110*
Y1312451D3*
D64*
X3881201Y1662451D3*
D110*
X4081201D3*
D108*
X4012450Y1412451D3*
X4087253D3*
D64*
X4849951Y1643701D3*
D110*
X4649951D3*
D64*
X1768701Y3712450D3*
D110*
X1568701D3*
D112*
X4562450Y1118701D3*
Y1043898D3*
Y1293701D3*
Y1218898D3*
D106*
X4662450Y1506201D3*
X4772686D3*
D112*
X4562450Y618701D3*
Y543898D3*
D108*
X993701Y1331201D3*
X918898D3*
X1412008Y616190D3*
X1486811D3*
X4506299Y5068799D3*
X4581102D3*
X5231201Y5074950D3*
X5306004D3*
X5187451Y2212451D3*
X5112648D3*
X5231201Y4524950D3*
X5306004D3*
X5206201Y5281201D3*
X5131398D3*
X5231201Y1924950D3*
X5306004D3*
X5174950Y6487451D3*
X5100147D3*
X5231201Y6212450D3*
X5306004D3*
X5199950Y5862450D3*
X5125147D3*
X5231201Y5624950D3*
X5306004D3*
D104*
X3606201Y1168701D3*
D102*
Y1910433D3*
D98*
X1743701Y1093701D3*
X1718110D3*
X1692520D3*
X1666929D3*
X1641339D3*
X1615748D3*
X1590157D3*
X1564567D3*
X1538976D3*
X1513386D3*
X1487795D3*
X1462205D3*
X1436614D3*
X1411024D3*
Y810228D3*
X1436614Y810236D3*
X1462205D3*
X1487795D3*
X1513386D3*
X1538976D3*
X1564567D3*
X1590157D3*
X1615748D3*
X1641339D3*
X1666929D3*
X1692520D3*
X1718110D3*
X1743701D3*
D55*
X2165354Y8031496D3*
X5669291D3*
X2165354Y629921D3*
X5669291D3*
D56*
X3831201Y7193701D3*
Y2743701D3*
D97*
X793701Y1693701D3*
D96*
Y1893701D3*
Y2093701D3*
Y2293701D3*
Y2493701D3*
Y2693701D3*
Y2893701D3*
Y3093701D3*
Y3293701D3*
Y3493701D3*
D35*
X1499950Y7762449D3*
D36*
Y7862449D3*
Y7962449D3*
D35*
X799951Y7293701D3*
D36*
Y7393701D3*
Y7493701D3*
Y7593701D3*
D95*
X2812451Y7874948D3*
D94*
X2712451D3*
X2612451D3*
X2512451D3*
D95*
X5743697Y7399951D3*
D94*
Y7499951D3*
Y7599951D3*
Y7699951D3*
D95*
X5743698Y2268701D3*
D94*
Y2368701D3*
Y2468701D3*
Y2568701D3*
D95*
X1824954Y7762451D3*
D94*
Y7662451D3*
D95*
X5743697Y3562450D3*
D94*
Y3662450D3*
Y3762450D3*
Y3862450D3*
D95*
Y2918701D3*
D94*
Y3018701D3*
Y3118701D3*
Y3218701D3*
D95*
Y6899950D3*
D94*
Y6999950D3*
Y7099950D3*
Y7199950D3*
D95*
X3212450Y1124949D3*
D94*
X3112450D3*
D95*
X4412448Y1137451D3*
D94*
Y1237451D3*
D95*
X2093701Y1393698D3*
D94*
X1993701D3*
D95*
X5321038Y4637451D3*
D94*
X5221038D3*
X5121038D3*
D95*
X5321038Y5182776D3*
D94*
X5221038D3*
X5121038D3*
D95*
X5321038Y6318701D3*
D94*
X5221038D3*
X5121038D3*
D95*
X5321038Y5743701D3*
D94*
X5221038D3*
X5121038D3*
D95*
X5320276Y2043701D3*
D94*
X5220276D3*
X5120276D3*
D95*
X5737450Y1449950D3*
D94*
Y1549950D3*
D95*
X1798377Y2862450D3*
D94*
X1898377D3*
X1998377D3*
D95*
X1798377Y2443701D3*
D94*
X1898377D3*
X1998377D3*
D110*
X987451Y1143701D3*
D92*
Y1045276D3*
X908711D3*
Y1143701D3*
D90*
X802018Y857480D3*
Y1331496D3*
D95*
X1798377Y2074951D3*
D94*
X1898377D3*
X1998377D3*
D95*
X1792126Y1699950D3*
D94*
X1892126D3*
X1992126D3*
D97*
X793701Y3893701D3*
D96*
Y4093701D3*
Y4293701D3*
Y4493701D3*
Y4693701D3*
Y4893701D3*
Y5093701D3*
Y5293701D3*
Y5493701D3*
Y5693701D3*
Y5893701D3*
Y6093701D3*
Y6293701D3*
Y6493701D3*
Y6693701D3*
Y6893701D3*
D95*
X1143701D3*
D94*
X1043701D3*
X943701D3*
D95*
X1143701Y6493701D3*
D94*
X1043701D3*
X943701D3*
D95*
X1143701Y6093701D3*
D94*
X1043701D3*
X943701D3*
D95*
X1143701Y5693701D3*
D94*
X1043701D3*
X943701D3*
D95*
X1143701Y5293701D3*
D94*
X1043701D3*
X943701D3*
D95*
X1143701Y4893701D3*
D94*
X1043701D3*
X943701D3*
D95*
X1143701Y4493701D3*
D94*
X1043701D3*
X943701D3*
D95*
X1143701Y4093701D3*
D94*
X1043701D3*
X943701D3*
D33*
X1743701Y6793701D3*
D34*
X1543701D3*
X1443701D3*
X1343701D3*
X1743701Y6993701D3*
X1543701D3*
X1443701D3*
X1343701D3*
D33*
X1743701Y6393701D3*
D34*
X1543701D3*
X1443701D3*
X1343701D3*
X1743701Y6593701D3*
X1543701D3*
X1443701D3*
X1343701D3*
D33*
X1743701Y5993701D3*
D34*
X1543701D3*
X1443701D3*
X1343701D3*
X1743701Y6193701D3*
X1543701D3*
X1443701D3*
X1343701D3*
D33*
X1743701Y5593701D3*
D34*
X1543701D3*
X1443701D3*
X1343701D3*
X1743701Y5793701D3*
X1543701D3*
X1443701D3*
X1343701D3*
D33*
X1743701Y5193701D3*
D34*
X1543701D3*
X1443701D3*
X1343701D3*
X1743701Y5393701D3*
X1543701D3*
X1443701D3*
X1343701D3*
D33*
X1743701Y4793701D3*
D34*
X1543701D3*
X1443701D3*
X1343701D3*
X1743701Y4993701D3*
X1543701D3*
X1443701D3*
X1343701D3*
D33*
X1743701Y4393701D3*
D34*
X1543701D3*
X1443701D3*
X1343701D3*
X1743701Y4593701D3*
X1543701D3*
X1443701D3*
X1343701D3*
D33*
X1743701Y3993701D3*
D34*
X1543701D3*
X1443701D3*
X1343701D3*
X1743701Y4193701D3*
X1543701D3*
X1443701D3*
X1343701D3*
D110*
X4218701Y1518701D3*
D92*
X4415551D3*
D86*
X5485925Y2506102D3*
Y2431299D3*
X5576476Y2468701D3*
X5492175Y7637353D3*
Y7562550D3*
X5582726Y7599951D3*
X5492175Y3799852D3*
Y3725049D3*
X5582726Y3762450D3*
X5492175Y3156102D3*
Y3081299D3*
X5582726Y3118701D3*
X5492175Y7137352D3*
Y7062549D3*
X5582726Y7099950D3*
X3893701Y1917913D3*
Y1843110D3*
X3984252Y1880512D3*
D84*
X5437451Y7631199D3*
X5370522D3*
D82*
X2593701Y6124950D3*
Y6058021D3*
D84*
X5468701Y2643701D3*
X5401772D3*
X5481201Y7268701D3*
X5414272D3*
X5481201Y3931201D3*
X5414272D3*
X5481201Y3318701D3*
X5414272D3*
D108*
X4012451Y1531201D3*
X4087255D3*
X3874951Y1412451D3*
X3949755D3*
D82*
X4112451Y1811663D3*
Y1878592D3*
D108*
X2206201Y1181201D3*
X2281004D3*
X2031201Y1106201D3*
X2106004D3*
D76*
X1698702Y2863699D3*
X1588584D3*
D74*
X1364201Y2576701D3*
Y2510236D3*
D76*
X912451Y1456201D3*
X1022570D3*
X1698701Y2438701D3*
X1588583D3*
D74*
X1287451Y2793701D3*
Y2860165D3*
D76*
X1698701Y2082450D3*
X1588583D3*
D74*
X1291951Y1766950D3*
Y1833415D3*
D76*
X1698702Y1701199D3*
X1588584D3*
D74*
X1324951Y1681201D3*
Y1614736D3*
D112*
X4581201Y4981201D3*
Y4906398D3*
D108*
X4506201Y5181201D3*
X4581004D3*
D112*
X5031201Y2206201D3*
Y2131398D3*
D108*
X5099950Y2387450D3*
X5025147D3*
D112*
X5031201Y5281201D3*
Y5206398D3*
D108*
X5106201Y5431201D3*
X5031398D3*
D112*
X5031201Y6481201D3*
Y6406398D3*
D108*
X5099950Y6693701D3*
X5025147D3*
D112*
X5031201Y5856201D3*
Y5781398D3*
D108*
X5099950Y6037450D3*
X5025147D3*
D72*
X2881201Y6331201D3*
X2781201D3*
Y6231201D3*
X2881201D3*
Y6131201D3*
X2781201D3*
Y6031201D3*
X2881201D3*
Y5931201D3*
X2781201D3*
Y5831201D3*
X2881201D3*
Y5731201D3*
X2781201D3*
Y5631201D3*
X2881201D3*
Y5531201D3*
X2781201D3*
Y5431201D3*
X2881201D3*
Y5331201D3*
X2781201D3*
Y5231201D3*
X2881201D3*
Y5131201D3*
X2781201D3*
Y5031201D3*
X2881201D3*
Y4931201D3*
X2781201D3*
Y4831201D3*
X2881201D3*
X3081201Y4431201D3*
Y4531201D3*
X3181201Y4431201D3*
Y4531201D3*
X3281201Y4431201D3*
Y4531201D3*
X3381201Y4431201D3*
Y4531201D3*
X3481201Y4431201D3*
Y4531201D3*
X3581201Y4431201D3*
Y4531201D3*
X3681201Y4431201D3*
Y4531201D3*
X3781201Y4431201D3*
Y4531201D3*
X3881201Y4431201D3*
Y4531201D3*
X3981201Y4431201D3*
Y4531201D3*
X4081201Y4431201D3*
Y4531201D3*
X4181201Y4431201D3*
Y4531201D3*
X4381201Y4631201D3*
X4281201D3*
X4381201Y4731201D3*
X4281201D3*
X4381201Y4831201D3*
X4281201D3*
X4381201Y4931201D3*
X4281201D3*
X4381201Y5031201D3*
X4281201D3*
X4381201Y5131201D3*
X4281201D3*
X4381201Y5231201D3*
X4281201D3*
X4381201Y5331201D3*
X4281201D3*
X4381201Y5431201D3*
X4281201D3*
X4381201Y5531201D3*
X4281201D3*
X4381201Y5631201D3*
X4281201D3*
X4381201Y5731201D3*
X4281201D3*
X4381201Y5831201D3*
X4281201D3*
X4381201Y5931201D3*
X4281201D3*
X4381201Y6031201D3*
X4281201D3*
X4381201Y6131201D3*
X4281201D3*
X4381201Y6231201D3*
X4281201D3*
X4381201Y6331201D3*
X4281201D3*
D69*
X4668702Y818701D3*
Y718701D3*
D95*
Y618701D3*
X3743701Y1305413D3*
D94*
X3810630Y1163681D3*
X3877559Y1305413D3*
X3944488Y1167618D3*
X4011417Y1305413D3*
D69*
X4668702Y1318701D3*
Y1218701D3*
D95*
Y1118701D3*
D65*
X1237451Y837451D3*
X1274853D3*
X1312255D3*
Y943751D3*
X1274853D3*
X1237451D3*
X1524951Y2862451D3*
X1487550D3*
X1450148D3*
Y2756152D3*
X1487550D3*
X1524951D3*
X1512451Y2437450D3*
X1475050D3*
X1437648D3*
Y2331151D3*
X1475050D3*
X1512451D3*
Y2087451D3*
X1475050D3*
X1437648D3*
Y1981152D3*
X1475050D3*
X1512451D3*
Y1706201D3*
X1475050D3*
X1437648D3*
Y1599902D3*
X1475050D3*
X1512451D3*
M02*
