G04 DipTrace 3.3.1.3*
G04 TopPaste.gbr*
%MOIN*%
G04 #@! TF.FileFunction,Paste,Top*
G04 #@! TF.Part,Single*
%ADD66R,0.015748X0.035433*%
%ADD75R,0.031496X0.027126*%
%ADD77R,0.032126X0.062126*%
%ADD83R,0.031496X0.035433*%
%ADD85R,0.035433X0.031496*%
%ADD87R,0.033465X0.017717*%
%ADD99R,0.007874X0.062992*%
%ADD107R,0.055118X0.098425*%
%ADD109R,0.043307X0.051181*%
%ADD113R,0.051181X0.043307*%
%FSLAX26Y26*%
G04*
G70*
G90*
G75*
G01*
G04 TopPaste*
%LPD*%
D113*
X2512451Y8143698D3*
Y8068895D3*
X2612451Y8143698D3*
Y8068895D3*
X2712451Y8143698D3*
Y8068895D3*
X4556201Y818701D3*
Y893504D3*
D109*
X4012450Y1412451D3*
X4087253D3*
D113*
X4562450Y1118701D3*
Y1043898D3*
Y1293701D3*
Y1218898D3*
D107*
X4662450Y1506201D3*
X4772686D3*
D113*
X4562450Y618701D3*
Y543898D3*
D109*
X993701Y1331201D3*
X918898D3*
X1412008Y616190D3*
X1486811D3*
X4506299Y5068799D3*
X4581102D3*
X5231201Y5074950D3*
X5306004D3*
X5187451Y2212451D3*
X5112648D3*
X5231201Y4524950D3*
X5306004D3*
X5206201Y5281201D3*
X5131398D3*
X5231201Y1924950D3*
X5306004D3*
X5174950Y6487451D3*
X5100147D3*
X5231201Y6212450D3*
X5306004D3*
X5199950Y5862450D3*
X5125147D3*
X5231201Y5624950D3*
X5306004D3*
D99*
X1743701Y1093701D3*
X1718110D3*
X1692520D3*
X1666929D3*
X1641339D3*
X1615748D3*
X1590157D3*
X1564567D3*
X1538976D3*
X1513386D3*
X1487795D3*
X1462205D3*
X1436614D3*
X1411024D3*
Y810228D3*
X1436614Y810236D3*
X1462205D3*
X1487795D3*
X1513386D3*
X1538976D3*
X1564567D3*
X1590157D3*
X1615748D3*
X1641339D3*
X1666929D3*
X1692520D3*
X1718110D3*
X1743701D3*
D87*
X5485925Y2506102D3*
Y2431299D3*
X5576476Y2468701D3*
X5492175Y7637353D3*
Y7562550D3*
X5582726Y7599951D3*
X5492175Y3799852D3*
Y3725049D3*
X5582726Y3762450D3*
X5492175Y3156102D3*
Y3081299D3*
X5582726Y3118701D3*
X5492175Y7137352D3*
Y7062549D3*
X5582726Y7099950D3*
X3893701Y1917913D3*
Y1843110D3*
X3984252Y1880512D3*
D85*
X5437451Y7631199D3*
X5370522D3*
D83*
X2593701Y6124950D3*
Y6058021D3*
D85*
X5468701Y2643701D3*
X5401772D3*
X5481201Y7268701D3*
X5414272D3*
X5481201Y3931201D3*
X5414272D3*
X5481201Y3318701D3*
X5414272D3*
D109*
X4012451Y1531201D3*
X4087255D3*
X3874951Y1412451D3*
X3949755D3*
D83*
X4112451Y1811663D3*
Y1878592D3*
D109*
X2206201Y1181201D3*
X2281004D3*
X2031201Y1106201D3*
X2106004D3*
D77*
X1698702Y2863699D3*
X1588584D3*
D75*
X1364201Y2576701D3*
Y2510236D3*
D77*
X912451Y1456201D3*
X1022570D3*
X1698701Y2438701D3*
X1588583D3*
D75*
X1287451Y2793701D3*
Y2860165D3*
D77*
X1698701Y2082450D3*
X1588583D3*
D75*
X1291951Y1766950D3*
Y1833415D3*
D77*
X1698702Y1701199D3*
X1588584D3*
D75*
X1324951Y1681201D3*
Y1614736D3*
D113*
X4581201Y4981201D3*
Y4906398D3*
D109*
X4506201Y5181201D3*
X4581004D3*
D113*
X5031201Y2206201D3*
Y2131398D3*
D109*
X5099950Y2387450D3*
X5025147D3*
D113*
X5031201Y5281201D3*
Y5206398D3*
D109*
X5106201Y5431201D3*
X5031398D3*
D113*
X5031201Y6481201D3*
Y6406398D3*
D109*
X5099950Y6693701D3*
X5025147D3*
D113*
X5031201Y5856201D3*
Y5781398D3*
D109*
X5099950Y6037450D3*
X5025147D3*
D66*
X1237451Y837451D3*
X1274853D3*
X1312255D3*
Y943751D3*
X1274853D3*
X1237451D3*
X1524951Y2862451D3*
X1487550D3*
X1450148D3*
Y2756152D3*
X1487550D3*
X1524951D3*
X1512451Y2437450D3*
X1475050D3*
X1437648D3*
Y2331151D3*
X1475050D3*
X1512451D3*
Y2087451D3*
X1475050D3*
X1437648D3*
Y1981152D3*
X1475050D3*
X1512451D3*
Y1706201D3*
X1475050D3*
X1437648D3*
Y1599902D3*
X1475050D3*
X1512451D3*
M02*
