G04 DipTrace 3.3.1.3*
G04 TopSilk.gbr*
%MOIN*%
G04 #@! TF.FileFunction,Legend,Top*
G04 #@! TF.Part,Single*
%ADD10C,0.009843*%
%ADD41C,0.015422*%
%ADD53C,0.015401*%
%ADD114C,0.004632*%
%FSLAX26Y26*%
G04*
G70*
G90*
G75*
G01*
G04 TopSilk*
%LPD*%
X4713238Y1456984D2*
D10*
Y1555417D1*
X4705789Y1456984D2*
Y1555417D1*
Y1456984D2*
X4729348D1*
X4705789Y1555417D2*
X4729348D1*
X1782087Y1046467D2*
X1372638D1*
X1782087Y857462D2*
X1372638D1*
Y1046467D2*
Y857462D1*
X1782087Y1046467D2*
Y979532D1*
Y924397D2*
Y857462D1*
Y979532D2*
G03X1782087Y924397I-3711J-27568D01*
G01*
D41*
X5471216Y2536951D3*
X5521358Y2527751D2*
D10*
Y2409646D1*
X5541043D1*
Y2527751D1*
X5521358D1*
D41*
X5477466Y7668202D3*
X5527608Y7659001D2*
D10*
Y7540896D1*
X5547293D1*
Y7659001D1*
X5527608D1*
D41*
X5477466Y3830701D3*
X5527608Y3821500D2*
D10*
Y3703395D1*
X5547293D1*
Y3821500D1*
X5527608D1*
D41*
X5477466Y3186951D3*
X5527608Y3177751D2*
D10*
Y3059646D1*
X5547293D1*
Y3177751D1*
X5527608D1*
D41*
X5477466Y7168201D3*
X5527608Y7159000D2*
D10*
Y7040895D1*
X5547293D1*
Y7159000D1*
X5527608D1*
D41*
X3878992Y1948762D3*
X3929134Y1939562D2*
D10*
Y1821457D1*
X3948819D1*
Y1939562D1*
X3929134D1*
X1655487Y2895164D2*
X1631919D1*
X1655487Y2832234D2*
X1631919D1*
X955666Y1424736D2*
X979235D1*
X955666Y1487666D2*
X979235D1*
X1655486Y2470166D2*
X1631918D1*
X1655486Y2407236D2*
X1631918D1*
X1655486Y2113915D2*
X1631918D1*
X1655486Y2050985D2*
X1631918D1*
X1655487Y1732664D2*
X1631919D1*
X1655487Y1669734D2*
X1631919D1*
D53*
X1210538Y820826D3*
X1215800Y874892D2*
D10*
X1333908D1*
X1215800Y906382D2*
X1333908D1*
Y874892D2*
Y906382D1*
X1215800Y874892D2*
Y906382D1*
D53*
X1551865Y2879077D3*
X1546603Y2825011D2*
D10*
X1428495D1*
X1546603Y2793521D2*
X1428495D1*
Y2825011D2*
Y2793521D1*
X1546603Y2825011D2*
Y2793521D1*
D53*
X1539365Y2454075D3*
X1534103Y2400010D2*
D10*
X1415995D1*
X1534103Y2368519D2*
X1415995D1*
Y2400010D2*
Y2368519D1*
X1534103Y2400010D2*
Y2368519D1*
D53*
X1539365Y2104077D3*
X1534103Y2050011D2*
D10*
X1415995D1*
X1534103Y2018521D2*
X1415995D1*
Y2050011D2*
Y2018521D1*
X1534103Y2050011D2*
Y2018521D1*
D53*
X1539365Y1722826D3*
X1534103Y1668761D2*
D10*
X1415995D1*
X1534103Y1637270D2*
X1415995D1*
Y1668761D2*
Y1637270D1*
X1534103Y1668761D2*
Y1637270D1*
X2501523Y8190834D2*
D114*
Y8179374D1*
X2514423Y8178233D1*
X2512997Y8179374D1*
X2511538Y8182822D1*
Y8186245D1*
X2512997Y8189693D1*
X2515849Y8192001D1*
X2520160Y8193142D1*
X2523012D1*
X2527323Y8192001D1*
X2530208Y8189693D1*
X2531634Y8186245D1*
Y8182822D1*
X2530208Y8179374D1*
X2528749Y8178233D1*
X2525897Y8177065D1*
X2511538Y8200553D2*
X2531634D1*
X2517275D2*
X2512964Y8204002D1*
X2511538Y8206310D1*
Y8209732D1*
X2512964Y8212040D1*
X2517275Y8213181D1*
X2531634D1*
X2501490Y8235528D2*
Y8220592D1*
X2531634D1*
X2515849D2*
Y8229771D1*
X2595274Y8190834D2*
Y8179374D1*
X2608174Y8178233D1*
X2606748Y8179374D1*
X2605289Y8182822D1*
Y8186245D1*
X2606748Y8189693D1*
X2609600Y8192001D1*
X2613911Y8193142D1*
X2616763D1*
X2621074Y8192001D1*
X2623959Y8189693D1*
X2625385Y8186245D1*
Y8182822D1*
X2623959Y8179374D1*
X2622500Y8178233D1*
X2619648Y8177065D1*
X2605289Y8200553D2*
X2625385D1*
X2611026D2*
X2606715Y8204002D1*
X2605289Y8206310D1*
Y8209732D1*
X2606715Y8212040D1*
X2611026Y8213181D1*
X2625385D1*
X2595241Y8235528D2*
Y8220592D1*
X2625385D1*
X2609600D2*
Y8229771D1*
X2701523Y8190834D2*
Y8179374D1*
X2714423Y8178233D1*
X2712997Y8179374D1*
X2711538Y8182822D1*
Y8186245D1*
X2712997Y8189693D1*
X2715849Y8192001D1*
X2720160Y8193142D1*
X2723012D1*
X2727323Y8192001D1*
X2730208Y8189693D1*
X2731634Y8186245D1*
Y8182822D1*
X2730208Y8179374D1*
X2728749Y8178233D1*
X2725897Y8177065D1*
X2711538Y8200553D2*
X2731634D1*
X2717275D2*
X2712964Y8204002D1*
X2711538Y8206310D1*
Y8209732D1*
X2712964Y8212040D1*
X2717275Y8213181D1*
X2731634D1*
X2701490Y8235528D2*
Y8220592D1*
X2731634D1*
X2715849D2*
Y8229771D1*
X4488510Y808544D2*
X4487050Y810852D1*
X4482773Y814300D1*
X4512883D1*
X4482773Y828609D2*
X4484199Y825160D1*
X4488510Y822852D1*
X4495673Y821711D1*
X4499984D1*
X4507146Y822852D1*
X4511457Y825160D1*
X4512883Y828609D1*
Y830890D1*
X4511457Y834339D1*
X4507146Y836621D1*
X4499984Y837788D1*
X4495673D1*
X4488510Y836621D1*
X4484199Y834339D1*
X4482773Y830890D1*
Y828609D1*
X4488510Y836621D2*
X4507146Y822852D1*
X4482773Y852096D2*
X4484199Y848648D1*
X4488510Y846340D1*
X4495673Y845199D1*
X4499984D1*
X4507146Y846340D1*
X4511457Y848648D1*
X4512883Y852096D1*
Y854378D1*
X4511457Y857827D1*
X4507146Y860108D1*
X4499984Y861276D1*
X4495673D1*
X4488510Y860108D1*
X4484199Y857827D1*
X4482773Y854378D1*
Y852096D1*
X4488510Y860108D2*
X4507146Y846340D1*
X4492787Y868686D2*
X4512883D1*
X4498524D2*
X4494213Y872135D1*
X4492787Y874443D1*
Y877866D1*
X4494213Y880174D1*
X4498524Y881314D1*
X4512883D1*
X4482739Y903661D2*
Y888725D1*
X4512883D1*
X4497098D2*
Y897904D1*
X4025780Y1480143D2*
X4028088Y1481602D1*
X4031537Y1485880D1*
Y1455769D1*
X4038948Y1475865D2*
Y1455769D1*
Y1470128D2*
X4042397Y1474439D1*
X4044705Y1475865D1*
X4048127D1*
X4050435Y1474439D1*
X4051576Y1470128D1*
Y1455769D1*
X4073923Y1485913D2*
X4058987D1*
Y1455769D1*
Y1471554D2*
X4068166D1*
X4494759Y1033740D2*
X4493300Y1036048D1*
X4489022Y1039497D1*
X4519133D1*
X4489022Y1053806D2*
X4490448Y1050357D1*
X4494759Y1048049D1*
X4501922Y1046908D1*
X4506233D1*
X4513396Y1048049D1*
X4517707Y1050357D1*
X4519133Y1053806D1*
Y1056087D1*
X4517707Y1059536D1*
X4513396Y1061818D1*
X4506233Y1062985D1*
X4501922D1*
X4494759Y1061818D1*
X4490448Y1059536D1*
X4489022Y1056087D1*
Y1053806D1*
X4494759Y1061818D2*
X4513396Y1048049D1*
X4489022Y1077293D2*
X4490448Y1073845D1*
X4494759Y1071536D1*
X4501922Y1070396D1*
X4506233D1*
X4513396Y1071536D1*
X4517707Y1073844D1*
X4519133Y1077293D1*
Y1079575D1*
X4517707Y1083024D1*
X4513396Y1085305D1*
X4506233Y1086472D1*
X4501922D1*
X4494759Y1085305D1*
X4490448Y1083024D1*
X4489022Y1079575D1*
Y1077293D1*
X4494759Y1085305D2*
X4513396Y1071536D1*
X4499037Y1093883D2*
X4519133D1*
X4504774D2*
X4500463Y1097332D1*
X4499037Y1099640D1*
Y1103062D1*
X4500463Y1105371D1*
X4504774Y1106511D1*
X4519133D1*
X4488989Y1128858D2*
Y1113922D1*
X4519133D1*
X4503348D2*
Y1123101D1*
X4494759Y1208740D2*
X4493300Y1211048D1*
X4489022Y1214497D1*
X4519133D1*
X4489022Y1228806D2*
X4490448Y1225357D1*
X4494759Y1223049D1*
X4501922Y1221908D1*
X4506233D1*
X4513396Y1223049D1*
X4517707Y1225357D1*
X4519133Y1228806D1*
Y1231087D1*
X4517707Y1234536D1*
X4513396Y1236818D1*
X4506233Y1237985D1*
X4501922D1*
X4494759Y1236818D1*
X4490448Y1234536D1*
X4489022Y1231087D1*
Y1228806D1*
X4494759Y1236818D2*
X4513396Y1223049D1*
X4489022Y1252293D2*
X4490448Y1248845D1*
X4494759Y1246536D1*
X4501922Y1245396D1*
X4506233D1*
X4513396Y1246536D1*
X4517707Y1248844D1*
X4519133Y1252293D1*
Y1254575D1*
X4517707Y1258024D1*
X4513396Y1260305D1*
X4506233Y1261472D1*
X4501922D1*
X4494759Y1260305D1*
X4490448Y1258024D1*
X4489022Y1254575D1*
Y1252293D1*
X4494759Y1260305D2*
X4513396Y1246536D1*
X4499037Y1268883D2*
X4519133D1*
X4504774D2*
X4500463Y1272332D1*
X4499037Y1274640D1*
Y1278062D1*
X4500463Y1280371D1*
X4504774Y1281511D1*
X4519133D1*
X4488989Y1303858D2*
Y1288922D1*
X4519133D1*
X4503348D2*
Y1298101D1*
X4684011Y1421088D2*
Y1422514D1*
X4685152Y1425399D1*
X4686293Y1426825D1*
X4688601Y1428251D1*
X4693190D1*
X4695472Y1426825D1*
X4696613Y1425399D1*
X4697780Y1422514D1*
Y1419662D1*
X4696613Y1416777D1*
X4694331Y1412499D1*
X4682844Y1398140D1*
X4698921D1*
X4707499Y1421088D2*
Y1422514D1*
X4708640Y1425399D1*
X4709780Y1426825D1*
X4712088Y1428251D1*
X4716678D1*
X4718959Y1426825D1*
X4720100Y1425399D1*
X4721268Y1422514D1*
Y1419662D1*
X4720100Y1416777D1*
X4717819Y1412499D1*
X4706331Y1398140D1*
X4722408D1*
X4729819Y1418236D2*
Y1403877D1*
X4730960Y1399599D1*
X4733268Y1398140D1*
X4736717D1*
X4738998Y1399599D1*
X4742447Y1403877D1*
Y1418236D2*
Y1398140D1*
X4764794Y1428284D2*
X4749858D1*
Y1398140D1*
Y1413925D2*
X4759037D1*
X4494759Y533740D2*
X4493300Y536048D1*
X4489022Y539497D1*
X4519133D1*
X4489022Y553806D2*
X4490448Y550357D1*
X4494759Y548049D1*
X4501922Y546908D1*
X4506233D1*
X4513396Y548049D1*
X4517707Y550357D1*
X4519133Y553806D1*
Y556087D1*
X4517707Y559536D1*
X4513396Y561818D1*
X4506233Y562985D1*
X4501922D1*
X4494759Y561818D1*
X4490448Y559536D1*
X4489022Y556087D1*
Y553806D1*
X4494759Y561818D2*
X4513396Y548049D1*
X4489022Y577293D2*
X4490448Y573845D1*
X4494759Y571536D1*
X4501922Y570396D1*
X4506233D1*
X4513396Y571536D1*
X4517707Y573844D1*
X4519133Y577293D1*
Y579575D1*
X4517707Y583024D1*
X4513396Y585305D1*
X4506233Y586472D1*
X4501922D1*
X4494759Y585305D1*
X4490448Y583024D1*
X4489022Y579575D1*
Y577293D1*
X4494759Y585305D2*
X4513396Y571536D1*
X4499037Y593883D2*
X4519133D1*
X4504774D2*
X4500463Y597332D1*
X4499037Y599640D1*
Y603062D1*
X4500463Y605371D1*
X4504774Y606511D1*
X4519133D1*
X4488989Y628858D2*
Y613922D1*
X4519133D1*
X4503348D2*
Y623101D1*
X922161Y1403727D2*
Y1405153D1*
X923302Y1408038D1*
X924443Y1409464D1*
X926751Y1410890D1*
X931340D1*
X933622Y1409464D1*
X934763Y1408038D1*
X935930Y1405153D1*
Y1402301D1*
X934763Y1399416D1*
X932481Y1395138D1*
X920994Y1380779D1*
X937071D1*
X951379Y1410890D2*
X947930Y1409464D1*
X945622Y1405153D1*
X944481Y1397990D1*
Y1393679D1*
X945622Y1386516D1*
X947930Y1382205D1*
X951379Y1380779D1*
X953661D1*
X957109Y1382205D1*
X959391Y1386516D1*
X960558Y1393679D1*
Y1397990D1*
X959391Y1405153D1*
X957109Y1409464D1*
X953661Y1410890D1*
X951379D1*
X959391Y1405153D2*
X945622Y1386516D1*
X967969Y1400875D2*
Y1370731D1*
Y1396564D2*
X970277Y1399416D1*
X972559Y1400875D1*
X976007D1*
X978316Y1399416D1*
X980597Y1396564D1*
X981764Y1392253D1*
Y1389368D1*
X980597Y1385090D1*
X978316Y1382205D1*
X976007Y1380779D1*
X972559D1*
X970277Y1382205D1*
X967969Y1385090D1*
X1004111Y1410923D2*
X989175D1*
Y1380779D1*
Y1396564D2*
X998354D1*
X1415633Y695869D2*
X1412184Y694443D1*
X1409876Y690132D1*
X1408735Y682969D1*
Y678658D1*
X1409876Y671495D1*
X1412184Y667184D1*
X1415633Y665758D1*
X1417914D1*
X1421363Y667184D1*
X1423644Y671495D1*
X1424812Y678658D1*
Y682969D1*
X1423644Y690132D1*
X1421363Y694443D1*
X1417914Y695869D1*
X1415633D1*
X1423644Y690132D2*
X1409876Y671495D1*
X1433363Y668643D2*
X1432223Y667184D1*
X1433363Y665758D1*
X1434531Y667184D1*
X1433363Y668643D1*
X1441941Y690132D2*
X1444249Y691591D1*
X1447698Y695869D1*
Y665758D1*
X1455109Y685854D2*
Y671495D1*
X1456250Y667217D1*
X1458558Y665758D1*
X1462007D1*
X1464288Y667217D1*
X1467737Y671495D1*
Y685854D2*
Y665758D1*
X1490084Y695902D2*
X1475148D1*
Y665758D1*
Y681543D2*
X1484327D1*
X4638814Y5055867D2*
Y5085978D1*
X4627327Y5065915D1*
X4644544D1*
X4656545Y5055867D2*
X4668032Y5085978D1*
X4651955D1*
X4682340D2*
X4678891Y5084552D1*
X4676583Y5080241D1*
X4675443Y5073078D1*
Y5068767D1*
X4676583Y5061604D1*
X4678891Y5057293D1*
X4682340Y5055867D1*
X4684622D1*
X4688071Y5057293D1*
X4690352Y5061604D1*
X4691519Y5068767D1*
Y5073078D1*
X4690352Y5080241D1*
X4688071Y5084552D1*
X4684622Y5085978D1*
X4682340D1*
X4690352Y5080241D2*
X4676583Y5061604D1*
X4698930Y5075963D2*
Y5045819D1*
Y5071652D2*
X4701238Y5074504D1*
X4703520Y5075963D1*
X4706969D1*
X4709277Y5074504D1*
X4711558Y5071652D1*
X4712726Y5067341D1*
Y5064456D1*
X4711558Y5060178D1*
X4709277Y5057293D1*
X4706969Y5055867D1*
X4703520D1*
X4701238Y5057293D1*
X4698930Y5060178D1*
X4735072Y5086011D2*
X4720136D1*
Y5055867D1*
Y5071652D2*
X4729316D1*
X5394531Y5080141D2*
X5396839Y5081601D1*
X5400288Y5085878D1*
Y5055768D1*
X5407699Y5075864D2*
Y5061505D1*
X5408840Y5057227D1*
X5411148Y5055768D1*
X5414596D1*
X5416878Y5057227D1*
X5420327Y5061505D1*
Y5075864D2*
Y5055768D1*
X5442674Y5085912D2*
X5427738D1*
Y5055768D1*
Y5071553D2*
X5436917D1*
X5107664Y2255769D2*
Y2285880D1*
X5096177Y2265817D1*
X5113395D1*
X5125395Y2255769D2*
X5136882Y2285880D1*
X5120805D1*
X5151191D2*
X5147742Y2284454D1*
X5145434Y2280143D1*
X5144293Y2272980D1*
Y2268669D1*
X5145434Y2261506D1*
X5147742Y2257195D1*
X5151191Y2255769D1*
X5153472D1*
X5156921Y2257195D1*
X5159203Y2261506D1*
X5160370Y2268669D1*
Y2272980D1*
X5159203Y2280143D1*
X5156921Y2284454D1*
X5153472Y2285880D1*
X5151191D1*
X5159203Y2280143D2*
X5145434Y2261506D1*
X5167781Y2275865D2*
Y2245721D1*
Y2271554D2*
X5170089Y2274406D1*
X5172370Y2275865D1*
X5175819D1*
X5178127Y2274406D1*
X5180409Y2271554D1*
X5181576Y2267243D1*
Y2264358D1*
X5180409Y2260080D1*
X5178127Y2257195D1*
X5175819Y2255769D1*
X5172370D1*
X5170089Y2257195D1*
X5167781Y2260080D1*
X5203923Y2285913D2*
X5188987D1*
Y2255769D1*
Y2271554D2*
X5198166D1*
X5382031Y4530141D2*
X5384339Y4531601D1*
X5387788Y4535878D1*
Y4505768D1*
X5395199Y4525864D2*
Y4511505D1*
X5396340Y4507227D1*
X5398648Y4505768D1*
X5402096D1*
X5404378Y4507227D1*
X5407827Y4511505D1*
Y4525864D2*
Y4505768D1*
X5430174Y4535912D2*
X5415238D1*
Y4505768D1*
Y4521553D2*
X5424417D1*
X5126414Y5324518D2*
Y5354629D1*
X5114926Y5334566D1*
X5132144D1*
X5144144Y5324518D2*
X5155631Y5354629D1*
X5139555D1*
X5169940D2*
X5166491Y5353203D1*
X5164183Y5348892D1*
X5163042Y5341729D1*
Y5337418D1*
X5164183Y5330255D1*
X5166491Y5325944D1*
X5169940Y5324518D1*
X5172222D1*
X5175670Y5325944D1*
X5177952Y5330255D1*
X5179119Y5337418D1*
Y5341729D1*
X5177952Y5348892D1*
X5175670Y5353203D1*
X5172222Y5354629D1*
X5169940D1*
X5177952Y5348892D2*
X5164183Y5330255D1*
X5186530Y5344614D2*
Y5314470D1*
Y5340303D2*
X5188838Y5343155D1*
X5191120Y5344614D1*
X5194568D1*
X5196876Y5343155D1*
X5199158Y5340303D1*
X5200325Y5335992D1*
Y5333107D1*
X5199158Y5328829D1*
X5196876Y5325944D1*
X5194568Y5324518D1*
X5191120D1*
X5188838Y5325944D1*
X5186530Y5328829D1*
X5222672Y5354662D2*
X5207736D1*
Y5324518D1*
Y5340303D2*
X5216915D1*
X5394531Y1930141D2*
X5396839Y1931601D1*
X5400288Y1935878D1*
Y1905768D1*
X5407699Y1925864D2*
Y1911505D1*
X5408840Y1907227D1*
X5411148Y1905768D1*
X5414596D1*
X5416878Y1907227D1*
X5420327Y1911505D1*
Y1925864D2*
Y1905768D1*
X5442674Y1935912D2*
X5427738D1*
Y1905768D1*
Y1921553D2*
X5436917D1*
X5082663Y6530769D2*
Y6560880D1*
X5071176Y6540817D1*
X5088393D1*
X5100394Y6530769D2*
X5111881Y6560880D1*
X5095804D1*
X5126189D2*
X5122741Y6559454D1*
X5120432Y6555143D1*
X5119292Y6547980D1*
Y6543669D1*
X5120432Y6536506D1*
X5122741Y6532195D1*
X5126189Y6530769D1*
X5128471D1*
X5131920Y6532195D1*
X5134201Y6536506D1*
X5135368Y6543669D1*
Y6547980D1*
X5134201Y6555143D1*
X5131920Y6559454D1*
X5128471Y6560880D1*
X5126189D1*
X5134201Y6555143D2*
X5120432Y6536506D1*
X5142779Y6550865D2*
Y6520721D1*
Y6546554D2*
X5145087Y6549406D1*
X5147369Y6550865D1*
X5150818D1*
X5153126Y6549406D1*
X5155407Y6546554D1*
X5156575Y6542243D1*
Y6539358D1*
X5155407Y6535080D1*
X5153126Y6532195D1*
X5150818Y6530769D1*
X5147369D1*
X5145087Y6532195D1*
X5142779Y6535080D1*
X5178921Y6560913D2*
X5163985D1*
Y6530769D1*
Y6546554D2*
X5173165D1*
X5375780Y6217641D2*
X5378088Y6219101D1*
X5381537Y6223378D1*
Y6193268D1*
X5388948Y6213364D2*
Y6199005D1*
X5390089Y6194727D1*
X5392397Y6193268D1*
X5395846D1*
X5398127Y6194727D1*
X5401576Y6199005D1*
Y6213364D2*
Y6193268D1*
X5423923Y6223412D2*
X5408987D1*
Y6193268D1*
Y6209053D2*
X5418166D1*
X5120163Y5905768D2*
Y5935878D1*
X5108676Y5915816D1*
X5125893D1*
X5137894Y5905768D2*
X5149381Y5935878D1*
X5133304D1*
X5163689D2*
X5160241Y5934452D1*
X5157932Y5930141D1*
X5156792Y5922978D1*
Y5918667D1*
X5157932Y5911505D1*
X5160241Y5907193D1*
X5163689Y5905768D1*
X5165971D1*
X5169420Y5907193D1*
X5171701Y5911505D1*
X5172868Y5918667D1*
Y5922978D1*
X5171701Y5930141D1*
X5169420Y5934452D1*
X5165971Y5935878D1*
X5163689D1*
X5171701Y5930141D2*
X5157932Y5911505D1*
X5180279Y5925864D2*
Y5895720D1*
Y5921553D2*
X5182587Y5924404D1*
X5184869Y5925864D1*
X5188318D1*
X5190626Y5924404D1*
X5192907Y5921553D1*
X5194075Y5917241D1*
Y5914356D1*
X5192907Y5910079D1*
X5190626Y5907193D1*
X5188318Y5905768D1*
X5184869D1*
X5182587Y5907193D1*
X5180279Y5910079D1*
X5216421Y5935912D2*
X5201485D1*
Y5905768D1*
Y5921553D2*
X5210665D1*
X5394531Y5630141D2*
X5396839Y5631601D1*
X5400288Y5635878D1*
Y5605768D1*
X5407699Y5625864D2*
Y5611505D1*
X5408840Y5607227D1*
X5411148Y5605768D1*
X5414596D1*
X5416878Y5607227D1*
X5420327Y5611505D1*
Y5625864D2*
Y5605768D1*
X5442674Y5635912D2*
X5427738D1*
Y5605768D1*
Y5621553D2*
X5436917D1*
X1428022Y1216819D2*
X1413086D1*
Y1186675D1*
Y1202460D2*
X1422265D1*
X1443471Y1216819D2*
Y1186675D1*
X1435433Y1216819D2*
X1451510D1*
X1460088Y1209623D2*
Y1211049D1*
X1461229Y1213934D1*
X1462369Y1215360D1*
X1464677Y1216786D1*
X1469267D1*
X1471548Y1215360D1*
X1472689Y1213934D1*
X1473857Y1211049D1*
Y1208197D1*
X1472689Y1205312D1*
X1470408Y1201034D1*
X1458920Y1186675D1*
X1474997D1*
X1484716Y1216786D2*
X1497318D1*
X1490447Y1205312D1*
X1493895D1*
X1496177Y1203886D1*
X1497318Y1202460D1*
X1498485Y1198149D1*
Y1195297D1*
X1497318Y1190986D1*
X1495036Y1188101D1*
X1491587Y1186675D1*
X1488138D1*
X1484716Y1188101D1*
X1483575Y1189560D1*
X1482408Y1192412D1*
X1507063Y1209623D2*
Y1211049D1*
X1508204Y1213934D1*
X1509345Y1215360D1*
X1511653Y1216786D1*
X1516242D1*
X1518524Y1215360D1*
X1519664Y1213934D1*
X1520832Y1211049D1*
Y1208197D1*
X1519664Y1205312D1*
X1517383Y1201034D1*
X1505896Y1186675D1*
X1521973D1*
X1529383Y1202460D2*
X1539703D1*
X1543152Y1203919D1*
X1544319Y1205345D1*
X1545460Y1208197D1*
Y1211082D1*
X1544319Y1213934D1*
X1543152Y1215393D1*
X1539703Y1216819D1*
X1529383D1*
Y1186675D1*
X1537422Y1202460D2*
X1545460Y1186675D1*
X1552871Y1216819D2*
Y1186675D1*
X1566640D1*
X5566664Y2432638D2*
Y2434064D1*
X5567805Y2436949D1*
X5568946Y2438375D1*
X5571254Y2439801D1*
X5575844D1*
X5578125Y2438375D1*
X5579266Y2436949D1*
X5580433Y2434064D1*
Y2431212D1*
X5579266Y2428327D1*
X5576984Y2424049D1*
X5565497Y2409690D1*
X5581574D1*
X5605062Y2439834D2*
Y2409690D1*
X5588985Y2439834D1*
Y2409690D1*
X5617062D2*
X5628549Y2439801D1*
X5612472D1*
X5642858D2*
X5639409Y2438375D1*
X5637101Y2434064D1*
X5635960Y2426901D1*
Y2422590D1*
X5637101Y2415427D1*
X5639409Y2411116D1*
X5642858Y2409690D1*
X5645139D1*
X5648588Y2411116D1*
X5650870Y2415427D1*
X5652037Y2422590D1*
Y2426901D1*
X5650870Y2434064D1*
X5648588Y2438375D1*
X5645139Y2439801D1*
X5642858D1*
X5650870Y2434064D2*
X5637101Y2415427D1*
X5666345Y2439801D2*
X5662896Y2438375D1*
X5660588Y2434064D1*
X5659448Y2426901D1*
Y2422590D1*
X5660588Y2415427D1*
X5662896Y2411116D1*
X5666345Y2409690D1*
X5668627D1*
X5672076Y2411116D1*
X5674357Y2415427D1*
X5675524Y2422590D1*
Y2426901D1*
X5674357Y2434064D1*
X5672076Y2438375D1*
X5668627Y2439801D1*
X5666345D1*
X5674357Y2434064D2*
X5660588Y2415427D1*
X5684103Y2432638D2*
Y2434064D1*
X5685243Y2436949D1*
X5686384Y2438375D1*
X5688692Y2439801D1*
X5693282D1*
X5695563Y2438375D1*
X5696704Y2436949D1*
X5697871Y2434064D1*
Y2431212D1*
X5696704Y2428327D1*
X5694423Y2424049D1*
X5682935Y2409690D1*
X5699012D1*
X5566664Y7570138D2*
Y7571564D1*
X5567805Y7574449D1*
X5568946Y7575875D1*
X5571254Y7577301D1*
X5575844D1*
X5578125Y7575875D1*
X5579266Y7574449D1*
X5580433Y7571564D1*
Y7568712D1*
X5579266Y7565827D1*
X5576984Y7561549D1*
X5565497Y7547190D1*
X5581574D1*
X5605062Y7577334D2*
Y7547190D1*
X5588985Y7577334D1*
Y7547190D1*
X5617062D2*
X5628549Y7577301D1*
X5612472D1*
X5642858D2*
X5639409Y7575875D1*
X5637101Y7571564D1*
X5635960Y7564401D1*
Y7560090D1*
X5637101Y7552927D1*
X5639409Y7548616D1*
X5642858Y7547190D1*
X5645139D1*
X5648588Y7548616D1*
X5650870Y7552927D1*
X5652037Y7560090D1*
Y7564401D1*
X5650870Y7571564D1*
X5648588Y7575875D1*
X5645139Y7577301D1*
X5642858D1*
X5650870Y7571564D2*
X5637101Y7552927D1*
X5666345Y7577301D2*
X5662896Y7575875D1*
X5660588Y7571564D1*
X5659448Y7564401D1*
Y7560090D1*
X5660588Y7552927D1*
X5662896Y7548616D1*
X5666345Y7547190D1*
X5668627D1*
X5672076Y7548616D1*
X5674357Y7552927D1*
X5675524Y7560090D1*
Y7564401D1*
X5674357Y7571564D1*
X5672076Y7575875D1*
X5668627Y7577301D1*
X5666345D1*
X5674357Y7571564D2*
X5660588Y7552927D1*
X5684103Y7570138D2*
Y7571564D1*
X5685243Y7574449D1*
X5686384Y7575875D1*
X5688692Y7577301D1*
X5693282D1*
X5695563Y7575875D1*
X5696704Y7574449D1*
X5697871Y7571564D1*
Y7568712D1*
X5696704Y7565827D1*
X5694423Y7561549D1*
X5682935Y7547190D1*
X5699012D1*
X5566664Y3726386D2*
Y3727812D1*
X5567805Y3730697D1*
X5568946Y3732123D1*
X5571254Y3733549D1*
X5575844D1*
X5578125Y3732123D1*
X5579266Y3730697D1*
X5580433Y3727812D1*
Y3724960D1*
X5579266Y3722075D1*
X5576984Y3717797D1*
X5565497Y3703438D1*
X5581574D1*
X5605062Y3733582D2*
Y3703438D1*
X5588985Y3733582D1*
Y3703438D1*
X5617062D2*
X5628549Y3733549D1*
X5612472D1*
X5642858D2*
X5639409Y3732123D1*
X5637101Y3727812D1*
X5635960Y3720649D1*
Y3716338D1*
X5637101Y3709175D1*
X5639409Y3704864D1*
X5642858Y3703438D1*
X5645139D1*
X5648588Y3704864D1*
X5650870Y3709175D1*
X5652037Y3716338D1*
Y3720649D1*
X5650870Y3727812D1*
X5648588Y3732123D1*
X5645139Y3733549D1*
X5642858D1*
X5650870Y3727812D2*
X5637101Y3709175D1*
X5666345Y3733549D2*
X5662896Y3732123D1*
X5660588Y3727812D1*
X5659448Y3720649D1*
Y3716338D1*
X5660588Y3709175D1*
X5662896Y3704864D1*
X5666345Y3703438D1*
X5668627D1*
X5672076Y3704864D1*
X5674357Y3709175D1*
X5675524Y3716338D1*
Y3720649D1*
X5674357Y3727812D1*
X5672076Y3732123D1*
X5668627Y3733549D1*
X5666345D1*
X5674357Y3727812D2*
X5660588Y3709175D1*
X5684103Y3726386D2*
Y3727812D1*
X5685243Y3730697D1*
X5686384Y3732123D1*
X5688692Y3733549D1*
X5693282D1*
X5695563Y3732123D1*
X5696704Y3730697D1*
X5697871Y3727812D1*
Y3724960D1*
X5696704Y3722075D1*
X5694423Y3717797D1*
X5682935Y3703438D1*
X5699012D1*
X5572914Y3082638D2*
Y3084064D1*
X5574054Y3086949D1*
X5575195Y3088375D1*
X5577503Y3089801D1*
X5582093D1*
X5584374Y3088375D1*
X5585515Y3086949D1*
X5586682Y3084064D1*
Y3081212D1*
X5585515Y3078327D1*
X5583234Y3074049D1*
X5571746Y3059690D1*
X5587823D1*
X5611311Y3089834D2*
Y3059690D1*
X5595234Y3089834D1*
Y3059690D1*
X5623311D2*
X5634799Y3089801D1*
X5618722D1*
X5649107D2*
X5645658Y3088375D1*
X5643350Y3084064D1*
X5642209Y3076901D1*
Y3072590D1*
X5643350Y3065427D1*
X5645658Y3061116D1*
X5649107Y3059690D1*
X5651389D1*
X5654837Y3061116D1*
X5657119Y3065427D1*
X5658286Y3072590D1*
Y3076901D1*
X5657119Y3084064D1*
X5654837Y3088375D1*
X5651389Y3089801D1*
X5649107D1*
X5657119Y3084064D2*
X5643350Y3065427D1*
X5672595Y3089801D2*
X5669146Y3088375D1*
X5666838Y3084064D1*
X5665697Y3076901D1*
Y3072590D1*
X5666838Y3065427D1*
X5669146Y3061116D1*
X5672595Y3059690D1*
X5674876D1*
X5678325Y3061116D1*
X5680607Y3065427D1*
X5681774Y3072590D1*
Y3076901D1*
X5680607Y3084064D1*
X5678325Y3088375D1*
X5674876Y3089801D1*
X5672595D1*
X5680607Y3084064D2*
X5666838Y3065427D1*
X5690352Y3082638D2*
Y3084064D1*
X5691493Y3086949D1*
X5692633Y3088375D1*
X5694942Y3089801D1*
X5699531D1*
X5701813Y3088375D1*
X5702953Y3086949D1*
X5704121Y3084064D1*
Y3081212D1*
X5702953Y3078327D1*
X5700672Y3074049D1*
X5689185Y3059690D1*
X5705261D1*
X5566664Y7063886D2*
Y7065312D1*
X5567805Y7068197D1*
X5568946Y7069623D1*
X5571254Y7071049D1*
X5575844D1*
X5578125Y7069623D1*
X5579266Y7068197D1*
X5580433Y7065312D1*
Y7062460D1*
X5579266Y7059575D1*
X5576984Y7055297D1*
X5565497Y7040938D1*
X5581574D1*
X5605062Y7071082D2*
Y7040938D1*
X5588985Y7071082D1*
Y7040938D1*
X5617062D2*
X5628549Y7071049D1*
X5612472D1*
X5642858D2*
X5639409Y7069623D1*
X5637101Y7065312D1*
X5635960Y7058149D1*
Y7053838D1*
X5637101Y7046675D1*
X5639409Y7042364D1*
X5642858Y7040938D1*
X5645139D1*
X5648588Y7042364D1*
X5650870Y7046675D1*
X5652037Y7053838D1*
Y7058149D1*
X5650870Y7065312D1*
X5648588Y7069623D1*
X5645139Y7071049D1*
X5642858D1*
X5650870Y7065312D2*
X5637101Y7046675D1*
X5666345Y7071049D2*
X5662896Y7069623D1*
X5660588Y7065312D1*
X5659448Y7058149D1*
Y7053838D1*
X5660588Y7046675D1*
X5662896Y7042364D1*
X5666345Y7040938D1*
X5668627D1*
X5672076Y7042364D1*
X5674357Y7046675D1*
X5675524Y7053838D1*
Y7058149D1*
X5674357Y7065312D1*
X5672076Y7069623D1*
X5668627Y7071049D1*
X5666345D1*
X5674357Y7065312D2*
X5660588Y7046675D1*
X5684103Y7063886D2*
Y7065312D1*
X5685243Y7068197D1*
X5686384Y7069623D1*
X5688692Y7071049D1*
X5693282D1*
X5695563Y7069623D1*
X5696704Y7068197D1*
X5697871Y7065312D1*
Y7062460D1*
X5696704Y7059575D1*
X5694423Y7055297D1*
X5682935Y7040938D1*
X5699012D1*
X3930691Y1994449D2*
Y1995875D1*
X3931831Y1998760D1*
X3932972Y2000186D1*
X3935280Y2001612D1*
X3939870D1*
X3942151Y2000186D1*
X3943292Y1998760D1*
X3944459Y1995875D1*
Y1993023D1*
X3943292Y1990138D1*
X3941011Y1985860D1*
X3929523Y1971501D1*
X3945600D1*
X3969088Y2001645D2*
Y1971501D1*
X3953011Y2001645D1*
Y1971501D1*
X3981088D2*
X3992575Y2001612D1*
X3976499D1*
X4006884D2*
X4003435Y2000186D1*
X4001127Y1995875D1*
X3999986Y1988712D1*
Y1984401D1*
X4001127Y1977238D1*
X4003435Y1972927D1*
X4006884Y1971501D1*
X4009165D1*
X4012614Y1972927D1*
X4014896Y1977238D1*
X4016063Y1984401D1*
Y1988712D1*
X4014896Y1995875D1*
X4012614Y2000186D1*
X4009165Y2001612D1*
X4006884D1*
X4014896Y1995875D2*
X4001127Y1977238D1*
X4030372Y2001612D2*
X4026923Y2000186D1*
X4024615Y1995875D1*
X4023474Y1988712D1*
Y1984401D1*
X4024615Y1977238D1*
X4026923Y1972927D1*
X4030372Y1971501D1*
X4032653D1*
X4036102Y1972927D1*
X4038383Y1977238D1*
X4039551Y1984401D1*
Y1988712D1*
X4038383Y1995875D1*
X4036102Y2000186D1*
X4032653Y2001612D1*
X4030372D1*
X4038383Y1995875D2*
X4024615Y1977238D1*
X4048129Y1994449D2*
Y1995875D1*
X4049270Y1998760D1*
X4050410Y2000186D1*
X4052718Y2001612D1*
X4057308D1*
X4059590Y2000186D1*
X4060730Y1998760D1*
X4061898Y1995875D1*
Y1993023D1*
X4060730Y1990138D1*
X4058449Y1985860D1*
X4046962Y1971501D1*
X4063038D1*
X5377621Y7689048D2*
X5379929Y7690507D1*
X5383378Y7694785D1*
Y7664674D1*
X5404557Y7694785D2*
X5393097D1*
X5391956Y7681885D1*
X5393097Y7683311D1*
X5396545Y7684770D1*
X5399968D1*
X5403416Y7683311D1*
X5405725Y7680459D1*
X5406865Y7676148D1*
Y7673296D1*
X5405725Y7668985D1*
X5403416Y7666100D1*
X5399968Y7664674D1*
X5396545D1*
X5393097Y7666100D1*
X5391956Y7667559D1*
X5390789Y7670411D1*
X5421174Y7694785D2*
X5417725Y7693359D1*
X5415417Y7689048D1*
X5414276Y7681885D1*
Y7677574D1*
X5415417Y7670411D1*
X5417725Y7666100D1*
X5421174Y7664674D1*
X5423455D1*
X5426904Y7666100D1*
X5429186Y7670411D1*
X5430353Y7677574D1*
Y7681885D1*
X5429186Y7689048D1*
X5426904Y7693359D1*
X5423455Y7694785D1*
X5421174D1*
X5429186Y7689048D2*
X5415417Y7670411D1*
X2517615Y6062268D2*
Y6074869D1*
X2529089Y6067998D1*
Y6071447D1*
X2530515Y6073728D1*
X2531941Y6074869D1*
X2536252Y6076036D1*
X2539104D1*
X2543415Y6074869D1*
X2546300Y6072588D1*
X2547726Y6069139D1*
Y6065690D1*
X2546300Y6062268D1*
X2544841Y6061127D1*
X2541989Y6059960D1*
X2517615Y6085755D2*
Y6098357D1*
X2529089Y6091486D1*
Y6094934D1*
X2530515Y6097216D1*
X2531941Y6098357D1*
X2536252Y6099524D1*
X2539104D1*
X2543415Y6098357D1*
X2546300Y6096075D1*
X2547726Y6092626D1*
Y6089178D1*
X2546300Y6085755D1*
X2544841Y6084614D1*
X2541989Y6083447D1*
X2517615Y6113832D2*
X2519041Y6110384D1*
X2523352Y6108076D1*
X2530515Y6106935D1*
X2534826D1*
X2541989Y6108076D1*
X2546300Y6110384D1*
X2547726Y6113832D1*
Y6116114D1*
X2546300Y6119563D1*
X2541989Y6121844D1*
X2534826Y6123012D1*
X2530515D1*
X2523352Y6121844D1*
X2519041Y6119563D1*
X2517615Y6116114D1*
Y6113832D1*
X2523352Y6121844D2*
X2541989Y6108076D1*
X5408870Y2701550D2*
X5411178Y2703009D1*
X5414627Y2707287D1*
Y2677176D1*
X5435807Y2707287D2*
X5424346D1*
X5423205Y2694387D1*
X5424346Y2695813D1*
X5427795Y2697272D1*
X5431217D1*
X5434666Y2695813D1*
X5436974Y2692961D1*
X5438115Y2688650D1*
Y2685798D1*
X5436974Y2681487D1*
X5434666Y2678602D1*
X5431217Y2677176D1*
X5427795D1*
X5424346Y2678602D1*
X5423205Y2680061D1*
X5422038Y2682913D1*
X5452423Y2707287D2*
X5448974Y2705861D1*
X5446666Y2701550D1*
X5445525Y2694387D1*
Y2690076D1*
X5446666Y2682913D1*
X5448974Y2678602D1*
X5452423Y2677176D1*
X5454705D1*
X5458153Y2678602D1*
X5460435Y2682913D1*
X5461602Y2690076D1*
Y2694387D1*
X5460435Y2701550D1*
X5458153Y2705861D1*
X5454705Y2707287D1*
X5452423D1*
X5460435Y2701550D2*
X5446666Y2682913D1*
X5421370Y7326550D2*
X5423678Y7328009D1*
X5427127Y7332287D1*
Y7302176D1*
X5448307Y7332287D2*
X5436846D1*
X5435705Y7319387D1*
X5436846Y7320813D1*
X5440295Y7322272D1*
X5443717D1*
X5447166Y7320813D1*
X5449474Y7317961D1*
X5450615Y7313650D1*
Y7310798D1*
X5449474Y7306487D1*
X5447166Y7303602D1*
X5443717Y7302176D1*
X5440295D1*
X5436846Y7303602D1*
X5435705Y7305061D1*
X5434538Y7307913D1*
X5464923Y7332287D2*
X5461474Y7330861D1*
X5459166Y7326550D1*
X5458025Y7319387D1*
Y7315076D1*
X5459166Y7307913D1*
X5461474Y7303602D1*
X5464923Y7302176D1*
X5467205D1*
X5470653Y7303602D1*
X5472935Y7307913D1*
X5474102Y7315076D1*
Y7319387D1*
X5472935Y7326550D1*
X5470653Y7330861D1*
X5467205Y7332287D1*
X5464923D1*
X5472935Y7326550D2*
X5459166Y7307913D1*
X5421370Y3989050D2*
X5423678Y3990509D1*
X5427127Y3994787D1*
Y3964676D1*
X5448307Y3994787D2*
X5436846D1*
X5435705Y3981887D1*
X5436846Y3983313D1*
X5440295Y3984772D1*
X5443717D1*
X5447166Y3983313D1*
X5449474Y3980461D1*
X5450615Y3976150D1*
Y3973298D1*
X5449474Y3968987D1*
X5447166Y3966102D1*
X5443717Y3964676D1*
X5440295D1*
X5436846Y3966102D1*
X5435705Y3967561D1*
X5434538Y3970413D1*
X5464923Y3994787D2*
X5461474Y3993361D1*
X5459166Y3989050D1*
X5458025Y3981887D1*
Y3977576D1*
X5459166Y3970413D1*
X5461474Y3966102D1*
X5464923Y3964676D1*
X5467205D1*
X5470653Y3966102D1*
X5472935Y3970413D1*
X5474102Y3977576D1*
Y3981887D1*
X5472935Y3989050D1*
X5470653Y3993361D1*
X5467205Y3994787D1*
X5464923D1*
X5472935Y3989050D2*
X5459166Y3970413D1*
X5421370Y3376550D2*
X5423678Y3378009D1*
X5427127Y3382287D1*
Y3352176D1*
X5448307Y3382287D2*
X5436846D1*
X5435705Y3369387D1*
X5436846Y3370813D1*
X5440295Y3372272D1*
X5443717D1*
X5447166Y3370813D1*
X5449474Y3367961D1*
X5450615Y3363650D1*
Y3360798D1*
X5449474Y3356487D1*
X5447166Y3353602D1*
X5443717Y3352176D1*
X5440295D1*
X5436846Y3353602D1*
X5435705Y3355061D1*
X5434538Y3357913D1*
X5464923Y3382287D2*
X5461474Y3380861D1*
X5459166Y3376550D1*
X5458025Y3369387D1*
Y3365076D1*
X5459166Y3357913D1*
X5461474Y3353602D1*
X5464923Y3352176D1*
X5467205D1*
X5470653Y3353602D1*
X5472935Y3357913D1*
X5474102Y3365076D1*
Y3369387D1*
X5472935Y3376550D1*
X5470653Y3380861D1*
X5467205Y3382287D1*
X5464923D1*
X5472935Y3376550D2*
X5459166Y3357913D1*
X4011743Y1598892D2*
X4014051Y1600351D1*
X4017500Y1604629D1*
Y1574518D1*
X4038680Y1604629D2*
X4027219D1*
X4026078Y1591729D1*
X4027219Y1593155D1*
X4030668Y1594614D1*
X4034090D1*
X4037539Y1593155D1*
X4039847Y1590303D1*
X4040988Y1585992D1*
Y1583140D1*
X4039847Y1578829D1*
X4037539Y1575944D1*
X4034090Y1574518D1*
X4030668D1*
X4027219Y1575944D1*
X4026078Y1577403D1*
X4024911Y1580255D1*
X4055296Y1604629D2*
X4051847Y1603203D1*
X4049539Y1598892D1*
X4048398Y1591729D1*
Y1587418D1*
X4049539Y1580255D1*
X4051847Y1575944D1*
X4055296Y1574518D1*
X4057578D1*
X4061026Y1575944D1*
X4063308Y1580255D1*
X4064475Y1587418D1*
Y1591729D1*
X4063308Y1598892D1*
X4061026Y1603203D1*
X4057578Y1604629D1*
X4055296D1*
X4063308Y1598892D2*
X4049539Y1580255D1*
X4071886Y1604662D2*
Y1574518D1*
X4087963Y1604662D2*
X4071886Y1584566D1*
X4077616Y1591762D2*
X4087963Y1574518D1*
X3879738Y1486393D2*
X3882046Y1487852D1*
X3885494Y1492130D1*
Y1462020D1*
X3899803Y1492130D2*
X3896354Y1490704D1*
X3894046Y1486393D1*
X3892905Y1479230D1*
Y1474919D1*
X3894046Y1467756D1*
X3896354Y1463445D1*
X3899803Y1462020D1*
X3902084D1*
X3905533Y1463445D1*
X3907815Y1467756D1*
X3908982Y1474919D1*
Y1479230D1*
X3907815Y1486393D1*
X3905533Y1490704D1*
X3902084Y1492130D1*
X3899803D1*
X3907815Y1486393D2*
X3894046Y1467756D1*
X3916393Y1492164D2*
Y1462020D1*
X3932470Y1492164D2*
X3916393Y1472068D1*
X3922123Y1479264D2*
X3932470Y1462020D1*
X4178977Y1824518D2*
X4148866D1*
X4168929Y1813031D1*
Y1830249D1*
X4148833Y1837659D2*
X4178977D1*
X4148833Y1853736D2*
X4168929Y1837659D1*
X4161733Y1843390D2*
X4178977Y1853736D1*
Y1865737D2*
X4148866Y1877224D1*
Y1861147D1*
X2214384Y1254629D2*
X2226986D1*
X2220115Y1243155D1*
X2223564D1*
X2225845Y1241729D1*
X2226986Y1240303D1*
X2228153Y1235992D1*
Y1233140D1*
X2226986Y1228829D1*
X2224704Y1225944D1*
X2221255Y1224518D1*
X2217807D1*
X2214384Y1225944D1*
X2213244Y1227403D1*
X2212076Y1230255D1*
X2237872Y1254629D2*
X2250473D1*
X2243602Y1243155D1*
X2247051D1*
X2249333Y1241729D1*
X2250473Y1240303D1*
X2251641Y1235992D1*
Y1233140D1*
X2250473Y1228829D1*
X2248192Y1225944D1*
X2244743Y1224518D1*
X2241294D1*
X2237872Y1225944D1*
X2236731Y1227403D1*
X2235564Y1230255D1*
X2265949Y1254629D2*
X2262500Y1253203D1*
X2260192Y1248892D1*
X2259052Y1241729D1*
Y1237418D1*
X2260192Y1230255D1*
X2262500Y1225944D1*
X2265949Y1224518D1*
X2268231D1*
X2271680Y1225944D1*
X2273961Y1230255D1*
X2275128Y1237418D1*
Y1241729D1*
X2273961Y1248892D1*
X2271680Y1253203D1*
X2268231Y1254629D1*
X2265949D1*
X2273961Y1248892D2*
X2260192Y1230255D1*
X2033134Y1173378D2*
X2045735D1*
X2038864Y1161904D1*
X2042313D1*
X2044594Y1160478D1*
X2045735Y1159053D1*
X2046902Y1154741D1*
Y1151890D1*
X2045735Y1147579D1*
X2043454Y1144693D1*
X2040005Y1143268D1*
X2036556D1*
X2033134Y1144693D1*
X2031993Y1146153D1*
X2030826Y1149005D1*
X2056621Y1173378D2*
X2069223D1*
X2062352Y1161904D1*
X2065801D1*
X2068082Y1160478D1*
X2069223Y1159053D1*
X2070390Y1154741D1*
Y1151890D1*
X2069223Y1147579D1*
X2066941Y1144693D1*
X2063492Y1143268D1*
X2060044D1*
X2056621Y1144693D1*
X2055481Y1146153D1*
X2054313Y1149005D1*
X2084699Y1173378D2*
X2081250Y1171952D1*
X2078942Y1167641D1*
X2077801Y1160478D1*
Y1156167D1*
X2078942Y1149005D1*
X2081250Y1144693D1*
X2084699Y1143268D1*
X2086980D1*
X2090429Y1144693D1*
X2092710Y1149005D1*
X2093878Y1156167D1*
Y1160478D1*
X2092710Y1167641D1*
X2090429Y1171952D1*
X2086980Y1173378D1*
X2084699D1*
X2092710Y1167641D2*
X2078942Y1149005D1*
X1610535Y2912488D2*
Y2942599D1*
X1599048Y2922536D1*
X1616265D1*
X1628266Y2912488D2*
X1639753Y2942599D1*
X1623676D1*
X1654062D2*
X1650613Y2941173D1*
X1648305Y2936862D1*
X1647164Y2929699D1*
Y2925388D1*
X1648305Y2918225D1*
X1650613Y2913914D1*
X1654062Y2912488D1*
X1656343D1*
X1659792Y2913914D1*
X1662073Y2918225D1*
X1663241Y2925388D1*
Y2929699D1*
X1662073Y2936862D1*
X1659792Y2941173D1*
X1656343Y2942599D1*
X1654062D1*
X1662073Y2936862D2*
X1648305Y2918225D1*
X1273907Y2526008D2*
Y2556119D1*
X1262419Y2536056D1*
X1279637D1*
X1287048Y2556152D2*
Y2526008D1*
X1303125Y2556152D2*
X1287048Y2536056D1*
X1292778Y2543252D2*
X1303125Y2526008D1*
X1315125D2*
X1326612Y2556119D1*
X1310535D1*
X945502Y1523114D2*
X947810Y1524573D1*
X951259Y1528851D1*
Y1498740D1*
X977028D2*
Y1528884D1*
X967849Y1498740D1*
X958670Y1528884D1*
Y1498740D1*
X1620907Y2495355D2*
Y2525466D1*
X1609419Y2505403D1*
X1626637D1*
X1638637Y2495355D2*
X1650125Y2525466D1*
X1634048D1*
X1664433D2*
X1660984Y2524040D1*
X1658676Y2519729D1*
X1657535Y2512566D1*
Y2508255D1*
X1658676Y2501092D1*
X1660984Y2496781D1*
X1664433Y2495355D1*
X1666715D1*
X1670163Y2496781D1*
X1672445Y2501092D1*
X1673612Y2508255D1*
Y2512566D1*
X1672445Y2519729D1*
X1670163Y2524040D1*
X1666715Y2525466D1*
X1664433D1*
X1672445Y2519729D2*
X1658676Y2501092D1*
X1197156Y2815723D2*
Y2845834D1*
X1185669Y2825771D1*
X1202886D1*
X1210297Y2845867D2*
Y2815723D1*
X1226374Y2845867D2*
X1210297Y2825771D1*
X1216027Y2832967D2*
X1226374Y2815723D1*
X1238374D2*
X1249862Y2845834D1*
X1233785D1*
X1623033Y2137491D2*
Y2167601D1*
X1611545Y2147539D1*
X1628763D1*
X1640763Y2137491D2*
X1652251Y2167601D1*
X1636174D1*
X1666559D2*
X1663110Y2166176D1*
X1660802Y2161864D1*
X1659661Y2154702D1*
Y2150391D1*
X1660802Y2143228D1*
X1663110Y2138917D1*
X1666559Y2137491D1*
X1668841D1*
X1672289Y2138917D1*
X1674571Y2143228D1*
X1675738Y2150391D1*
Y2154702D1*
X1674571Y2161864D1*
X1672289Y2166176D1*
X1668841Y2167601D1*
X1666559D1*
X1674571Y2161864D2*
X1660802Y2143228D1*
X1201657Y1776471D2*
Y1806582D1*
X1190170Y1786519D1*
X1207388D1*
X1214798Y1806615D2*
Y1776471D1*
X1230875Y1806615D2*
X1214798Y1786519D1*
X1220529Y1793715D2*
X1230875Y1776471D1*
X1242876D2*
X1254363Y1806582D1*
X1238286D1*
X1616784Y1762489D2*
Y1792600D1*
X1605297Y1772537D1*
X1622515D1*
X1634515Y1762489D2*
X1646002Y1792600D1*
X1629926D1*
X1660311D2*
X1656862Y1791174D1*
X1654554Y1786863D1*
X1653413Y1779700D1*
Y1775389D1*
X1654554Y1768226D1*
X1656862Y1763915D1*
X1660311Y1762489D1*
X1662592D1*
X1666041Y1763915D1*
X1668323Y1768226D1*
X1669490Y1775389D1*
Y1779700D1*
X1668323Y1786863D1*
X1666041Y1791174D1*
X1662592Y1792600D1*
X1660311D1*
X1668323Y1786863D2*
X1654554Y1768226D1*
X1240908Y1649260D2*
Y1679371D1*
X1229421Y1659308D1*
X1246638D1*
X1254049Y1679404D2*
Y1649260D1*
X1270126Y1679404D2*
X1254049Y1659308D1*
X1259779Y1666504D2*
X1270126Y1649260D1*
X1282126D2*
X1293613Y1679371D1*
X1277537D1*
X4640065Y4955537D2*
Y4956963D1*
X4641206Y4959848D1*
X4642347Y4961274D1*
X4644655Y4962700D1*
X4649244D1*
X4651526Y4961274D1*
X4652667Y4959848D1*
X4653834Y4956963D1*
Y4954111D1*
X4652667Y4951226D1*
X4650385Y4946948D1*
X4638898Y4932589D1*
X4654975D1*
X4666975D2*
X4678462Y4962700D1*
X4662385D1*
X4685873Y4962733D2*
Y4932589D1*
X4701950Y4962733D2*
X4685873Y4942637D1*
X4691603Y4949833D2*
X4701950Y4932589D1*
X4631993Y5184966D2*
Y5186392D1*
X4633134Y5189277D1*
X4634274Y5190703D1*
X4636583Y5192129D1*
X4641172D1*
X4643454Y5190703D1*
X4644594Y5189277D1*
X4645762Y5186392D1*
Y5183540D1*
X4644594Y5180655D1*
X4642313Y5176377D1*
X4630826Y5162018D1*
X4646902D1*
X4658903D2*
X4670390Y5192129D1*
X4654313D1*
X4677801Y5192162D2*
Y5162018D1*
X4693878Y5192162D2*
X4677801Y5172066D1*
X4683531Y5179262D2*
X4693878Y5162018D1*
X4964935Y2138441D2*
X4963510D1*
X4960624Y2139581D1*
X4959199Y2140722D1*
X4957773Y2143030D1*
Y2147620D1*
X4959199Y2149901D1*
X4960624Y2151042D1*
X4963510Y2152209D1*
X4966361D1*
X4969247Y2151042D1*
X4973524Y2148761D1*
X4987883Y2137273D1*
Y2153350D1*
Y2165350D2*
X4957773Y2176838D1*
Y2160761D1*
X4957739Y2184249D2*
X4987883Y2184248D1*
X4957739Y2200325D2*
X4977835Y2184248D1*
X4970639Y2189979D2*
X4987883Y2200325D1*
X5032190Y2453715D2*
Y2455141D1*
X5033331Y2458026D1*
X5034471Y2459452D1*
X5036779Y2460878D1*
X5041369D1*
X5043650Y2459452D1*
X5044791Y2458026D1*
X5045959Y2455141D1*
Y2452289D1*
X5044791Y2449404D1*
X5042510Y2445127D1*
X5031023Y2430768D1*
X5047099D1*
X5059100D2*
X5070587Y2460878D1*
X5054510D1*
X5077998Y2460912D2*
Y2430768D1*
X5094075Y2460912D2*
X5077998Y2440816D1*
X5083728Y2448012D2*
X5094075Y2430768D1*
X4964935Y5213441D2*
X4963510D1*
X4960624Y5214581D1*
X4959199Y5215722D1*
X4957773Y5218030D1*
Y5222620D1*
X4959199Y5224901D1*
X4960624Y5226042D1*
X4963510Y5227209D1*
X4966361D1*
X4969247Y5226042D1*
X4973524Y5223761D1*
X4987883Y5212273D1*
Y5228350D1*
Y5240350D2*
X4957773Y5251838D1*
Y5235761D1*
X4957739Y5259249D2*
X4987883Y5259248D1*
X4957739Y5275325D2*
X4977835Y5259248D1*
X4970639Y5264979D2*
X4987883Y5275325D1*
X5038440Y5497466D2*
Y5498892D1*
X5039581Y5501777D1*
X5040722Y5503203D1*
X5043030Y5504629D1*
X5047620D1*
X5049901Y5503203D1*
X5051042Y5501777D1*
X5052209Y5498892D1*
Y5496040D1*
X5051042Y5493155D1*
X5048760Y5488877D1*
X5037273Y5474518D1*
X5053350D1*
X5065350D2*
X5076838Y5504629D1*
X5060761D1*
X5084248Y5504662D2*
Y5474518D1*
X5100325Y5504662D2*
X5084248Y5484566D1*
X5089979Y5491762D2*
X5100325Y5474518D1*
X4964935Y6413441D2*
X4963510D1*
X4960624Y6414581D1*
X4959199Y6415722D1*
X4957773Y6418030D1*
Y6422620D1*
X4959199Y6424901D1*
X4960624Y6426042D1*
X4963510Y6427209D1*
X4966361D1*
X4969247Y6426042D1*
X4973524Y6423761D1*
X4987883Y6412273D1*
Y6428350D1*
Y6440350D2*
X4957773Y6451838D1*
Y6435761D1*
X4957739Y6459249D2*
X4987883Y6459248D1*
X4957739Y6475325D2*
X4977835Y6459248D1*
X4970639Y6464979D2*
X4987883Y6475325D1*
X5038440Y6759966D2*
Y6761392D1*
X5039581Y6764277D1*
X5040722Y6765703D1*
X5043030Y6767129D1*
X5047620D1*
X5049901Y6765703D1*
X5051042Y6764277D1*
X5052209Y6761392D1*
Y6758540D1*
X5051042Y6755655D1*
X5048760Y6751377D1*
X5037273Y6737018D1*
X5053350D1*
X5065350D2*
X5076838Y6767129D1*
X5060761D1*
X5084248Y6767162D2*
Y6737018D1*
X5100325Y6767162D2*
X5084248Y6747066D1*
X5089979Y6754262D2*
X5100325Y6737018D1*
X4964935Y5788441D2*
X4963510D1*
X4960624Y5789581D1*
X4959199Y5790722D1*
X4957773Y5793030D1*
Y5797620D1*
X4959199Y5799901D1*
X4960624Y5801042D1*
X4963510Y5802209D1*
X4966361D1*
X4969247Y5801042D1*
X4973524Y5798761D1*
X4987883Y5787273D1*
Y5803350D1*
Y5815350D2*
X4957773Y5826838D1*
Y5810761D1*
X4957739Y5834249D2*
X4987883Y5834248D1*
X4957739Y5850325D2*
X4977835Y5834248D1*
X4970639Y5839979D2*
X4987883Y5850325D1*
X5032190Y6103715D2*
Y6105141D1*
X5033331Y6108026D1*
X5034471Y6109452D1*
X5036779Y6110878D1*
X5041369D1*
X5043650Y6109452D1*
X5044791Y6108026D1*
X5045959Y6105141D1*
Y6102289D1*
X5044791Y6099404D1*
X5042510Y6095127D1*
X5031023Y6080768D1*
X5047099D1*
X5059100D2*
X5070587Y6110878D1*
X5054510D1*
X5077998Y6110912D2*
Y6080768D1*
X5094075Y6110912D2*
X5077998Y6090816D1*
X5083728Y6098012D2*
X5094075Y6080768D1*
X1212248Y789451D2*
Y767929D1*
X1213388Y763618D1*
X1215697Y760766D1*
X1219145Y759307D1*
X1221427D1*
X1224876Y760766D1*
X1227184Y763618D1*
X1228325Y767929D1*
Y789451D1*
X1251812Y785140D2*
X1249531Y788025D1*
X1246082Y789451D1*
X1241492D1*
X1238043Y788025D1*
X1235735Y785140D1*
Y782288D1*
X1236903Y779403D1*
X1238043Y777977D1*
X1240325Y776551D1*
X1247223Y773666D1*
X1249531Y772240D1*
X1250671Y770781D1*
X1251812Y767929D1*
Y763618D1*
X1249531Y760766D1*
X1246082Y759307D1*
X1241492D1*
X1238043Y760766D1*
X1235735Y763618D1*
X1259223Y789451D2*
Y759307D1*
X1269569D1*
X1273018Y760766D1*
X1274159Y762192D1*
X1275300Y765044D1*
Y769355D1*
X1274159Y772240D1*
X1273018Y773666D1*
X1269569Y775092D1*
X1273018Y776551D1*
X1274159Y777977D1*
X1275300Y780829D1*
Y783714D1*
X1274159Y786566D1*
X1273018Y788025D1*
X1269569Y789451D1*
X1259223D1*
Y775092D2*
X1269569D1*
X1282711Y789451D2*
Y759307D1*
X1296479D1*
X1321108Y782288D2*
X1319967Y785140D1*
X1317659Y788025D1*
X1315377Y789451D1*
X1310788D1*
X1308480Y788025D1*
X1306198Y785140D1*
X1305031Y782288D1*
X1303890Y777977D1*
Y770781D1*
X1305031Y766503D1*
X1306198Y763618D1*
X1308480Y760766D1*
X1310788Y759307D1*
X1315377D1*
X1317659Y760766D1*
X1319967Y763618D1*
X1321108Y766503D1*
X1342287Y785140D2*
X1341147Y787992D1*
X1337698Y789418D1*
X1335416D1*
X1331967Y787992D1*
X1329659Y783681D1*
X1328519Y776518D1*
Y769355D1*
X1329659Y763618D1*
X1331967Y760733D1*
X1335416Y759307D1*
X1336557D1*
X1339979Y760733D1*
X1342287Y763618D1*
X1343428Y767929D1*
Y769355D1*
X1342287Y773666D1*
X1339979Y776518D1*
X1336557Y777944D1*
X1335416D1*
X1331967Y776518D1*
X1329659Y773666D1*
X1328519Y769355D1*
X1422322Y2911928D2*
Y2942072D1*
X1413143Y2911928D1*
X1403964Y2942072D1*
Y2911928D1*
X1446951Y2934909D2*
X1445810Y2937761D1*
X1443502Y2940646D1*
X1441220Y2942072D1*
X1436631D1*
X1434323Y2940646D1*
X1432041Y2937761D1*
X1430874Y2934909D1*
X1429733Y2930598D1*
Y2923402D1*
X1430874Y2919124D1*
X1432041Y2916239D1*
X1434323Y2913387D1*
X1436631Y2911928D1*
X1441220D1*
X1443502Y2913387D1*
X1445810Y2916239D1*
X1446951Y2919124D1*
X1454361Y2926287D2*
X1464708D1*
X1468130Y2927713D1*
X1469297Y2929172D1*
X1470438Y2932024D1*
Y2936335D1*
X1469297Y2939187D1*
X1468130Y2940646D1*
X1464708Y2942072D1*
X1454361D1*
Y2911928D1*
X1489336D2*
Y2942038D1*
X1477849Y2921976D1*
X1495067D1*
X1507067Y2911928D2*
X1518554Y2942038D1*
X1502477D1*
X1527132Y2934876D2*
Y2936302D1*
X1528273Y2939187D1*
X1529414Y2940613D1*
X1531722Y2942038D1*
X1536312D1*
X1538593Y2940613D1*
X1539734Y2939187D1*
X1540901Y2936302D1*
Y2933450D1*
X1539734Y2930565D1*
X1537452Y2926287D1*
X1525965Y2911928D1*
X1542042D1*
X1563222Y2942038D2*
X1551761D1*
X1550620Y2929139D1*
X1551761Y2930565D1*
X1555210Y2932024D1*
X1558632D1*
X1562081Y2930565D1*
X1564389Y2927713D1*
X1565530Y2923402D1*
Y2920550D1*
X1564389Y2916239D1*
X1562081Y2913354D1*
X1558632Y2911928D1*
X1555210D1*
X1551761Y2913354D1*
X1550620Y2914813D1*
X1549453Y2917665D1*
X1422321Y2486924D2*
Y2517068D1*
X1413142Y2486924D1*
X1403963Y2517068D1*
Y2486924D1*
X1446949Y2509905D2*
X1445809Y2512757D1*
X1443500Y2515642D1*
X1441219Y2517068D1*
X1436629D1*
X1434321Y2515642D1*
X1432040Y2512757D1*
X1430872Y2509905D1*
X1429732Y2505594D1*
Y2498398D1*
X1430872Y2494120D1*
X1432040Y2491235D1*
X1434321Y2488383D1*
X1436629Y2486924D1*
X1441219D1*
X1443500Y2488383D1*
X1445809Y2491235D1*
X1446949Y2494120D1*
X1454360Y2501283D2*
X1464707D1*
X1468129Y2502709D1*
X1469296Y2504168D1*
X1470437Y2507020D1*
Y2511331D1*
X1469296Y2514183D1*
X1468129Y2515642D1*
X1464707Y2517068D1*
X1454360D1*
Y2486924D1*
X1489335D2*
Y2517035D1*
X1477848Y2496972D1*
X1495065D1*
X1507066Y2486924D2*
X1518553Y2517035D1*
X1502476D1*
X1527131Y2509872D2*
Y2511298D1*
X1528272Y2514183D1*
X1529413Y2515609D1*
X1531721Y2517035D1*
X1536310D1*
X1538592Y2515609D1*
X1539733Y2514183D1*
X1540900Y2511298D1*
Y2508446D1*
X1539733Y2505561D1*
X1537451Y2501283D1*
X1525964Y2486924D1*
X1542041D1*
X1563220Y2517035D2*
X1551760D1*
X1550619Y2504135D1*
X1551760Y2505561D1*
X1555208Y2507020D1*
X1558631D1*
X1562079Y2505561D1*
X1564387Y2502709D1*
X1565528Y2498398D1*
Y2495546D1*
X1564387Y2491235D1*
X1562079Y2488350D1*
X1558631Y2486924D1*
X1555208D1*
X1551760Y2488350D1*
X1550619Y2489809D1*
X1549451Y2492661D1*
X1409821Y2136926D2*
Y2167070D1*
X1400642Y2136926D1*
X1391463Y2167070D1*
Y2136926D1*
X1434449Y2159907D2*
X1433309Y2162759D1*
X1431000Y2165644D1*
X1428719Y2167070D1*
X1424129D1*
X1421821Y2165644D1*
X1419540Y2162759D1*
X1418372Y2159907D1*
X1417232Y2155596D1*
Y2148400D1*
X1418372Y2144122D1*
X1419540Y2141237D1*
X1421821Y2138385D1*
X1424129Y2136926D1*
X1428719D1*
X1431000Y2138385D1*
X1433309Y2141237D1*
X1434449Y2144122D1*
X1441860Y2151285D2*
X1452207D1*
X1455629Y2152711D1*
X1456796Y2154170D1*
X1457937Y2157022D1*
Y2161333D1*
X1456796Y2164185D1*
X1455629Y2165644D1*
X1452207Y2167070D1*
X1441860D1*
Y2136926D1*
X1476835D2*
Y2167037D1*
X1465348Y2146974D1*
X1482565D1*
X1494566Y2136926D2*
X1506053Y2167037D1*
X1489976D1*
X1514631Y2159874D2*
Y2161300D1*
X1515772Y2164185D1*
X1516913Y2165611D1*
X1519221Y2167037D1*
X1523810D1*
X1526092Y2165611D1*
X1527233Y2164185D1*
X1528400Y2161300D1*
Y2158448D1*
X1527233Y2155563D1*
X1524951Y2151285D1*
X1513464Y2136926D1*
X1529541D1*
X1550720Y2167037D2*
X1539260D1*
X1538119Y2154137D1*
X1539260Y2155563D1*
X1542708Y2157022D1*
X1546131D1*
X1549579Y2155563D1*
X1551887Y2152711D1*
X1553028Y2148400D1*
Y2145548D1*
X1551887Y2141237D1*
X1549579Y2138352D1*
X1546131Y2136926D1*
X1542708D1*
X1539260Y2138352D1*
X1538119Y2139811D1*
X1536951Y2142663D1*
X1409821Y1761926D2*
Y1792070D1*
X1400642Y1761926D1*
X1391463Y1792070D1*
Y1761926D1*
X1434449Y1784907D2*
X1433309Y1787759D1*
X1431000Y1790644D1*
X1428719Y1792070D1*
X1424129D1*
X1421821Y1790644D1*
X1419540Y1787759D1*
X1418372Y1784907D1*
X1417232Y1780596D1*
Y1773400D1*
X1418372Y1769122D1*
X1419540Y1766237D1*
X1421821Y1763385D1*
X1424129Y1761926D1*
X1428719D1*
X1431000Y1763385D1*
X1433309Y1766237D1*
X1434449Y1769122D1*
X1441860Y1776285D2*
X1452207D1*
X1455629Y1777711D1*
X1456796Y1779170D1*
X1457937Y1782022D1*
Y1786333D1*
X1456796Y1789185D1*
X1455629Y1790644D1*
X1452207Y1792070D1*
X1441860D1*
Y1761926D1*
X1476835D2*
Y1792037D1*
X1465348Y1771974D1*
X1482565D1*
X1494566Y1761926D2*
X1506053Y1792037D1*
X1489976D1*
X1514631Y1784874D2*
Y1786300D1*
X1515772Y1789185D1*
X1516913Y1790611D1*
X1519221Y1792037D1*
X1523810D1*
X1526092Y1790611D1*
X1527233Y1789185D1*
X1528400Y1786300D1*
Y1783448D1*
X1527233Y1780563D1*
X1524951Y1776285D1*
X1513464Y1761926D1*
X1529541D1*
X1550720Y1792037D2*
X1539260D1*
X1538119Y1779137D1*
X1539260Y1780563D1*
X1542708Y1782022D1*
X1546131D1*
X1549579Y1780563D1*
X1551887Y1777711D1*
X1553028Y1773400D1*
Y1770548D1*
X1551887Y1766237D1*
X1549579Y1763352D1*
X1546131Y1761926D1*
X1542708D1*
X1539260Y1763352D1*
X1538119Y1764811D1*
X1536951Y1767663D1*
M02*
